<svg width="121" height="120" viewBox="0 0 121 120" fill="none" xmlns="http://www.w3.org/2000/svg">
<g clip-path="url(#clip0_448_2344)">
<path d="M89.0597 92.8359C87.7941 95.9765 86.5988 98.9765 85.3566 101.953C84.9113 103.031 84.3722 104.086 83.7863 105.094C81.9347 108.258 78.6769 109.477 75.4894 108.234C72.3488 107.016 70.5207 103.781 71.4582 100.336C72.5129 96.4687 73.9425 92.7187 75.2316 88.8984C75.3254 88.6171 75.4425 88.3125 75.5597 88.0078C74.1066 88.2656 71.6457 90.4921 71.13 91.9687C68.0597 100.594 65.0129 109.242 61.8957 117.867C61.6613 118.5 61.6379 119.719 60.4894 119.273C59.4816 118.875 60.1847 117.984 60.3957 117.352C63.7472 107.789 67.1222 98.2265 70.4738 88.664C71.3175 86.2734 71.6691 83.8125 71.0832 81.3046C70.9894 80.9062 70.8488 80.4843 70.6613 79.7578C70.4035 80.3671 70.2629 80.6953 70.1457 81.0234C68.6457 84.5859 67.216 88.1718 65.6457 91.6875C64.7316 93.6796 63.1613 95.1093 60.9582 95.625C56.2941 96.7031 51.8644 92.5312 52.966 87.8671C53.9035 83.9765 55.38 80.2265 56.6222 76.4062C56.7629 75.9609 56.9738 75.539 56.9738 74.9062C56.3644 75.3281 55.7082 75.6796 55.1222 76.1484C53.505 77.4375 52.2629 79.0546 51.466 80.9531C47.9972 89.0859 44.505 97.2421 41.1066 105.398C39.3722 109.57 37.8019 113.812 36.1379 118.031C35.9972 118.383 35.88 118.805 35.6222 119.062C35.4347 119.25 34.966 119.344 34.7082 119.25C34.4972 119.18 34.3332 118.781 34.3097 118.523C34.2863 118.242 34.4504 117.937 34.5675 117.633C37.5675 110.062 40.591 102.492 43.5441 94.8984C43.8957 94.0312 43.8488 93 43.9894 92.0625C43.8254 92.0156 43.6613 91.9921 43.5207 91.9453C43.3332 92.3437 43.1457 92.7187 42.9347 93.1171C40.9425 96.6562 39.1144 100.289 36.8879 103.664C34.9894 106.547 31.5207 107.203 28.5675 105.727C25.8019 104.32 24.1379 101.203 25.1457 98.2734C26.4347 94.6171 28.1457 91.1015 29.716 87.539C29.9972 86.8593 30.3957 86.25 30.8879 85.3359C28.4738 86.2031 26.716 87.539 25.4504 89.3906C23.8097 91.8046 22.2629 94.3125 20.88 96.8906C17.0832 104.016 13.38 111.187 9.63005 118.359C9.51286 118.594 9.44255 118.922 9.23161 119.062C8.90348 119.297 8.50505 119.437 8.13005 119.625C8.01286 119.227 7.89567 118.828 7.82536 118.406C7.80192 118.289 7.94255 118.125 8.01286 117.984C12.5597 109.406 17.0832 100.805 21.6769 92.25C23.0597 89.6718 24.63 87.164 27.1613 85.5C28.2629 84.7734 29.4582 84.1406 30.7004 83.7656C31.6847 83.4609 32.3175 83.0156 32.8097 82.1484C34.1457 79.8515 35.9269 77.9531 38.2941 76.6875C42.4191 74.4609 46.0519 76.4765 46.4504 81.1406C46.6613 83.7656 45.9582 86.1796 44.9035 88.5C44.505 89.3906 44.4816 90.1171 45.1379 90.8906C46.3566 88.125 47.5519 85.3828 48.7941 82.6406C49.966 80.1328 51.0207 77.5078 53.2238 75.6796C54.4425 74.6718 55.8957 73.9687 57.2082 73.1015C57.7004 72.7734 58.1691 72.3984 58.5207 71.9296C59.7394 70.2187 60.7707 68.3671 62.13 66.7734C62.9269 65.8359 64.1222 65.1093 65.2707 64.6171C67.9894 63.4218 70.5207 64.5234 71.7394 67.2656C72.7238 69.5156 72.7472 71.8593 72.1144 74.1562C71.5519 76.2187 71.3175 78.0468 72.3019 80.1562C73.2394 82.1718 73.1457 84.4921 72.6066 86.7187C72.5597 86.9531 72.4894 87.164 72.4425 87.3984C72.4191 87.4687 72.466 87.539 72.466 87.5625C73.7082 86.9765 74.9972 86.4375 76.2394 85.8046C76.5675 85.6406 76.755 85.1718 76.9894 84.8203C78.2082 83.0625 79.2863 81.1875 80.6691 79.5937C81.5129 78.6328 82.755 77.9296 83.9504 77.4375C86.505 76.4062 88.8957 77.4843 90.0675 80.0156C91.1222 82.2421 91.0754 84.5625 90.6066 86.9062C90.5129 87.375 90.4191 87.8437 90.255 88.2656C89.716 89.6718 89.8332 90.914 90.466 92.3671C91.7082 95.1796 91.6379 98.1796 90.7472 101.086C88.9425 107.016 87.0441 112.922 85.1457 118.828C85.0285 119.227 84.3722 119.766 84.0675 119.695C83.2941 119.531 83.4816 118.852 83.6691 118.266C85.4972 112.547 87.3254 106.828 89.1066 101.086C89.8566 98.6484 89.9738 96.1875 89.2941 93.7031C89.3175 93.3984 89.2004 93.164 89.0597 92.8359ZM32.13 104.789C33.6769 104.742 35.13 103.641 36.1847 101.977C39.4425 96.8671 42.2316 91.5 44.2238 85.7812C44.7863 84.1875 44.9035 82.3359 44.7629 80.625C44.5285 77.789 42.3488 76.6406 39.7004 77.7656C37.6144 78.6328 36.0207 80.1562 34.8254 82.0078C33.4191 84.164 32.0597 86.3671 30.9347 88.664C29.3879 91.8515 27.8644 95.0625 26.716 98.414C25.6144 101.602 28.2629 104.812 32.13 104.789ZM70.9191 71.1796C70.8957 70.8046 70.8957 70.4531 70.8488 70.1015C70.6613 68.414 70.2863 66.7734 68.5754 66.0234C66.7941 65.2265 65.341 66.164 63.9582 67.1953C63.841 67.289 63.7004 67.3828 63.6066 67.5C62.505 69 61.0988 70.3593 60.3488 72.0234C58.5441 75.9843 56.9738 80.0625 55.4738 84.164C54.8879 85.7109 54.5363 87.3984 54.4191 89.0625C54.2785 91.2187 55.4269 92.789 57.3488 93.7031C59.3175 94.6171 61.1925 94.3359 62.7629 92.8359C63.4425 92.1796 64.0754 91.3593 64.4504 90.4687C65.9504 86.9531 67.4504 83.4375 68.7863 79.875C69.841 77.0625 70.8488 74.2265 70.9191 71.1796ZM89.6925 84.1875C89.5988 84.164 89.7863 84.2109 89.6925 84.1875C89.6222 83.6015 89.2476 83 89.2238 82.3593C88.4738 78.5625 85.7082 77.4609 82.755 79.9453C81.3488 81.1171 80.13 82.6406 79.1925 84.2109C78.0207 86.1796 77.0832 88.3125 76.3097 90.4687C75.0441 94.0312 73.8722 97.6171 72.9113 101.273C72.3488 103.43 73.6847 105.609 75.6769 106.57C77.716 107.555 79.8957 107.203 81.466 105.516C82.0988 104.836 82.6613 104.039 83.0129 103.195C84.5363 99.6093 86.0832 96.0234 87.3957 92.3671C88.3332 89.7187 88.9425 86.9296 89.6925 84.1875Z" fill="#333333"/>
<path d="M65.4347 39.0234C69.9347 42.4687 74.7394 45.8906 79.2863 49.6406C83.7629 53.3671 88.966 55.7109 94.0754 58.3359C96.63 59.6484 97.8019 61.7343 97.2863 64.0781C96.7472 66.4921 94.1222 68.7421 91.6847 68.8828C90.1613 68.9765 88.9425 68.3906 87.9582 67.2656C87.0675 66.2812 86.13 65.3203 85.38 64.2421C81.1847 58.3828 75.1847 54.539 69.6066 50.2265C66.8644 48.0937 64.0754 46.0078 61.2394 43.8515C60.63 44.3906 60.1144 44.9765 59.4816 45.4218C58.2863 46.289 57.0675 47.1562 55.7785 47.8359C54.3254 48.5859 52.8722 48.4921 51.5363 47.3437C49.7082 45.7734 47.6457 44.5312 45.5129 43.3828C39.466 40.0781 34.2394 35.625 29.4582 30.7265C24.7004 25.875 20.2472 20.7421 15.6535 15.7265C15.3722 15.3984 15.1379 15.0234 14.8097 14.7656C12.7004 13.0312 12.6535 10.8281 13.4504 8.48433C14.505 5.43745 16.38 2.97652 19.1222 1.26558C21.0207 0.0702661 22.8722 -0.140671 25.0519 1.00777C30.6769 3.98433 36.4894 6.58589 42.091 9.56245C48.1379 12.7734 53.88 16.5 58.9191 21.164C60.2316 22.3828 61.38 23.7656 62.6457 25.0546C62.9972 25.4062 63.4425 25.664 63.8175 25.9687C64.966 26.9062 66.3019 27.6796 67.1691 28.8281C67.755 29.5781 68.0832 30.9375 67.8722 31.8515C67.2629 34.2656 66.3019 36.5156 65.4347 39.0234ZM61.1457 25.289C59.9269 24.2109 58.7082 23.1328 57.4894 22.0546C52.2394 17.3671 46.3566 13.6171 40.1691 10.3593C34.966 7.61714 29.5754 5.20308 24.3488 2.50777C22.9425 1.7812 21.7238 1.66402 20.3879 2.41402C17.3879 4.14839 15.466 6.70308 14.6691 10.0546C14.4347 11.039 14.4113 12.0703 15.1847 12.9375C17.1066 15.0937 18.9816 17.2734 20.9035 19.4531C26.9972 26.3671 33.3488 33.0468 40.8254 38.5312C43.005 40.125 45.3488 41.5078 47.5754 42.9375C49.5207 35.0156 53.8801 29.3203 61.1457 25.289ZM55.7785 37.7109C56.1769 38.039 56.4582 38.25 56.716 38.4609C64.4504 44.3437 72.1613 50.25 79.8957 56.1328C80.9738 56.9531 81.4425 56.8828 82.2629 55.7578C83.0129 54.75 82.9425 54.4218 81.8644 53.5781C76.8957 49.7812 71.9269 46.0078 66.9816 42.2109C63.9113 39.8671 60.841 37.5468 57.7004 35.1328C57.0441 36.0234 56.4582 36.8203 55.7785 37.7109ZM82.2394 58.2421C84.5832 60.9375 86.9269 63.7031 89.3175 66.4218C90.091 67.3125 91.216 67.6171 92.2004 67.1484C93.3254 66.5625 94.4972 65.7656 95.2472 64.7578C96.3722 63.2343 95.8097 61.1484 94.0988 60.2343C90.9113 58.5234 87.6535 56.9296 84.5363 55.3359C83.7629 56.2968 83.0597 57.2109 82.2394 58.2421ZM63.9347 28.0546C62.505 26.8593 61.4972 26.8125 59.6457 27.9609C56.5754 29.8828 54.1847 32.5078 52.3332 35.5781C51.2316 37.4296 50.341 39.4453 49.6144 41.5078C49.005 43.2656 49.5675 44.2031 50.9504 44.7656C52.9894 37.4296 57.1847 31.8281 63.9347 28.0546ZM63.8175 37.8046C65.0832 35.789 66.0675 33.7968 66.3488 31.5234C66.5597 29.8593 65.7394 29.25 64.1926 29.8593C62.0597 30.7265 60.4191 32.2265 58.7785 33.9609C60.4894 35.25 62.1066 36.4921 63.8175 37.8046ZM54.9347 39.0937C53.8332 41.1093 52.8019 43.0078 52.7316 45.2343C52.6847 46.5703 53.2707 47.039 54.5597 46.6406C56.6925 45.9609 58.2863 44.4843 59.9035 42.8906C58.1925 41.5781 56.6222 40.3828 54.9347 39.0937Z" fill="#333333"/>
<path d="M89.6925 84.1875C89.5988 84.164 89.7863 84.2109 89.6925 84.1875ZM89.6925 84.1875C89.6222 83.6015 89.2476 83 89.2238 82.3593C88.4738 78.5625 85.7082 77.4609 82.755 79.9453C81.3488 81.1171 80.13 82.6406 79.1925 84.2109C78.0207 86.1796 77.0832 88.3125 76.3097 90.4687C75.0441 94.0312 73.8722 97.6171 72.9113 101.273C72.3488 103.43 73.6847 105.609 75.6769 106.57C77.716 107.555 79.8957 107.203 81.466 105.516C82.0988 104.836 82.6613 104.039 83.0129 103.195C84.5363 99.6093 86.0832 96.0234 87.3957 92.3671C88.3332 89.7187 88.9425 86.9296 89.6925 84.1875ZM89.0597 92.8359C87.7941 95.9765 86.5988 98.9765 85.3566 101.953C84.9113 103.031 84.3722 104.086 83.7863 105.094C81.9347 108.258 78.6769 109.477 75.4894 108.234C72.3488 107.016 70.5207 103.781 71.4582 100.336C72.5129 96.4687 73.9425 92.7187 75.2316 88.8984C75.3254 88.6171 75.4425 88.3125 75.5597 88.0078C74.1066 88.2656 71.6457 90.4921 71.13 91.9687C68.0597 100.594 65.0129 109.242 61.8957 117.867C61.6613 118.5 61.6379 119.719 60.4894 119.273C59.4816 118.875 60.1847 117.984 60.3957 117.352C63.7472 107.789 67.1222 98.2265 70.4738 88.664C71.3175 86.2734 71.6691 83.8125 71.0832 81.3046C70.9894 80.9062 70.8488 80.4843 70.6613 79.7578C70.4035 80.3671 70.2629 80.6953 70.1457 81.0234C68.6457 84.5859 67.216 88.1718 65.6457 91.6875C64.7316 93.6796 63.1613 95.1093 60.9582 95.625C56.2941 96.7031 51.8644 92.5312 52.966 87.8671C53.9035 83.9765 55.38 80.2265 56.6222 76.4062C56.7629 75.9609 56.9738 75.539 56.9738 74.9062C56.3644 75.3281 55.7082 75.6796 55.1222 76.1484C53.505 77.4375 52.2629 79.0546 51.466 80.9531C47.9972 89.0859 44.505 97.2421 41.1066 105.398C39.3722 109.57 37.8019 113.812 36.1379 118.031C35.9972 118.383 35.88 118.805 35.6222 119.062C35.4347 119.25 34.966 119.344 34.7082 119.25C34.4972 119.18 34.3332 118.781 34.3097 118.523C34.2863 118.242 34.4504 117.937 34.5675 117.633C37.5675 110.062 40.591 102.492 43.5441 94.8984C43.8957 94.0312 43.8488 93 43.9894 92.0625C43.8254 92.0156 43.6613 91.9921 43.5207 91.9453C43.3332 92.3437 43.1457 92.7187 42.9347 93.1171C40.9425 96.6562 39.1144 100.289 36.8879 103.664C34.9894 106.547 31.5207 107.203 28.5675 105.727C25.8019 104.32 24.1379 101.203 25.1457 98.2734C26.4347 94.6171 28.1457 91.1015 29.716 87.539C29.9972 86.8593 30.3957 86.25 30.8879 85.3359C28.4738 86.2031 26.716 87.539 25.4504 89.3906C23.8097 91.8046 22.2629 94.3125 20.88 96.8906C17.0832 104.016 13.38 111.187 9.63005 118.359C9.51286 118.594 9.44255 118.922 9.23161 119.062C8.90348 119.297 8.50505 119.437 8.13005 119.625C8.01286 119.227 7.89567 118.828 7.82536 118.406C7.80192 118.289 7.94255 118.125 8.01286 117.984C12.5597 109.406 17.0832 100.805 21.6769 92.25C23.0597 89.6718 24.63 87.164 27.1613 85.5C28.2629 84.7734 29.4582 84.1406 30.7004 83.7656C31.6847 83.4609 32.3175 83.0156 32.8097 82.1484C34.1457 79.8515 35.9269 77.9531 38.2941 76.6875C42.4191 74.4609 46.0519 76.4765 46.4504 81.1406C46.6613 83.7656 45.9582 86.1796 44.9035 88.5C44.505 89.3906 44.4816 90.1171 45.1379 90.8906C46.3566 88.125 47.5519 85.3828 48.7941 82.6406C49.966 80.1328 51.0207 77.5078 53.2238 75.6796C54.4425 74.6718 55.8957 73.9687 57.2082 73.1015C57.7004 72.7734 58.1691 72.3984 58.5207 71.9296C59.7394 70.2187 60.7707 68.3671 62.13 66.7734C62.9269 65.8359 64.1222 65.1093 65.2707 64.6171C67.9894 63.4218 70.5207 64.5234 71.7394 67.2656C72.7238 69.5156 72.7472 71.8593 72.1144 74.1562C71.5519 76.2187 71.3175 78.0468 72.3019 80.1562C73.2394 82.1718 73.1457 84.4921 72.6066 86.7187C72.5597 86.9531 72.4894 87.164 72.4425 87.3984C72.4191 87.4687 72.466 87.539 72.466 87.5625C73.7082 86.9765 74.9972 86.4375 76.2394 85.8046C76.5675 85.6406 76.755 85.1718 76.9894 84.8203C78.2082 83.0625 79.2863 81.1875 80.6691 79.5937C81.5129 78.6328 82.755 77.9296 83.9504 77.4375C86.505 76.4062 88.8957 77.4843 90.0675 80.0156C91.1222 82.2421 91.0754 84.5625 90.6066 86.9062C90.5129 87.375 90.4191 87.8437 90.255 88.2656C89.716 89.6718 89.8332 90.914 90.466 92.3671C91.7082 95.1796 91.6379 98.1796 90.7472 101.086C88.9425 107.016 87.0441 112.922 85.1457 118.828C85.0285 119.227 84.3722 119.766 84.0675 119.695C83.2941 119.531 83.4816 118.852 83.6691 118.266C85.4972 112.547 87.3254 106.828 89.1066 101.086C89.8566 98.6484 89.9738 96.1875 89.2941 93.7031C89.3175 93.3984 89.2004 93.164 89.0597 92.8359ZM32.13 104.789C33.6769 104.742 35.13 103.641 36.1847 101.977C39.4425 96.8671 42.2316 91.5 44.2238 85.7812C44.7863 84.1875 44.9035 82.3359 44.7629 80.625C44.5285 77.789 42.3488 76.6406 39.7004 77.7656C37.6144 78.6328 36.0207 80.1562 34.8254 82.0078C33.4191 84.164 32.0597 86.3671 30.9347 88.664C29.3879 91.8515 27.8644 95.0625 26.716 98.414C25.6144 101.602 28.2629 104.812 32.13 104.789ZM70.9191 71.1796C70.8957 70.8046 70.8957 70.4531 70.8488 70.1015C70.6613 68.414 70.2863 66.7734 68.5754 66.0234C66.7941 65.2265 65.341 66.164 63.9582 67.1953C63.841 67.289 63.7004 67.3828 63.6066 67.5C62.505 69 61.0988 70.3593 60.3488 72.0234C58.5441 75.9843 56.9738 80.0625 55.4738 84.164C54.8879 85.7109 54.5363 87.3984 54.4191 89.0625C54.2785 91.2187 55.4269 92.789 57.3488 93.7031C59.3175 94.6171 61.1925 94.3359 62.7629 92.8359C63.4425 92.1796 64.0754 91.3593 64.4504 90.4687C65.9504 86.9531 67.4504 83.4375 68.7863 79.875C69.841 77.0625 70.8488 74.2265 70.9191 71.1796ZM65.4347 39.0234C69.9347 42.4687 74.7394 45.8906 79.2863 49.6406C83.7629 53.3671 88.966 55.7109 94.0754 58.3359C96.63 59.6484 97.8019 61.7343 97.2863 64.0781C96.7472 66.4921 94.1222 68.7421 91.6847 68.8828C90.1613 68.9765 88.9425 68.3906 87.9582 67.2656C87.0675 66.2812 86.13 65.3203 85.38 64.2421C81.1847 58.3828 75.1847 54.539 69.6066 50.2265C66.8644 48.0937 64.0754 46.0078 61.2394 43.8515C60.63 44.3906 60.1144 44.9765 59.4816 45.4218C58.2863 46.289 57.0675 47.1562 55.7785 47.8359C54.3254 48.5859 52.8722 48.4921 51.5363 47.3437C49.7082 45.7734 47.6457 44.5312 45.5129 43.3828C39.466 40.0781 34.2394 35.625 29.4582 30.7265C24.7004 25.875 20.2472 20.7421 15.6535 15.7265C15.3722 15.3984 15.1379 15.0234 14.8097 14.7656C12.7004 13.0312 12.6535 10.8281 13.4504 8.48433C14.505 5.43745 16.38 2.97652 19.1222 1.26558C21.0207 0.0702661 22.8722 -0.140671 25.0519 1.00777C30.6769 3.98433 36.4894 6.58589 42.091 9.56245C48.1379 12.7734 53.88 16.5 58.9191 21.164C60.2316 22.3828 61.38 23.7656 62.6457 25.0546C62.9972 25.4062 63.4425 25.664 63.8175 25.9687C64.966 26.9062 66.3019 27.6796 67.1691 28.8281C67.755 29.5781 68.0832 30.9375 67.8722 31.8515C67.2629 34.2656 66.3019 36.5156 65.4347 39.0234ZM61.1457 25.289C59.9269 24.2109 58.7082 23.1328 57.4894 22.0546C52.2394 17.3671 46.3566 13.6171 40.1691 10.3593C34.966 7.61714 29.5754 5.20308 24.3488 2.50777C22.9425 1.7812 21.7238 1.66402 20.3879 2.41402C17.3879 4.14839 15.466 6.70308 14.6691 10.0546C14.4347 11.039 14.4113 12.0703 15.1847 12.9375C17.1066 15.0937 18.9816 17.2734 20.9035 19.4531C26.9972 26.3671 33.3488 33.0468 40.8254 38.5312C43.005 40.125 45.3488 41.5078 47.5754 42.9375C49.5207 35.0156 53.8801 29.3203 61.1457 25.289ZM55.7785 37.7109C56.1769 38.039 56.4582 38.25 56.716 38.4609C64.4504 44.3437 72.1613 50.25 79.8957 56.1328C80.9738 56.9531 81.4425 56.8828 82.2629 55.7578C83.0129 54.75 82.9425 54.4218 81.8644 53.5781C76.8957 49.7812 71.9269 46.0078 66.9816 42.2109C63.9113 39.8671 60.841 37.5468 57.7004 35.1328C57.0441 36.0234 56.4582 36.8203 55.7785 37.7109ZM82.2394 58.2421C84.5832 60.9375 86.9269 63.7031 89.3175 66.4218C90.091 67.3125 91.216 67.6171 92.2004 67.1484C93.3254 66.5625 94.4972 65.7656 95.2472 64.7578C96.3722 63.2343 95.8097 61.1484 94.0988 60.2343C90.9113 58.5234 87.6535 56.9296 84.5363 55.3359C83.7629 56.2968 83.0597 57.2109 82.2394 58.2421ZM63.9347 28.0546C62.505 26.8593 61.4972 26.8125 59.6457 27.9609C56.5754 29.8828 54.1847 32.5078 52.3332 35.5781C51.2316 37.4296 50.341 39.4453 49.6144 41.5078C49.005 43.2656 49.5675 44.2031 50.9504 44.7656C52.9894 37.4296 57.1847 31.8281 63.9347 28.0546ZM63.8175 37.8046C65.0832 35.789 66.0675 33.7968 66.3488 31.5234C66.5597 29.8593 65.7394 29.25 64.1926 29.8593C62.0597 30.7265 60.4191 32.2265 58.7785 33.9609C60.4894 35.25 62.1066 36.4921 63.8175 37.8046ZM54.9347 39.0937C53.8332 41.1093 52.8019 43.0078 52.7316 45.2343C52.6847 46.5703 53.2707 47.039 54.5597 46.6406C56.6925 45.9609 58.2863 44.4843 59.9035 42.8906C58.1925 41.5781 56.6222 40.3828 54.9347 39.0937Z" stroke="#333333" stroke-width="0.8"/>
<path d="M113.74 57.2578C113.599 57.3984 113.552 57.4922 113.505 57.5156C110.271 58.6406 108.63 61.1484 107.787 64.2891C107.716 64.5 107.599 64.7109 107.388 65.1562C106.826 63.7969 106.24 62.625 105.865 61.4062C105.466 60.1641 104.74 59.3437 103.591 58.8047C102.724 58.4062 101.927 57.8438 101.06 57.3281C101.201 57.2109 101.248 57.1172 101.318 57.0938C104.576 55.9219 106.24 53.4141 107.06 50.2031C107.107 50.0156 107.224 49.8516 107.435 49.4062C107.974 50.7656 108.537 51.9141 108.912 53.1094C109.31 54.3984 110.06 55.2422 111.255 55.8047C112.076 56.2031 112.873 56.7422 113.74 57.2578ZM103.919 57.3047C105.771 58.0312 106.943 58.9922 107.412 60.75C107.74 58.8984 109.099 58.1016 110.74 57.2344C108.912 56.6016 107.833 55.5937 107.341 53.8359C107.013 55.6641 105.794 56.5547 103.919 57.3047Z" fill="#333333"/>
<path d="M96.8179 70.5C100.521 69.6328 101.716 66.9844 102.466 63.9609C102.56 63.9609 102.677 63.9609 102.771 63.9609C103.146 64.8984 103.615 65.8125 103.896 66.7734C104.294 68.0391 104.998 68.9531 106.24 69.4688C106.919 69.75 107.505 70.1953 108.138 70.5703C106.873 71.4844 105.396 72.1641 104.505 73.2656C103.638 74.3672 103.333 75.9375 102.677 77.5547C102.162 76.2656 101.669 75.2578 101.341 74.2266C101.013 73.1484 100.38 72.4219 99.3491 71.9531C98.6226 71.625 97.9429 71.1562 96.8179 70.5ZM102.677 68.5781C102.021 69.2344 101.271 70.0078 100.638 70.6406C101.318 71.3438 102.044 72.1172 102.654 72.75C103.31 72.0938 104.084 71.3203 104.74 70.6641C104.084 70.0078 103.333 69.2344 102.677 68.5781Z" fill="#333333"/>
<path d="M87.7006 83.4375C87.1849 85.1953 86.7162 86.8828 86.1771 88.5469C86.1068 88.7578 85.7318 88.875 85.5209 89.0156C85.4506 88.7578 85.2396 88.4531 85.2865 88.2187C85.685 86.4375 86.1068 84.6563 86.5756 82.8984C86.6225 82.7109 86.9037 82.5703 87.0912 82.4062C87.2553 82.7344 87.4428 83.0625 87.7006 83.4375Z" fill="#333333"/>
</g>
<defs>
<clipPath id="clip0_448_2344">
<rect width="120" height="120" fill="white" transform="translate(0.747559)"/>
</clipPath>
</defs>
</svg>
