<svg width="121" height="120" viewBox="0 0 121 120" fill="none" xmlns="http://www.w3.org/2000/svg">
<path d="M62.8543 104.638C59.4258 100.286 60.5466 94.8795 58.8983 89.9344C58.8983 94.2861 58.8983 98.5718 58.8983 102.923C58.5686 102.989 58.2389 102.989 57.9093 103.055C55.7335 100.418 56.9203 96.9235 55.6675 93.7586C55.206 96.1982 54.7444 98.5718 54.2829 101.011C53.8873 100.945 53.5576 100.814 53.162 100.748C51.8433 94.0224 55.6675 88.5498 58.3708 82.8136C52.2389 81.8246 51.6455 82.0224 50.9862 87.8245C50.5247 91.6487 50.9203 95.6048 50.9203 99.4949C50.5247 99.6267 50.195 99.6927 49.7994 99.8245C49.4697 98.5718 49.0082 97.3191 48.8104 96.0663C48.5466 94.6158 48.4807 93.0993 48.151 90.6597C46.9642 93.9564 46.1071 96.33 45.3159 98.7696C44.9862 98.7037 44.6565 98.6377 44.3928 98.5718C43.4697 95.1432 46.173 92.1762 45.6455 88.6817C44.195 91.5828 42.8104 94.5498 41.3598 97.4509C40.9642 97.2531 40.6346 97.0553 40.2389 96.8575C41.0961 91.0553 44.5247 86.4399 48.7444 81.9564C46.5027 81.4949 44.5906 81.0993 42.3488 80.5718C40.8983 85.2531 39.4477 89.8685 37.9972 94.418C37.5357 94.2861 37.0741 94.1542 36.6126 94.0224C37.4038 90.5938 38.195 87.0993 38.9203 83.6707C38.7884 83.6048 38.6565 83.4729 38.4587 83.407C36.8104 86.1103 35.0961 88.8795 33.4477 91.5828C33.0521 91.385 32.6565 91.1213 32.2609 90.9234C33.1181 88.9454 33.9752 86.9015 34.7664 84.9235C34.5686 84.7916 34.4368 84.6597 34.239 84.5278C32.6565 86.4399 31.1401 88.352 29.5576 90.2641C28.0411 88.0223 28.1071 87.9564 37.206 79.5169C33.8433 79.2531 30.9422 79.0553 27.9752 78.8575C27.5796 81.8905 27.184 84.7916 26.7884 87.6927C26.3928 87.6267 25.9313 87.6268 25.5357 87.5608C25.5357 85.5828 25.5357 83.6048 25.5357 80.5718C23.4917 83.1432 22.0412 84.9235 20.5906 86.7037C20.195 86.374 19.7994 86.1103 19.4697 85.7806C20.0631 84.6597 20.6565 83.6048 21.3159 82.418C19.4697 82.5498 17.6236 82.6817 15.8433 82.7476C15.7774 82.352 15.7115 81.9564 15.6455 81.5608C17.8873 80.9015 20.1291 80.1762 22.3708 79.5169C22.3708 79.2531 22.3049 78.9894 22.3049 78.6597C18.7444 78.6597 15.184 78.6597 11.5576 78.6597C11.5576 78.33 11.4917 78.0004 11.4917 77.6707C12.217 77.4729 12.9422 77.1432 13.7335 77.0773C23.9532 76.0883 34.1071 76.5498 44.195 78.7916C56.9203 81.5608 69.5137 81.4949 81.7115 76.418C85.5357 74.8355 89.0302 72.4619 92.6565 70.4839C96.4807 74.5718 100.766 72.33 105.052 71.0773C106.173 70.7476 107.228 70.352 108.481 70.5498C104.92 74.1103 100.503 74.8355 94.8983 74.5718C100.041 77.6048 104.722 76.0224 109.338 75.5608C109.404 76.0224 109.47 76.4839 109.536 76.9454C107.821 77.407 106.173 78.0663 104.459 78.2641C102.547 78.4619 100.635 78.33 98.7225 78.33C98.6565 78.6597 98.6565 78.9894 98.5906 79.3191C101.689 80.0443 104.788 80.7696 107.887 81.4949C105.316 85.0553 95.6236 81.2971 90.151 74.5059C89.2939 74.9674 88.4367 75.4949 87.5137 76.0883C91.6675 83.2092 98.7884 84.4619 105.909 86.1762C103.602 88.1542 101.294 87.6927 91.9313 84.4619C93.4477 85.6487 94.8983 86.9015 96.5466 87.8905C98.2609 88.9454 100.107 89.6707 102.217 90.6597C99.3159 91.9784 99.3159 91.9784 91.4038 87.6267C93.1181 90.0663 94.8324 92.5718 96.4807 95.0114C96.0851 95.2751 95.6895 95.5388 95.2939 95.8026C90.0851 90.9894 87.3159 84.5278 84.4807 77.6707C83.2939 78.1322 82.239 78.5278 80.8543 79.0553C82.6346 86.3081 86.5247 92.1762 92.0631 97.1213C91.6016 97.5169 91.206 97.8465 90.7444 98.2421C88.4368 96.0004 86.1291 93.8245 83.162 90.9234C84.6785 94.418 85.9313 97.1872 87.184 99.9564C86.8543 100.088 86.5247 100.286 86.2609 100.418C82.8983 97.4509 82.173 92.9015 80.1291 89.2092C79.8653 89.2751 79.6016 89.341 79.3379 89.407C80.5906 93.5608 81.8433 97.6487 83.162 101.934C79.6016 100.286 79.4697 99.6927 76.8324 80.5718C74.5247 81.0333 72.217 81.5608 68.8543 82.2202C72.3488 89.4729 75.7115 96.396 79.0082 103.253C78.6785 103.451 78.4148 103.649 78.0851 103.847C74.6565 99.9564 72.6785 95.1432 70.2389 90.5938C69.9752 90.7256 69.7115 90.7916 69.3818 90.9234C70.9642 95.4729 72.6126 100.088 74.2609 104.77C71.3598 103.781 69.5137 99.8246 67.0741 90.33C67.0741 95.1432 67.0741 99.9564 67.0741 104.836C66.6785 104.836 66.2829 104.836 65.8214 104.836C64.2389 97.5828 64.4368 90.33 66.151 82.8136C64.7664 82.8136 63.5137 82.8136 61.4038 82.8136C62.1291 90.0004 62.5247 97.3191 62.8543 104.638Z" fill="#333333"/>
<path d="M27.5137 42.0661C29.8214 36.0001 32.1291 29.8683 34.5027 23.8023C34.7664 23.2089 35.4917 22.6155 36.151 22.3518C45.7115 18.6595 55.4038 15.2309 65.6895 15.2968C70.3708 15.2968 75.5796 15.9562 79.6675 18.132C89.6236 23.4067 99.0521 29.6705 108.679 35.5386C109.14 35.8023 109.47 36.2639 109.799 36.7254C109.865 36.8573 109.799 37.121 109.733 37.9782C108.481 37.4507 107.36 37.0551 106.371 36.4617C99.3159 32.3738 91.9972 29.0771 83.8873 27.4946C77.3598 26.2419 71.162 27.2309 65.162 29.4067C54.0192 33.4287 43.0082 37.7144 31.9313 41.8683C30.8763 42.2639 29.7554 42.5935 28.7005 42.9891C28.2389 42.6595 27.9093 42.3957 27.5137 42.0661ZM30.4148 39.8243C34.3049 39.2968 35.9532 37.7144 36.5466 34.7474C37.0082 32.5056 37.8653 30.3298 38.6565 28.154C38.9203 27.4946 39.4477 26.9672 39.9093 26.3738C40.3049 26.5056 40.6346 26.7034 41.0302 26.8353C40.0411 30.0661 39.1181 33.3628 38.1291 36.6595C44.195 36.5935 41.7554 30.6595 45.3818 27.7584C45.1181 30.4617 44.9203 32.3078 44.6565 34.2199C60.0851 29.4067 74.6565 20.7694 92.2609 27.7584C91.4038 26.6375 91.2719 26.3078 91.0082 26.11C80.195 19.121 68.8543 14.7034 55.6016 18.3298C52.8983 19.0551 51.3818 20.0441 51.0521 22.8792C50.8543 24.7254 50.1291 26.5056 49.6675 28.3518C49.206 28.2199 48.7444 28.154 48.2829 28.0221C48.6785 25.4507 49.0741 22.8793 49.5357 19.7804C45.2499 21.2309 41.4258 22.4836 37.6675 23.8683C36.8763 24.1979 35.9532 25.0551 35.6236 25.8463C33.8433 30.3298 32.2609 34.8133 30.4148 39.8243Z" fill="#333333"/>
<path d="M30.9424 61.8464C31.5358 60.7914 31.9973 59.6046 32.8545 58.6815C37.4699 53.8024 43.5358 51.4947 49.8655 49.9123C61.2721 47.0771 72.4808 47.6046 83.4259 52.0881C84.7446 52.6156 85.8655 53.5387 86.9863 54.7914C67.1402 47.6046 48.349 47.2749 30.9424 61.8464Z" fill="#333333"/>
<path d="M29.2938 25.978C27.4476 32.3736 25.5356 38.8352 23.6235 45.4286C21.7114 42.3956 25.2059 29.2747 29.2938 25.978Z" fill="#333333"/>
<path d="M18.349 48.2637C16.371 42.7252 18.8765 31.7142 22.7666 28.1538C21.2501 34.8791 19.8655 41.2088 18.349 48.2637Z" fill="#333333"/>
<path d="M16.0412 31.7803C15.3819 36.6594 14.7885 40.9451 14.1291 45.6264C11.7555 42.4616 12.7445 34.6154 16.0412 31.7803Z" fill="#333333"/>
</svg>
