<svg width="121" height="120" viewBox="0 0 121 120" fill="none" xmlns="http://www.w3.org/2000/svg">
<path d="M50.1694 99.9842C50.1694 101.929 50.1929 103.429 50.1694 104.953C50.0991 108.586 49.8882 112.219 48.7866 115.711C48.7163 115.969 48.646 116.25 48.5288 116.484C48.2007 117.328 47.5679 117.726 46.6772 117.469C45.7632 117.211 45.5054 116.508 45.6929 115.617C45.8335 115.008 46.021 114.422 46.1851 113.812C47.3569 109.383 47.0288 104.812 47.3101 100.312C47.4272 98.6248 47.0991 97.3826 45.646 96.3045C44.3101 95.3201 43.4194 93.6326 42.0132 92.8592C40.6304 92.1092 38.8257 92.2029 37.2319 91.8513C31.021 90.4217 27.4351 84.9842 28.8413 79.1951C29.5444 76.2888 31.3726 74.0623 33.9038 72.7498C37.4663 70.8748 41.1929 69.1873 44.9663 67.781C50.146 65.8592 55.5366 64.4529 60.7163 62.5545C65.4741 60.7967 69.7632 58.1248 73.2319 54.3279C77.9663 49.1717 79.6772 42.9607 79.3491 36.0935C79.3257 35.4607 79.2554 34.8513 79.2319 34.2185C79.2085 33.3045 79.6069 32.6717 80.5444 32.5779C81.5288 32.4607 82.1147 33.0701 82.2085 33.9842C82.3257 35.0388 82.2788 36.0935 82.3491 37.1482C82.3726 37.5701 82.396 38.0388 82.6069 38.367C85.0444 42.281 86.2397 46.6404 86.9429 51.1404C87.4819 54.5623 87.8101 58.031 88.2319 61.4998C88.3491 61.3826 88.4897 61.242 88.5835 61.0545C95.4741 47.6248 89.8022 30.9373 77.3569 24.7263C72.8335 22.4763 68.0054 21.6092 62.9897 21.492C55.2319 21.3045 47.8491 22.7342 41.0054 26.4842C35.1929 29.6717 31.396 34.4529 29.6382 40.8513C29.5913 41.0388 29.5679 41.2263 29.4976 41.4138C29.1929 42.4451 28.4663 42.9373 27.5991 42.7029C26.7319 42.4685 26.3335 41.6951 26.5913 40.6638C27.5054 36.9842 29.0757 33.5623 31.5601 30.7029C33.1538 28.8748 35.0757 27.281 36.9038 25.6404C37.3491 25.242 37.6304 25.031 37.3491 24.3279C35.6616 20.0388 37.4194 16.5701 41.8257 15.2342C42.0835 15.1638 42.4351 14.8592 42.4819 14.6013C43.3022 10.1482 45.8335 7.03103 49.8179 5.03884C53.7788 3.07009 57.8569 3.09353 62.0054 4.33572C62.4976 4.47634 63.1538 4.38259 63.6226 4.17165C66.5991 2.78884 69.6694 1.99197 72.9272 2.60134C77.4507 3.44509 80.9663 7.66384 81.3179 12.5154C81.3882 13.4529 81.3179 14.3904 81.3179 15.3045C85.7944 16.8045 87.9272 20.8592 84.5991 25.8045C86.0054 27.4451 87.5522 28.9685 88.7476 30.7498C95.6851 41.0857 96.5522 51.8904 90.9272 63.0701C90.5054 63.8904 90.0132 64.7576 89.3569 65.3904C88.2319 66.4685 88.0913 67.7342 88.0444 69.1873C87.8804 74.8123 87.3647 80.4138 85.2554 85.7342C83.4741 90.2342 80.146 93.5388 76.6538 96.6795C75.7632 97.4763 75.3647 98.2263 75.4116 99.4451C75.5757 104.039 75.3647 108.679 76.3726 113.203C76.5366 113.929 76.7476 114.633 76.9585 115.359C77.2397 116.414 76.8882 117.187 76.0444 117.445C75.1538 117.726 74.3101 117.328 74.1226 116.25C73.5601 113.39 72.9741 110.508 72.6929 107.625C72.4585 105.234 72.646 102.82 72.4585 100.265C65.0288 106.265 57.7163 106.289 50.1694 99.9842ZM82.2085 43.9216C82.0913 43.9451 81.9741 43.9685 81.8569 43.9685C81.7632 44.2263 81.6694 44.4841 81.5991 44.742C80.0757 51.4216 76.3022 56.5545 70.7944 60.492C66.271 63.7263 61.1851 65.7654 55.9351 67.4998C50.2397 69.3748 44.5913 71.3904 38.9194 73.3123C38.0757 73.5935 37.8647 74.0623 37.9819 74.8592C38.146 76.0076 38.2163 77.2029 38.4507 78.3279C39.3179 82.6638 40.7476 86.742 43.7241 90.1638C47.2163 94.1717 51.2007 97.5935 55.8179 100.242C59.521 102.375 63.4351 102.422 67.0444 100.125C70.1147 98.156 72.9976 95.8592 75.7866 93.492C80.8726 89.2029 83.7319 83.6951 84.4585 77.0388C85.2788 69.6092 85.6069 62.156 84.5288 54.7263C84.0132 51.0935 83.0054 47.531 82.2085 43.9216ZM46.4663 20.8357C51.3882 19.2888 56.3804 18.5857 61.4663 18.4685C66.5991 18.3513 71.5444 19.2185 76.3726 20.9763C77.8726 18.1873 78.7163 15.3748 78.2476 12.3279C77.4507 7.12478 72.7632 3.42165 66.2944 6.5154C66.5991 6.79665 66.8804 7.03103 67.1851 7.28884C68.8491 8.7654 70.0913 10.5232 70.8413 12.6326C71.2163 13.7342 70.9351 14.5779 70.0444 14.8592C69.0132 15.1873 68.3804 14.6482 68.0522 13.7342C65.1226 5.62478 53.4507 4.21853 47.8257 10.1951C45.1304 13.0545 44.521 17.2732 46.4663 20.8357ZM39.1069 89.0154C36.8101 84.7732 35.521 80.3201 35.0991 75.6092C32.4976 76.8748 31.0444 80.2263 31.7007 83.2498C32.3804 86.3201 35.6616 88.9685 39.1069 89.0154ZM79.1851 22.2654C80.146 22.8513 81.0835 23.4138 82.0913 23.9998C82.9116 22.8045 83.5679 21.7029 83.0288 20.3435C82.6304 19.3123 81.8569 18.656 80.7319 18.4685C80.2163 19.7342 79.7241 20.9529 79.1851 22.2654ZM43.4429 21.9373C43.0444 20.6717 42.6694 19.4763 42.3179 18.281C39.8569 18.9842 38.9897 21.2576 40.3491 23.4373C41.3804 22.9451 42.4116 22.4295 43.4429 21.9373Z" fill="#333333"/>
<path d="M12.2944 80.0857C12.4116 67.992 17.6616 59.5779 26.9897 53.4607C32.1694 50.0623 37.8882 47.7185 43.396 44.9763C45.7866 43.781 48.1538 42.4451 50.3804 40.9685C52.3491 39.6795 53.8257 37.9217 54.2007 35.4607C54.3413 34.5232 54.9976 34.0076 55.9819 34.1951C56.9663 34.3826 57.271 35.1326 57.1304 36.0467C56.7788 38.5076 55.6069 40.6404 53.6616 42.0935C51.3413 43.8513 48.8804 45.4685 46.3022 46.8279C41.2632 49.4763 36.0366 51.7498 31.0444 54.4685C25.5835 57.4451 20.8491 61.3592 18.1069 67.1248C14.6147 74.531 13.8413 82.1482 17.7319 89.6717C20.8726 95.742 26.2632 99.117 32.5913 101.226C32.9663 101.344 33.4819 101.367 33.6694 101.625C34.021 102.117 34.4194 102.797 34.3022 103.312C34.2085 103.734 33.4585 104.039 32.9429 104.344C32.7788 104.437 32.4741 104.32 32.2632 104.25C24.9272 101.859 18.8335 97.8513 15.0132 90.9138C13.0679 87.3279 12.2944 83.4138 12.2944 80.0857Z" fill="#333333"/>
</svg>
