<svg width="826" height="130" viewBox="0 0 826 130" fill="none" xmlns="http://www.w3.org/2000/svg">
<g clip-path="url(#clip0_281_7935)">
<path d="M35.7392 123.202C35.5494 123.202 35.3596 123.112 35.1698 123.021C34.7902 122.749 34.6953 122.113 34.98 121.75L39.6299 116.122C39.9146 115.759 40.5789 115.668 40.9585 115.941C41.3381 116.213 41.433 116.849 41.1483 117.212L36.4983 122.839C36.3085 123.112 36.0238 123.202 35.7392 123.202Z" fill="#E0C6E0"/>
<path d="M48.1704 128.558C48.0755 128.558 48.0755 128.558 47.9806 128.558L40.4838 127.378C40.0093 127.287 39.6297 126.833 39.7246 126.289C39.8195 125.835 40.294 125.472 40.8634 125.563L48.3602 126.743C48.8347 126.833 49.2143 127.287 49.1194 127.832C49.0245 128.195 48.6449 128.558 48.1704 128.558Z" fill="#E0C6E0"/>
<path d="M48.1703 121.115C48.0754 121.115 47.8856 121.115 47.7907 121.024C47.3162 120.842 47.1264 120.298 47.4111 119.844L50.8274 113.308C51.0172 112.855 51.5866 112.673 52.061 112.945C52.5355 113.127 52.7253 113.671 52.4406 114.125L49.0243 120.661C48.8346 120.933 48.5499 121.115 48.1703 121.115Z" fill="#E0C6E0"/>
<path d="M31.7536 116.849C31.5638 116.849 31.374 116.849 31.2791 116.667L25.3955 113.127C24.921 112.855 24.8261 112.31 25.1108 111.856C25.3955 111.402 25.9649 111.312 26.4394 111.584L32.323 115.124C32.7975 115.396 32.8923 115.941 32.6077 116.395C32.323 116.667 32.0383 116.849 31.7536 116.849Z" fill="#E0C6E0"/>
<path d="M11.1609 123.384C10.7814 123.384 10.4967 123.202 10.3069 122.839C10.1171 122.386 10.3069 121.841 10.6865 121.659L18.1833 118.119C18.6578 117.938 19.2272 118.119 19.417 118.482C19.6068 118.936 19.417 119.481 19.0374 119.662L11.5405 123.202C11.4456 123.293 11.3507 123.384 11.1609 123.384Z" fill="#E0C6E0"/>
<path d="M36.6882 106.591C36.2137 106.591 35.8341 106.319 35.7392 105.865C35.6444 105.411 36.0239 104.867 36.4984 104.776L43.9953 103.596C44.4697 103.505 45.0391 103.868 45.134 104.322C45.2289 104.776 44.8493 105.321 44.3748 105.411L36.878 106.591C36.7831 106.591 36.7831 106.591 36.6882 106.591Z" fill="#E0C6E0"/>
<path d="M62.0254 110.948C61.7407 110.948 61.456 110.858 61.2662 110.585L55.6673 104.05C55.3826 103.687 55.3826 103.051 55.7622 102.779C56.1418 102.507 56.806 102.507 57.0907 102.87L62.6896 109.405C62.9743 109.768 62.9743 110.404 62.5947 110.676C62.4049 110.948 62.2152 110.948 62.0254 110.948Z" fill="#E0C6E0"/>
<path d="M19.3223 109.859C19.1325 109.859 19.0376 109.859 18.8478 109.768C18.3733 109.496 18.1835 108.951 18.4682 108.498L22.5488 101.327C22.8335 100.873 23.4029 100.691 23.8773 100.964C24.3518 101.236 24.5416 101.781 24.2569 102.234L20.1764 109.405C19.9866 109.678 19.607 109.859 19.3223 109.859Z" fill="#E0C6E0"/>
<path d="M83.0928 115.305L81.6694 113.672C81.2898 113.309 81.3847 112.673 81.7643 112.401C82.1439 112.038 82.8081 112.129 83.0928 112.492L83.852 113.399C83.5673 114.216 83.2826 114.761 83.0928 115.305Z" fill="#E0C6E0"/>
<path d="M73.3183 127.015C73.1285 127.015 72.9387 126.924 72.7489 126.833C72.3693 126.561 72.2744 125.925 72.5591 125.562L77.209 119.935C77.4937 119.572 78.158 119.481 78.5376 119.753C78.9172 120.025 79.0121 120.661 78.7274 121.024L74.0774 126.652C73.8876 126.924 73.6029 127.015 73.3183 127.015Z" fill="#E0C6E0"/>
<path d="M73.0337 117.212C72.9388 117.212 72.9388 117.212 72.8439 117.212L65.3471 116.032C64.8726 115.941 64.493 115.487 64.5879 114.942C64.6828 114.488 65.1573 114.125 65.7266 114.216L73.2235 115.487C73.698 115.578 74.0775 116.032 73.9827 116.576C73.8878 116.939 73.5082 117.212 73.0337 117.212Z" fill="#E0C6E0"/>
<path d="M70.7561 108.225H70.6612C70.1867 108.135 69.7122 107.771 69.8071 107.227L70.4714 101.327C70.5663 100.873 70.9459 100.51 71.5153 100.51C71.9898 100.601 72.4642 100.964 72.3693 101.508L71.7051 107.408C71.6102 107.953 71.2306 108.225 70.7561 108.225Z" fill="#E0C6E0"/>
<path d="M62.3099 129.103C62.215 129.103 62.0252 129.103 61.9303 129.012C61.4559 128.83 61.2661 128.286 61.5508 127.832L64.967 121.296C65.1568 120.843 65.7262 120.661 66.2007 120.933C66.6752 121.115 66.865 121.66 66.5803 122.113L63.164 128.649C62.9742 128.921 62.6895 129.103 62.3099 129.103Z" fill="#E0C6E0"/>
<path d="M88.8812 127.56C88.5016 127.56 88.2169 127.378 88.0271 127.015C87.8373 126.561 88.0271 126.016 88.4067 125.835L95.9035 122.295C96.378 122.113 96.9474 122.295 97.1372 122.658C97.327 123.112 97.1372 123.656 96.7576 123.838L89.2608 127.378C89.1659 127.469 88.9761 127.56 88.8812 127.56Z" fill="#E0C6E0"/>
<path d="M111.372 129.738C111.087 129.738 110.803 129.647 110.613 129.375L105.014 122.839C104.729 122.476 104.729 121.841 105.109 121.569C105.488 121.296 106.153 121.296 106.437 121.659L112.036 128.195C112.321 128.558 112.321 129.193 111.941 129.466C111.752 129.647 111.562 129.738 111.372 129.738Z" fill="#E0C6E0"/>
<path d="M85.0857 101.69L79.8664 103.233C79.7715 103.233 79.6766 103.233 79.5817 103.233C79.2022 103.233 78.8226 102.96 78.6328 102.597C78.443 102.144 78.7277 101.599 79.2971 101.508L83.3776 100.328C83.947 100.691 84.5164 101.327 85.0857 101.69Z" fill="#E0C6E0"/>
<path d="M11.2558 111.039L14.3873 112.945C14.8618 113.218 14.9567 113.762 14.672 114.216C14.4822 114.488 14.1976 114.67 13.9129 114.67C13.7231 114.67 13.5333 114.67 13.4384 114.488L10.4966 112.673C10.6864 112.31 11.066 111.674 11.2558 111.039Z" fill="#E0C6E0"/>
<path d="M20.8401 96.1528C20.4606 96.1528 20.1759 95.9713 19.9861 95.6082C19.7963 95.1543 19.9861 94.6097 20.3657 94.4282L27.8625 90.8881C28.337 90.7066 28.9064 90.8881 29.0962 91.2512C29.286 91.7051 29.0962 92.2497 28.7166 92.4312L21.2197 95.9713C21.1248 96.1528 21.0299 96.1528 20.8401 96.1528Z" fill="#E0C6E0"/>
<path d="M33.1769 76.637L37.1625 77.3631C37.637 77.4539 38.0166 77.9078 37.9217 78.4524C37.8268 78.9062 37.4472 79.1785 36.9727 79.1785C36.8778 79.1785 36.8778 79.1785 36.7829 79.1785L31.7534 78.1801C32.0381 77.7262 32.7024 77.0908 33.1769 76.637Z" fill="#E0C6E0"/>
<path d="M77.9683 92.885L77.6836 95.8804C77.5887 96.3343 77.2091 96.6974 76.7346 96.6974H76.6397C76.1652 96.6066 75.6908 96.2435 75.7857 95.6989L76.4499 89.7988V89.708C76.7346 90.5249 77.5887 91.9773 77.9683 92.885Z" fill="#E0C6E0"/>
<path d="M104.634 129.738C104.444 129.738 104.254 129.738 104.159 129.556L98.2759 126.016C97.8014 125.744 97.7065 125.199 97.9912 124.746C98.2759 124.292 98.8453 124.201 99.3197 124.473L105.203 128.013C105.678 128.286 105.773 128.83 105.488 129.284C105.298 129.556 104.919 129.738 104.634 129.738Z" fill="#E0C6E0"/>
<path d="M62.9745 93.1573C62.5 93.1573 62.1205 92.885 62.0256 92.4311L60.7919 86.531C60.697 86.0772 60.9817 85.5325 61.5511 85.4418C62.0256 85.351 62.5949 85.6233 62.6898 86.1679L63.9235 92.068C64.0184 92.5219 63.7337 93.0665 63.1643 93.1573C63.0694 93.1573 63.0694 93.1573 62.9745 93.1573Z" fill="#E0C6E0"/>
<path d="M50.9227 76.728C50.5431 76.728 50.2584 76.5465 50.0686 76.1834C49.8788 75.7295 50.0686 75.1849 50.4482 75.0034L57.945 71.4633C58.4195 71.2818 58.9889 71.4633 59.1787 71.8264C59.3685 72.2802 59.1787 72.8249 58.7991 73.0064L51.3972 76.6372C51.2074 76.728 51.1125 76.728 50.9227 76.728Z" fill="#E0C6E0"/>
<path d="M42.5717 69.8293L44.2799 71.8263C44.5646 72.1894 44.5646 72.8248 44.185 73.0971C43.9952 73.2786 43.8054 73.2786 43.6156 73.2786C43.3309 73.2786 43.0462 73.1879 42.8564 72.9156L40.9585 70.7371C41.3381 70.4647 42.0973 70.0109 42.5717 69.8293Z" fill="#E0C6E0"/>
<path d="M52.5357 85.8049C52.4408 85.8049 52.4408 85.8049 52.3459 85.8049L44.5643 84.3526C44.0899 84.2618 43.7103 83.808 43.8052 83.2634C43.9001 82.8095 44.3745 82.4464 44.9439 82.5372L52.7255 83.9895C53.1999 84.0803 53.5795 84.5342 53.4846 85.0788C53.3897 85.5326 53.0101 85.8049 52.5357 85.8049Z" fill="#E0C6E0"/>
<path d="M50.5427 97.4234C50.1631 97.4234 49.7835 97.1511 49.5937 96.788C49.4039 96.3342 49.6886 95.7895 50.258 95.6988L58.3242 93.3387C58.7987 93.1572 59.3681 93.4295 59.463 93.9741C59.6528 94.428 59.3681 94.9726 58.7987 95.0634L50.7325 97.4234C50.7325 97.4234 50.6376 97.4234 50.5427 97.4234Z" fill="#E0C6E0"/>
<path d="M39.1554 94.9727C38.6809 94.9727 38.3013 94.7004 38.2064 94.2465L36.3085 85.6233C36.2136 85.1694 36.4983 84.6248 37.0677 84.534C37.5422 84.4433 38.1115 84.7156 38.2064 85.2602L40.1044 93.8834C40.1993 94.3373 39.9146 94.8819 39.3452 94.9727C39.3452 94.9727 39.2503 94.9727 39.1554 94.9727Z" fill="#E0C6E0"/>
<path d="M27.1036 124.927C26.724 124.564 26.1546 124.473 25.775 124.836C25.3954 125.199 25.3005 125.744 25.6801 126.107L29.0964 130.01H31.5637L27.1036 124.927Z" fill="#E0C6E0"/>
<path d="M15.7158 126.561C15.6209 126.107 15.1464 125.744 14.577 125.835C14.1026 125.926 13.723 126.379 13.8179 126.924L14.4821 130.01H16.3801L15.7158 126.561Z" fill="#E0C6E0"/>
<path d="M54.4336 125.381C54.3387 124.927 53.8642 124.564 53.2948 124.655C52.8203 124.746 52.4407 125.199 52.5356 125.744L53.4846 130.01H55.3825L54.4336 125.381Z" fill="#E0C6E0"/>
<path d="M81.8593 127.197C81.3848 126.924 80.8154 127.015 80.5307 127.469C80.2461 127.923 80.341 128.467 80.8154 128.74L82.8083 129.92H86.3194L81.8593 127.197Z" fill="#E0C6E0"/>
<path d="M89.5454 49.315C89.5454 50.4043 90.3995 51.2212 91.5382 51.2212C92.677 51.2212 93.5311 50.4043 93.5311 49.315C93.5311 48.2258 92.677 47.4089 91.5382 47.4089C90.3995 47.3181 89.5454 48.2258 89.5454 49.315Z" fill="black"/>
<path d="M112.606 47.4089C112.606 46.3196 111.752 45.5027 110.613 45.5027C109.474 45.5027 108.62 46.3196 108.62 47.4089C108.62 48.4981 109.474 49.3151 110.613 49.3151C111.657 49.3151 112.606 48.4981 112.606 47.4089Z" fill="black"/>
<path d="M95.6191 65.7445C95.2395 65.4722 94.6701 65.6537 94.4803 66.0168C94.1956 66.3799 94.3854 66.9245 94.765 67.1061C96.0936 67.923 99.3201 68.8307 102.167 68.8307C102.736 68.8307 103.211 68.8307 103.78 68.74C106.437 68.3769 108.525 67.4692 110.043 66.1076C110.423 65.8353 110.423 65.2907 110.043 64.9276C109.759 64.5645 109.189 64.5645 108.81 64.9276C107.576 66.1076 105.773 66.8338 103.496 67.1061C100.838 67.4692 97.0425 66.5615 95.6191 65.7445Z" fill="black"/>
<path d="M100.744 41.4181C100.174 41.5996 99.7946 42.1442 99.8895 42.6889C99.9844 43.2335 100.459 43.5058 101.028 43.5058C101.123 43.5058 101.218 43.5058 101.313 43.5058C104.255 42.8704 108.715 39.9657 111.182 35.9718C113.175 32.7949 113.46 28.3471 112.795 25.2609C112.226 22.6285 110.613 17.1823 107.576 13.9145C107.197 13.4607 106.437 13.3699 105.963 13.8238C105.488 14.1869 105.394 14.913 105.868 15.3669C108.146 17.9085 109.949 22.5378 110.518 25.7147C111.182 28.8009 110.613 32.6133 109.189 34.8826C106.912 38.5134 102.831 40.9642 100.744 41.4181Z" fill="black"/>
<path d="M91.8229 42.3259C88.122 44.3228 85.7495 45.3213 82.2384 46.0475C81.669 46.1382 81.1945 46.7736 81.3843 47.3183C81.4792 47.8629 81.9537 48.226 82.5231 48.226C82.618 48.226 82.7129 48.226 82.7129 48.226C86.5087 47.4998 89.1658 46.3198 92.9617 44.3228C97.3269 41.9628 100.743 39.4212 104.065 33.7934C104.349 33.2488 104.16 32.6134 103.685 32.3411C103.116 32.0688 102.451 32.2503 102.167 32.7042C98.9402 37.8781 95.9984 40.1474 91.8229 42.3259Z" fill="black"/>
<path d="M49.594 65.3815C49.7838 65.3815 49.8787 65.3815 50.0685 65.2908C57.2807 62.2046 57.3756 54.9429 57.5653 48.589C57.5653 46.5012 57.6602 44.3227 57.9449 42.4166C59.0837 34.4287 63.1642 25.8055 69.4274 17.9992C73.8876 12.4622 80.0559 8.4683 85.9394 7.37906C91.7281 6.28981 97.327 7.01597 100.364 9.19447C100.838 9.55755 101.597 9.46678 101.977 9.01293C102.357 8.55907 102.262 7.83291 101.787 7.46983C98.276 5.01902 91.9179 4.11131 85.5599 5.29133C79.2018 6.47135 72.4641 10.7376 67.7193 16.7284C61.0765 24.7163 56.9011 33.7933 55.6674 42.1442C55.3827 44.232 55.2878 46.4105 55.2878 48.589C55.1929 54.9429 55.0031 60.843 49.1195 63.3846C48.5502 63.6569 48.2655 64.2923 48.5502 64.8369C48.74 65.2 49.2144 65.3815 49.594 65.3815Z" fill="black"/>
<path d="M103.97 58.5738C104.065 58.5738 104.16 58.5738 104.255 58.5738C104.729 58.3923 104.919 57.9384 104.824 57.5753C104.445 56.3953 103.875 53.6722 103.875 51.9476C103.875 51.4937 103.496 51.1306 103.021 51.1306C102.547 51.1306 102.167 51.4937 102.167 51.9476C102.167 53.9445 102.736 56.8492 103.211 58.0292C103.306 58.3923 103.685 58.5738 103.97 58.5738Z" fill="black"/>
<path d="M99.51 121.024C99.2253 120.661 98.7508 120.479 98.3712 120.752C95.7141 122.295 87.7428 122.022 85.0857 119.118C84.801 118.755 84.2316 118.755 83.852 119.027C83.4724 119.299 83.4724 119.844 83.7571 120.207C85.75 122.385 89.7356 123.384 93.3417 123.384C95.7141 123.384 97.8967 122.93 99.2253 122.204C99.6049 121.932 99.6998 121.387 99.51 121.024Z" fill="black"/>
<path d="M86.4141 110.494C87.5528 106.954 88.0273 104.141 88.4069 101.962C88.5018 101.599 88.5018 101.236 88.5967 100.873C88.9763 98.8758 89.3559 94.2465 88.1222 91.0696C87.5528 89.5265 86.3192 87.8926 85.2753 86.4403C84.4212 85.2602 83.4723 84.0802 83.1876 83.2633C82.9029 82.174 82.4284 81.0848 82.0488 80.1771C81.6692 79.2694 81.2896 78.4524 81.1947 77.817C81.0049 77.0001 80.6254 75.9109 80.2458 75.0032C79.9611 74.277 79.7713 73.6416 79.5815 73.0062C79.2968 72.0985 79.5815 71.5539 80.2458 70.6462C81.0049 69.6477 81.4794 69.0123 82.0488 68.0138C82.3335 67.5599 82.808 67.1061 83.2825 67.2876C83.4723 67.3784 83.757 67.4692 84.0416 68.3769C84.0416 68.4677 84.1365 68.5584 84.1365 68.6492C83.3774 69.8292 82.9978 70.7369 82.7131 71.8262C82.4284 73.0062 82.4284 73.9139 82.4284 74.6401C82.4284 74.8216 82.4284 75.0032 82.4284 75.0939C82.4284 76.4555 82.3335 77.2724 82.1437 77.6355C81.9539 78.0894 82.2386 78.5432 82.6182 78.7247C82.7131 78.7247 82.808 78.8155 82.9029 78.8155C83.2825 78.8155 83.5672 78.634 83.6621 78.2709C83.8518 77.7263 83.9467 76.9093 84.0416 75.2755C84.0416 75.0939 84.0416 74.9124 84.0416 74.7308C84.0416 74.0047 84.0416 73.2785 84.3263 72.28C84.611 71.1908 84.9906 70.2831 85.9396 69.0123C86.4141 68.2861 87.0783 68.1046 88.0273 68.3769C88.8814 68.6492 89.1661 70.1923 88.9763 71.1908C88.8814 72.0077 88.5967 73.6416 88.312 75.1847L88.0273 77.1816C87.9324 77.6355 88.312 78.0894 88.7865 78.0894C89.261 78.1801 89.7354 77.817 89.7354 77.3632L90.0201 75.3662C90.3048 73.8231 90.4946 72.1893 90.6844 71.3723C90.6844 71.1908 90.7793 70.9185 90.7793 70.6462C90.7793 70.5554 90.8742 70.4646 90.8742 70.4646C91.064 69.3754 92.4874 68.6492 93.3415 68.74C94.5752 68.9215 94.8599 69.2846 95.1446 70.0108C95.4292 70.7369 95.5241 71.8262 95.3343 73.2785C95.1446 74.277 94.9548 75.3662 94.6701 76.4555C94.5752 77.0001 94.3854 77.5447 94.2905 78.0894C94.1956 78.5432 94.4803 78.9971 94.9548 79.0878C95.0497 79.0878 95.0497 79.0878 95.1446 79.0878C95.5241 79.0878 95.9037 78.8155 95.9986 78.4524C96.0935 77.9078 96.2833 77.3632 96.3782 76.8186C96.6629 75.6385 96.9476 74.5493 97.1374 73.46C97.2323 73.0062 97.2323 72.5523 97.2323 72.1893C97.4221 71.5539 97.8017 71.2815 98.7506 71.4631C100.079 71.6446 100.459 73.2785 100.459 73.8231C100.554 75.0032 100.269 77.7263 99.8894 79.6325C99.7945 80.0863 100.079 80.5402 100.554 80.6309C100.649 80.6309 100.649 80.6309 100.743 80.6309C101.123 80.6309 101.503 80.3586 101.598 79.9955C101.787 78.9063 102.072 77.2724 102.167 75.8201C102.262 75.8201 102.357 75.7293 102.452 75.7293C102.641 75.5478 103.306 75.5478 103.59 75.8201C104.35 76.7278 104.35 76.7278 104.729 78.634C105.109 80.4494 105.109 85.8049 104.919 87.9834C104.729 89.7988 103.78 92.1588 103.021 94.065L102.641 94.6096C101.692 96.9697 100.364 112.038 100.364 114.125C100.269 120.479 99.7945 125.744 99.1302 130.01H101.408C101.882 126.742 102.262 122.839 102.452 118.392C103.78 118.845 105.298 119.027 106.722 119.027C108.43 119.027 110.138 118.755 111.467 118.028C111.562 121.841 111.277 126.198 110.803 130.01H113.08C113.555 125.562 113.839 120.389 113.649 116.122C113.46 111.402 114.409 100.328 115.927 96.1527C116.686 94.065 117.825 92.2496 119.628 90.1619C120.956 88.6188 121.905 87.348 122.854 86.0772C123.139 85.7141 123.424 85.351 123.708 84.8972C125.606 82.3556 126.935 80.3586 127.599 78.7247C128.453 76.5462 127.789 74.9124 127.03 73.6416C126.745 73.1877 126.555 72.7339 126.271 72.1893C125.891 71.4631 125.417 70.5554 124.942 69.7384C124.942 69.7384 124.942 69.6477 124.847 69.6477C125.606 68.1953 126.65 65.7445 126.745 63.9291C126.935 61.9322 126.46 60.9337 125.132 60.2983C124.278 59.9352 123.139 60.026 122.095 60.4798C123.708 54.489 124.373 48.2258 124.563 43.778C124.752 39.6026 124.373 33.0671 122.854 28.347C120.956 22.1746 118.299 17.6361 114.883 14.4591C113.744 13.3698 107.861 8.1959 103.97 9.01284C103.401 9.10361 103.021 9.739 103.116 10.2836C103.211 10.8283 103.875 11.1913 104.444 11.1006C106.058 10.7375 109.854 12.8252 113.27 16.0022C116.401 18.9068 118.774 23.1731 120.577 28.9824C121.905 33.2486 122.38 39.6026 122.19 43.6873C121.905 48.8612 121.146 56.3952 118.869 63.0214C118.869 63.1122 118.774 63.2937 118.774 63.3845C118.774 63.3845 118.774 63.4753 118.679 63.4753C118.489 63.3845 118.204 63.3845 117.92 63.3845C117.825 63.3845 117.825 63.3845 117.73 63.3845C118.11 62.4768 118.489 61.5691 118.584 61.0245C119.533 57.3936 119.533 54.2167 119.343 50.2227C119.248 48.8612 119.153 47.4996 119.059 46.1381C118.964 44.4134 118.869 42.6888 118.774 41.2364C118.489 37.7872 117.066 34.5194 114.693 32.0686C114.314 31.6147 113.555 31.6147 113.08 31.9778C112.606 32.3409 112.606 33.0671 112.985 33.5209C114.978 35.6994 116.212 38.5133 116.496 41.418C116.591 42.8703 116.686 44.595 116.781 46.3196C116.876 47.6812 116.971 49.1335 117.066 50.4043C117.35 54.2167 117.255 57.2121 116.401 60.5706C116.212 61.2968 115.263 63.6568 114.503 64.9276C114.314 65.1091 114.219 65.3815 114.029 65.563C113.555 66.1984 113.175 66.743 112.795 67.4692V67.5599C111.657 67.5599 110.708 67.923 109.854 68.6492C108.999 69.3754 108.715 70.4646 108.81 71.3723C107.481 71.2816 106.342 72.0077 105.583 72.9154C105.109 73.46 104.919 74.1862 104.919 75.0032L104.824 74.9124C104.065 73.9139 102.736 73.6416 101.598 73.8231C101.313 71.8262 100.079 70.3738 98.371 70.2831C97.6119 70.1923 96.9476 70.2831 96.4731 70.5554C96.3782 70.2831 96.3782 70.1015 96.2833 69.92C95.8088 68.74 95.0497 67.8323 93.1517 67.5599C92.013 67.3784 90.7793 67.8323 89.8303 68.74C89.4508 68.1046 88.9763 67.56 88.2171 67.2876C87.2681 66.9246 86.3192 67.0153 85.56 67.3784C85.1804 66.4707 84.5161 65.9261 83.6621 65.6538C82.1437 65.1999 80.6254 65.9261 79.7713 67.4692C79.2968 68.2861 78.9172 68.8307 78.158 69.8292C77.304 70.9185 76.5448 72.1893 77.1142 74.0954C77.304 74.7308 77.5887 75.457 77.7785 76.1832C78.1581 77.0909 78.4427 78.0894 78.6325 78.8155C78.8223 79.6325 79.2019 80.5402 79.5815 81.4479C79.9611 82.3556 80.4356 83.354 80.7203 84.3525C81.0998 85.5325 82.0488 86.8033 83.0927 88.2557C84.1365 89.6172 85.1804 91.0696 85.6549 92.3404C86.6038 94.8819 86.4141 98.6943 86.0345 100.873C84.611 100.691 82.4284 99.1482 79.6764 93.7019C77.304 89.0726 74.2673 80.8125 72.7489 76.8186C73.0336 76.0924 73.3183 75.457 73.603 74.7308C75.2163 70.5554 75.9754 62.4768 75.6907 57.3029C75.6907 56.6675 75.1214 56.2136 74.4571 56.3044C73.7928 56.3044 73.3183 56.849 73.4132 57.4844C73.4132 57.8475 73.4132 58.2106 73.4132 58.5737C72.4642 58.6644 71.4204 58.3013 70.4714 56.2136C70.1867 55.5782 69.902 54.9428 69.6173 54.1259C69.048 52.6736 68.4786 51.1305 67.7194 49.9504C68.099 49.9504 68.4786 50.0412 68.9531 50.0412C71.7051 50.0412 75.7856 49.315 79.2968 47.2273C83.4723 44.6857 86.6038 39.0579 89.4507 33.3394C89.7354 32.7948 89.4508 32.1594 88.8814 31.8871C88.312 31.6147 87.6477 31.8871 87.363 32.4317C85.7498 35.7902 82.3335 42.8703 78.158 45.3211C74.3622 47.5904 70.1867 47.8627 68.2888 47.7719C70.1867 41.9626 73.1285 35.2456 75.0265 32.7948C75.406 32.3409 75.3111 31.6147 74.7418 31.2517C74.2673 30.8886 73.5081 30.9794 73.1285 31.524C70.4714 35.064 65.8215 46.3196 64.4929 52.6736C63.3542 58.029 63.1644 62.9306 62.9746 66.9246C62.9746 67.4692 62.8797 68.1046 62.8797 68.6492C62.7848 70.1923 62.5001 72.0985 61.9307 74.0954C60.792 72.4616 59.7481 71.1908 58.7991 70.5554C58.3246 70.1923 57.5655 70.2831 57.1859 70.7369C56.8063 71.1908 56.9012 71.9169 57.3757 72.28C58.04 72.7339 59.1787 74.0047 61.0766 76.9093C60.2226 79.3601 59.1787 81.9017 57.9451 84.0802C57.6604 84.6248 57.8502 85.2602 58.3246 85.5326C58.5144 85.6233 58.7042 85.7141 58.894 85.7141C59.2736 85.7141 59.6532 85.5326 59.843 85.1695C62.8797 80.0863 64.7776 72.9154 65.0623 68.74C65.0623 68.1953 65.1572 67.6507 65.1572 67.0153C65.347 63.1122 65.6317 58.3921 66.6755 53.1274V53.0366C66.8653 53.5813 67.15 54.2167 67.3398 54.7613C67.6245 55.5782 67.9092 56.3044 68.1939 56.9398C69.3327 59.3906 70.9459 60.6614 72.9387 60.6614C73.0336 60.6614 73.1285 60.6614 73.2234 60.6614C73.1285 65.2907 72.3694 70.9185 71.2306 73.9139C69.7122 77.7263 67.9092 81.2663 63.0695 82.8094C62.5001 82.991 62.1205 83.6264 62.3103 84.171C62.5001 84.6248 62.8797 84.8972 63.3542 84.8972C63.4491 84.8972 63.544 84.8972 63.7338 84.8064C64.2082 84.6248 64.6827 84.4433 65.1572 84.2618C66.2011 86.2587 67.15 88.2557 67.8143 89.8895C68.0041 90.3434 68.3837 90.5249 68.8582 90.5249C69.048 90.5249 69.1429 90.5249 69.3327 90.4342C69.902 90.2526 70.1867 89.5265 69.9969 88.9818C69.2378 87.2572 68.2888 85.2602 67.2449 83.1725C68.8582 82.0833 70.0918 80.8125 71.0408 79.2694C73.1285 84.8064 75.406 90.7065 77.304 94.4281C79.9611 99.602 82.6182 102.325 85.3702 102.779C84.9906 104.776 84.5161 107.227 83.5672 110.222C82.3335 113.944 79.5815 120.933 77.304 126.198C76.5448 119.39 74.7418 108.951 73.0336 104.594C72.8438 104.05 72.1796 103.777 71.5153 103.959C70.9459 104.141 70.6612 104.776 70.851 105.411C72.7489 110.222 75.0265 124.292 75.406 130.283H77.9683C81.0049 124.655 84.8957 115.124 86.4141 110.494ZM121.336 63.566C121.431 63.3845 121.431 63.203 121.526 63.0214C121.716 62.8399 122 62.5676 122.19 62.386C123.044 61.7506 124.088 61.4783 124.563 61.6599C124.942 61.8414 125.322 62.0229 125.227 63.7476C125.132 64.9276 124.563 66.5615 123.898 67.923C123.044 66.743 122.285 65.7445 121.621 65.0184C121.336 64.6553 120.956 64.383 120.672 64.2014C121.051 64.0199 121.241 63.8384 121.336 63.566ZM104.919 94.7912C105.773 92.7942 106.722 90.2526 106.912 88.1649C107.007 86.9849 107.102 84.5341 107.007 82.2648C107.102 82.3556 107.291 82.4464 107.481 82.4464C107.481 82.4464 107.481 82.4464 107.576 82.4464C108.05 82.4464 108.43 82.0833 108.43 81.7202C108.43 81.5386 108.62 80.9033 109.948 79.9048C110.138 79.7232 110.233 79.4509 110.233 79.1786C110.233 78.9063 110.043 78.634 109.854 78.5432C108.999 78.0894 108.525 77.5447 107.861 76.8186L107.766 76.637C107.671 76.5462 107.576 76.4555 107.576 76.4555C107.576 76.3647 107.576 76.3647 107.481 76.2739C106.912 75.2755 106.912 74.0954 107.386 73.6416C107.766 73.1877 108.81 72.3708 109.854 72.9154C110.708 73.3693 112.511 75.1847 113.555 76.1832C114.029 76.637 114.314 77.0001 114.598 77.1816L115.073 77.5447C115.547 77.9078 115.927 78.2709 116.307 78.634C116.496 78.8155 116.686 78.9063 116.876 78.9063C117.066 78.9063 117.35 78.8155 117.445 78.634C117.825 78.2709 117.825 77.817 117.445 77.454C116.971 77.0001 116.591 76.637 116.117 76.2739L115.642 75.9109C115.452 75.7293 115.168 75.457 114.693 75.0032C113.27 73.6416 111.941 72.28 110.897 71.6446C110.802 70.5554 110.897 69.92 111.372 69.4661C112.131 68.8307 112.985 68.6492 114.124 69.0123C115.168 69.2846 116.591 70.7369 117.445 71.6446L117.635 71.8262C118.11 72.3708 118.774 73.0062 119.343 73.6416L120.482 74.9124C120.672 75.0939 120.862 75.1847 121.146 75.1847C121.336 75.1847 121.526 75.0939 121.716 75.0032C122.095 74.7308 122.095 74.1862 121.811 73.8231L120.672 72.6431C120.102 72.0077 119.438 71.2816 118.964 70.8277L118.774 70.6462C117.92 69.7384 116.781 68.5584 115.452 67.8323C115.737 67.3784 116.022 67.0153 116.307 66.5615C116.496 66.2892 116.686 66.1076 116.876 65.8353C117.161 65.3815 117.73 65.3815 118.11 65.3815C118.489 65.3815 118.869 65.4722 120.007 66.4707C120.862 67.3784 121.905 68.74 123.139 70.7369C123.614 71.5539 123.993 72.28 124.373 73.097C124.657 73.7324 124.942 74.277 125.227 74.7308C125.796 75.6385 126.176 76.5462 125.606 77.9986C125.037 79.4509 123.803 81.3571 122 83.7171C121.716 84.0802 121.431 84.5341 121.146 84.8972C120.102 86.2587 119.248 87.4387 118.015 88.8911C116.022 91.1603 114.693 93.2481 113.839 95.5173C112.036 100.237 111.182 111.675 111.372 116.213C109.569 117.665 105.583 117.938 102.452 116.758C102.452 115.941 102.546 115.124 102.546 114.307C102.546 111.765 103.97 97.3327 104.634 95.5173L104.919 94.7912ZM106.722 77.9078C107.196 78.4524 107.576 78.9063 108.145 79.2694C107.671 79.814 107.291 80.2678 107.007 80.7217C106.912 79.7232 106.817 78.8155 106.722 78.1801C106.722 78.0894 106.722 77.9986 106.722 77.9078Z" fill="black"/>
<path d="M15.811 103.051C20.461 94.3374 27.1986 83.8987 30.0455 80.631C34.4108 75.8201 38.776 72.3708 43.3311 70.0108C47.8861 67.7415 53.7697 68.8308 55.0983 69.8293C55.5728 70.1923 56.3319 70.1923 56.7115 69.7385C57.0911 69.2846 57.0911 68.5585 56.6166 68.1954C54.434 66.38 47.4116 65.4723 42.2872 68.0138C37.4475 70.4647 32.8925 74.0955 28.3374 79.0879C25.016 82.8095 17.9937 94.065 13.7233 101.962C10.4968 108.135 6.60607 118.301 3 130.01H5.37242C8.88359 118.664 12.5846 108.951 15.811 103.051Z" fill="black"/>
<path d="M41.2434 117.665C37.2577 109.95 35.5496 102.87 36.024 96.6974C36.1189 96.0621 35.6445 95.6082 34.9802 95.5174C34.3159 95.4267 33.8414 95.8805 33.7465 96.5159C33.1772 103.142 34.9802 110.585 39.1556 118.664C40.7689 121.75 43.1413 125.835 45.7035 130.01H48.3606C45.6086 125.744 43.0464 121.206 41.2434 117.665Z" fill="black"/>
</g>
<g clip-path="url(#clip1_281_7935)">
<path d="M221.601 71.4704C221.695 72.0518 222.166 72.4394 222.73 72.4394C222.824 72.4394 222.824 72.4394 222.918 72.4394C223.576 72.3425 223.952 71.7611 223.858 71.0828C223.482 68.6602 224.235 66.0438 225.833 64.2995C227.902 61.9739 228.09 58.2915 226.303 54.6092C226.115 54.3185 226.021 53.9309 225.833 53.6402C224.705 51.4114 224.046 50.0548 224.046 48.0198C224.046 46.0817 225.457 42.787 227.808 39.2016C229.031 37.2636 229.407 35.7131 229.877 33.1936C229.971 32.806 230.065 32.3215 230.159 31.837C231.006 27.5732 234.955 23.1157 238.059 20.5962C241.82 17.4953 247.839 13.7161 251.977 12.5533C255.927 11.3904 261.193 10.809 263.826 12.4564C264.39 12.7471 265.049 12.6502 265.331 12.0687C265.613 11.4873 265.519 10.809 264.955 10.5183C260.817 7.7081 253.482 9.54926 251.319 10.1307C246.805 11.4873 240.504 15.4604 236.554 18.6582C232.98 21.5653 228.937 26.4104 227.902 31.2556C227.808 31.7401 227.714 32.2246 227.62 32.6122C227.15 35.0348 226.868 36.1976 225.927 37.7481C224.329 40.1707 221.789 44.6282 221.789 47.9229C221.789 50.5393 222.636 52.2836 223.858 54.6092C224.046 54.8999 224.14 55.1906 224.329 55.4814C224.799 56.5473 226.397 60.2296 224.235 62.5553C222.072 65.0748 221.131 68.2726 221.601 71.4704Z" fill="black"/>
<path d="M227.15 71.5673C227.996 70.4044 228.937 69.2416 229.595 67.9819C229.877 67.4004 229.689 66.7221 229.125 66.4314C228.56 66.1407 227.902 66.3345 227.62 66.9159C227.056 67.9819 226.209 69.1447 225.363 70.2106C223.764 72.3425 222.166 74.5713 221.978 76.897C221.601 81.1607 222.26 84.3585 224.046 86.7811C224.235 87.0718 224.611 87.2656 224.987 87.2656C225.269 87.2656 225.457 87.1687 225.645 87.0718C226.115 86.6842 226.209 86.0059 225.833 85.4244C224.423 83.4864 223.858 80.7731 224.14 77.0908C224.329 75.4434 225.833 73.5053 227.15 71.5673Z" fill="black"/>
<path d="M270.221 12.6503C274.735 11.3905 281.036 14.2976 284.421 17.7861C288.183 21.6623 290.628 26.9919 292.039 30.7712C293.449 34.5504 294.39 40.8491 294.672 45.1128C293.449 42.0119 292.133 38.6203 291.568 36.8761C291.38 36.2946 290.816 35.907 290.158 36.1008C289.593 36.2946 289.217 36.8761 289.405 37.5544C289.97 39.4924 291.38 43.1748 292.697 46.4695C293.355 48.0199 293.919 49.4735 294.296 50.6363C295.706 54.3186 296.082 56.4505 295.236 60.5204C294.201 65.1718 292.133 68.2727 290.628 70.1138C288.841 72.1488 287.525 73.1178 285.926 73.4085C285.362 73.5054 284.891 74.1838 285.079 74.7652C285.173 75.3466 285.644 75.7342 286.208 75.7342C286.302 75.7342 286.396 75.7342 286.396 75.7342C288.935 75.2497 290.816 73.4085 292.321 71.6643C294.013 69.6293 296.364 66.2377 297.493 61.1018C298.527 56.5474 297.963 53.931 296.459 49.8611C296.082 48.989 295.706 47.923 295.33 46.8571C295.518 46.954 295.612 46.954 295.8 46.954C295.8 46.954 295.8 46.954 295.894 46.954C296.553 46.954 297.023 46.3726 296.929 45.6942C296.741 41.0429 295.706 34.1628 294.107 29.899C292.603 25.926 290.064 20.3056 286.02 16.1388C282.164 12.1658 275.111 8.77415 269.562 10.3246C268.998 10.5184 268.622 11.0998 268.81 11.7781C268.998 12.4565 269.562 12.7472 270.221 12.6503Z" fill="black"/>
<path d="M278.12 92.1108C278.214 92.1108 278.402 92.1108 278.496 92.0139C282.352 90.6573 284.515 85.7152 284.985 81.7422C285.267 79.4165 285.079 77.4784 284.891 75.5404C284.797 74.2806 284.609 72.924 284.609 71.4704C284.609 68.2726 287.242 63.7182 289.781 61.3925C290.252 61.0049 290.252 60.2297 289.875 59.7452C289.499 59.2606 288.747 59.2606 288.277 59.6483C285.455 62.2646 282.352 67.4974 282.352 71.4704C282.352 73.0209 282.446 74.3775 282.634 75.7342C282.822 77.6722 283.01 79.4165 282.728 81.4515C282.352 84.8431 280.565 88.8161 277.744 89.7851C277.18 89.979 276.804 90.6573 277.086 91.2387C277.274 91.7232 277.65 92.1108 278.12 92.1108Z" fill="black"/>
<path d="M278.12 81.2575C277.556 81.0637 276.898 81.3545 276.71 81.9359C275.299 86.0058 273.795 88.5253 271.82 89.8819C270.973 90.5603 269.939 90.9479 268.81 91.3355C266.929 92.1107 265.049 92.8859 263.826 94.7271C263.45 95.2116 263.638 95.9868 264.108 96.3744C264.296 96.4713 264.484 96.5682 264.767 96.5682C265.143 96.5682 265.519 96.3744 265.707 96.0837C266.553 94.7271 267.964 94.2426 269.657 93.5643C270.785 93.0797 272.008 92.5952 273.136 91.82C276.24 89.5912 277.838 85.6182 278.873 82.7111C279.061 82.2266 278.685 81.5483 278.12 81.2575Z" fill="black"/>
<path d="M264.296 47.5353C264.485 47.6322 264.767 47.7291 264.955 47.7291C265.331 47.7291 265.613 47.5353 265.895 47.2446C266.271 46.7601 266.177 45.9849 265.613 45.5973C262.792 43.5623 261.193 38.4264 261.193 34.5503C261.193 31.0618 262.322 27.3795 264.955 22.3405C265.237 21.7591 265.049 21.0808 264.485 20.7901C263.92 20.4993 263.262 20.6932 262.98 21.2746C261.005 25.0538 258.936 29.6082 258.936 34.5503C258.936 38.9109 260.817 44.9189 264.296 47.5353Z" fill="black"/>
<path d="M265.049 27.2825C264.297 32.6122 264.297 37.3604 265.143 40.3644C266.178 44.1436 267.964 46.8569 270.504 48.5043C270.692 48.6981 270.88 48.6981 271.068 48.6981C271.444 48.6981 271.82 48.5043 272.008 48.1167C272.384 47.5352 272.196 46.8569 271.632 46.4693C269.657 45.1127 268.152 42.8839 267.306 39.6861C266.554 36.9728 266.554 32.5153 267.306 27.5732C267.4 26.8949 266.93 26.3135 266.366 26.2166C265.707 26.2166 265.143 26.7011 265.049 27.2825Z" fill="black"/>
<path d="M277.933 56.838C278.215 56.838 278.497 56.7411 278.685 56.5473C279.155 56.0628 279.155 55.3845 278.779 54.8999C276.24 52.1867 275.676 49.1827 274.735 44.6282C274.641 43.9499 274.453 43.2716 274.265 42.4963C274.171 41.9149 273.513 41.4304 272.949 41.6242C272.384 41.7211 271.914 42.3994 272.102 42.9809C272.29 43.7561 272.384 44.4344 272.572 45.1127C273.513 49.6672 274.171 53.2526 277.18 56.5473C277.369 56.7411 277.651 56.838 277.933 56.838Z" fill="black"/>
<path d="M278.873 70.017C279.061 70.1139 279.249 70.2108 279.531 70.2108C279.907 70.2108 280.283 70.017 280.472 69.7263C283.199 65.5594 283.011 57.1289 282.258 52.8651C282.164 52.1868 281.6 51.7992 280.942 51.8961C280.283 51.993 279.907 52.5744 280.001 53.2527C280.754 57.3227 280.754 64.978 278.591 68.3696C278.215 68.951 278.403 69.6294 278.873 70.017Z" fill="black"/>
<path d="M259.688 20.5959C259.124 20.2083 258.466 20.4021 258.089 20.9836C256.209 23.9876 254.046 32.7088 256.021 37.8447C256.209 38.3292 256.585 38.523 257.055 38.523C257.243 38.523 257.337 38.523 257.525 38.4261C258.089 38.1354 258.372 37.4571 258.183 36.8757C256.397 32.4181 258.654 24.4721 260.064 22.1464C260.346 21.6619 260.158 20.9836 259.688 20.5959Z" fill="black"/>
<path d="M235.614 50.1518C235.708 50.1518 235.802 50.2487 235.99 50.2487C236.46 50.2487 236.93 49.9579 237.025 49.4734L237.119 49.0858C237.965 46.3725 238.717 43.853 241.256 42.1088C241.915 41.7212 242.385 41.3336 242.949 40.946C244.266 40.0738 245.394 39.2986 247.087 38.0389C249.814 36.0039 252.918 32.2247 254.987 28.2516C255.269 27.6702 255.081 26.9919 254.516 26.7012C253.952 26.4105 253.294 26.6043 253.012 27.1857C251.037 30.868 248.216 34.3565 245.77 36.1977C244.172 37.3605 243.043 38.1358 241.727 39.0079C241.162 39.3955 240.692 39.7831 240.034 40.1707C236.836 42.3026 235.896 45.5004 235.05 48.3106L234.956 48.6982C234.673 49.2796 234.956 49.9579 235.614 50.1518Z" fill="black"/>
<path d="M250.284 51.0237C251.53 51.0237 252.541 49.9824 252.541 48.698C252.541 47.4136 251.53 46.3723 250.284 46.3723C249.037 46.3723 248.027 47.4136 248.027 48.698C248.027 49.9824 249.037 51.0237 250.284 51.0237Z" fill="black"/>
<path d="M270.409 57.3225C269.092 57.3225 268.152 58.3884 268.152 59.6482C268.152 60.9079 269.186 61.9739 270.409 61.9739C271.631 61.9739 272.666 60.9079 272.666 59.6482C272.666 58.3884 271.631 57.3225 270.409 57.3225Z" fill="black"/>
<path d="M250.848 75.9279C253.764 77.4784 256.115 77.866 258.842 78.3505H258.936C259.312 78.3505 259.688 78.0598 259.782 77.5753C259.876 77.0908 259.5 76.7032 259.03 76.6063C256.303 76.2186 254.234 75.831 251.507 74.3775C248.027 72.5363 245.676 70.5983 244.642 68.7571C244.36 68.3695 243.889 68.1757 243.513 68.4664C243.137 68.7571 242.949 69.2416 243.231 69.6292C244.454 71.858 246.993 73.893 250.848 75.9279Z" fill="black"/>
<path d="M274.076 106.549C273.418 106.453 272.854 106.937 272.854 107.518C272.854 107.809 272.76 108.1 272.666 108.391L272.384 108.294C270.597 107.518 267.87 106.356 265.237 104.321C262.415 102.189 261.099 100.348 260.723 97.7312C260.252 94.8241 260.628 92.4016 261.663 87.0719C265.142 85.909 267.305 84.8431 269.562 82.5174C270.315 81.7422 270.973 80.967 271.631 80.1918C272.102 80.3856 272.572 80.4825 273.042 80.4825C274.453 80.4825 275.957 79.901 277.086 79.1258C278.308 78.3506 279.155 76.7032 280.189 74.7652C280.659 73.893 281.13 73.0209 281.6 72.1488C281.882 71.5674 281.788 70.889 281.224 70.5014C280.659 70.2107 280.001 70.3076 279.625 70.889C279.061 71.8581 278.59 72.7302 278.12 73.6023C277.274 75.1528 276.522 76.6063 275.769 77.0909C274.829 77.6723 273.888 78.0599 273.136 78.1568C273.7 77.3816 274.359 76.5094 275.111 75.6373C275.487 75.1528 275.487 74.3776 275.017 73.9899C274.547 73.6023 273.794 73.6023 273.418 74.0868C272.572 75.1528 271.819 76.1218 271.161 76.9939C270.127 78.3506 269.186 79.6103 267.964 80.8701C265.895 83.0019 263.92 83.8741 260.346 85.0369C256.397 86.2966 252.259 87.4595 247.839 86.1997C243.137 84.8431 241.068 82.6143 237.964 79.0289C235.143 75.7342 234.485 74.0869 233.074 70.3076C231.852 67.0129 231.569 61.974 233.45 58.2916C233.732 57.7102 233.544 57.0319 232.98 56.7412C232.51 56.4505 231.946 56.6443 231.569 57.0319C231.287 55.7722 231.099 54.4155 231.381 53.4465C231.946 51.6053 233.356 48.9889 234.203 47.5354L234.297 47.3416C234.579 46.7602 234.391 46.0818 233.921 45.7911C233.356 45.5004 232.698 45.6942 232.416 46.1787L232.322 46.3725C231.475 47.923 229.877 50.7332 229.312 52.7682C228.56 55.4814 229.877 59.1638 230.347 60.2297C230.347 60.2297 230.347 60.3266 230.441 60.3266C229.501 64.2027 230.159 68.3696 231.099 71.1798C232.51 75.1528 233.45 77.0909 236.46 80.6763C239.187 83.8741 241.82 86.975 247.463 88.5254C249.061 88.913 250.566 89.1068 251.977 89.1068C254.61 89.1068 257.055 88.5254 259.406 87.8471C258.465 92.4985 258.183 95.0179 258.654 98.1188C259.218 101.317 260.817 103.739 264.108 106.162C267.023 108.294 269.845 109.553 271.725 110.426L272.196 110.619C272.196 110.619 272.196 110.619 272.29 110.619C269.092 118.662 257.901 127.965 244.641 127.577C228.56 126.996 214.736 113.817 211.068 101.898C210.88 101.317 210.222 100.929 209.658 101.123C209.093 101.317 208.717 101.995 208.905 102.576C212.761 115.271 227.432 129.322 244.547 129.903C244.923 129.903 245.206 129.903 245.582 129.903C261.851 129.903 274.265 116.821 275.299 107.809C275.111 107.228 274.735 106.646 274.076 106.549Z" fill="black"/>
<path d="M212.761 103.739C212.855 103.739 212.855 103.739 212.949 103.739C216.241 103.158 220.567 100.929 223.2 99.1846C226.585 96.9558 228.748 94.6301 230.441 91.3354C232.134 88.1376 232.698 83.4863 232.416 76.703C232.416 76.0247 231.852 75.5402 231.193 75.6371C230.535 75.6371 230.065 76.2185 230.159 76.8968C230.441 83.2924 229.971 87.5562 228.466 90.3664C226.962 93.2735 224.987 95.4053 221.977 97.3434C219.344 99.0877 215.394 101.123 212.667 101.607C212.009 101.704 211.633 102.285 211.727 102.964C211.727 103.254 212.197 103.739 212.761 103.739Z" fill="black"/>
<path d="M278.402 18.2707C278.12 17.6892 277.462 17.3985 276.898 17.6892C276.333 17.98 276.051 18.6583 276.333 19.2397C277.65 22.1468 278.214 24.6663 277.462 30.0928C276.615 35.7132 276.992 40.7522 278.496 44.6283C278.684 45.1128 279.061 45.4035 279.531 45.4035C279.625 45.4035 279.813 45.4035 279.907 45.3066C280.471 45.1128 280.753 44.4345 280.565 43.7562C279.249 40.2677 278.872 35.5194 279.625 30.3836C280.377 25.1508 280.095 22.0499 278.402 18.2707Z" fill="black"/>
<path d="M229.783 45.3064C229.971 45.3064 230.159 45.3064 230.347 45.2095C233.545 43.4653 235.331 39.8798 237.024 36.2944C237.306 35.713 237.588 35.1316 237.871 34.5502C239.657 30.9647 247.557 21.7589 252.447 18.5611C253.011 18.1735 253.105 17.4952 252.823 16.9138C252.447 16.3324 251.789 16.2355 251.225 16.5262C246.334 19.724 238.059 29.2205 235.896 33.3873C235.614 33.9687 235.331 34.5502 235.049 35.1316C233.451 38.3294 231.852 41.6241 229.313 42.9807C228.748 43.2714 228.56 43.9498 228.843 44.5312C229.031 45.0157 229.407 45.3064 229.783 45.3064Z" fill="black"/>
<path d="M259.688 58.0976C259.312 57.9038 258.748 58.0007 258.56 58.3883C257.807 59.745 256.679 62.749 256.209 64.2025C256.115 64.687 256.303 65.1716 256.773 65.2685C256.867 65.2685 256.961 65.2685 256.961 65.2685C257.337 65.2685 257.713 64.9778 257.807 64.5901C258.183 63.2335 259.312 60.4233 259.97 59.1636C260.252 58.8729 260.064 58.2914 259.688 58.0976Z" fill="black"/>
<path d="M249.532 37.9419C249.062 37.9419 248.686 38.3295 248.686 38.814C248.686 39.2985 249.062 39.6862 249.532 39.6862C252.353 39.7831 256.679 41.3335 258.184 42.6901C258.372 42.884 258.56 42.884 258.748 42.884C258.936 42.884 259.218 42.7871 259.406 42.5932C259.688 42.2056 259.688 41.7211 259.406 41.3335C257.337 39.5893 252.447 38.0388 249.532 37.9419Z" fill="black"/>
<path d="M183.608 119.534C185.583 114.883 189.721 111.007 195.175 109.069C196.398 108.584 197.62 108.197 198.843 107.809C201.758 106.84 204.485 105.968 207.213 104.417C207.777 104.127 207.965 103.351 207.589 102.867C207.307 102.285 206.554 102.092 206.084 102.479C203.639 103.933 201.006 104.805 198.185 105.677C196.962 106.065 195.739 106.452 194.423 106.937C188.498 109.166 183.796 113.429 181.633 118.662C180.599 121.085 179.752 124.864 179 130H181.257C181.915 125.251 182.762 121.763 183.608 119.534Z" fill="black"/>
<path d="M296 130C251.397 134.14 226.845 132.485 183 130C184.167 125.667 187.3 116.3 190.5 113.5C193.7 110.7 203.5 108 208 107C209 110.5 213.5 116.5 222.5 124.5C233.5 133 250.5 131 260.5 128.5C268.5 126.5 273.833 117.667 275.5 113.5L281 115C289 116.5 294.333 125 296 130Z" fill="#EDD9ED"/>
<path d="M297.869 123.217C296.176 119.147 293.073 116.337 287.713 114.011L286.49 113.429C283.199 111.976 280.565 110.91 276.616 108.681C276.051 108.39 275.393 108.584 275.111 109.166C274.829 109.747 275.017 110.425 275.581 110.716C279.625 112.945 282.352 114.108 285.644 115.464L286.866 116.046C291.568 118.081 294.39 120.503 295.8 123.992C296.365 125.252 296.929 127.383 297.587 129.709H299.938C299.186 127.19 298.433 124.767 297.869 123.217Z" fill="black"/>
</g>
<g clip-path="url(#clip2_281_7935)">
<path d="M361.987 130C360.79 120.68 359.869 108.477 360.882 103.001C361.895 97.5239 363.184 93.008 366.223 89.6452C369.169 86.4744 373.774 83.7841 378.47 82.8233C381.969 82.1507 387.954 81.0938 390.717 80.4212C391.914 80.133 393.663 79.9408 394.308 81.9585C395.873 86.6666 399.649 93.6806 402.503 97.4279C405.358 101.271 408.765 103.385 411.159 104.634C413.185 105.691 417.329 106.075 418.71 105.883C416.868 113.57 414.934 117.317 412.817 121.641C410.791 125.676 408.673 130 408.673 130H361.987Z" fill="#E0C6E0"/>
<path d="M441.639 82.9195C446.795 82.4391 450.386 82.7274 453.701 84.9373C456.832 87.0511 459.41 92.0474 460.976 98.1006C462.633 104.154 465.396 121.545 466.777 130.096H427.826C427.826 130.096 432.707 114.531 433.904 110.784C435.285 106.46 436.298 100.599 436.942 98.0045C437.587 95.3142 438.508 93.969 439.336 91.6631C440.165 89.261 441.454 86.2824 441.639 82.9195Z" fill="#E0C6E0"/>
<path d="M410.975 3.84335C413.738 1.82561 418.894 1.72953 423.406 3.5551C428.563 5.57284 432.891 9.89657 436.114 13.4516C439.06 16.7184 442.744 23.0599 443.388 26.0385C443.941 28.3445 444.217 31.5152 444.585 34.4938C444.769 35.7428 444.862 36.9919 445.046 38.0488C445.967 45.5433 446.795 50.6357 447.44 53.5181C449.005 60.4361 447.44 66.9697 446.887 68.7953C445.782 72.5425 445.046 74.272 444.033 76.578C443.757 77.1545 444.033 77.8271 444.585 78.1153C444.769 78.2114 444.862 78.2114 445.046 78.2114C445.414 78.2114 445.874 78.0192 446.059 77.5388C447.164 75.1368 447.9 73.2151 449.097 69.3718C449.834 66.8736 451.399 60.1479 449.742 52.8456C449.097 50.0592 448.269 44.9668 447.348 37.5684C447.164 36.4154 447.072 35.2624 446.887 34.0133C446.519 30.9387 446.151 27.768 445.69 25.2698C444.862 21.5226 440.81 14.8929 437.863 11.6261C434.364 8.16708 429.76 3.5551 424.143 1.44128C418.894 -0.576456 413.093 -0.38429 409.686 2.01778C409.226 2.40211 409.041 3.07469 409.41 3.65119C409.778 4.1316 410.423 4.22768 410.975 3.84335Z" fill="black"/>
<path d="M375.8 78.8841C376.444 78.8841 376.905 78.4036 376.997 77.8271C377.181 74.4642 377.918 72.0622 379.023 69.1797C380.956 64.3756 381.233 61.9735 381.601 58.2263C381.693 57.4576 381.785 56.6889 381.877 55.8242C382.246 52.4613 384.179 35.2625 386.85 26.7111C389.52 18.1597 393.664 12.0104 396.703 9.03187C400.202 5.66898 404.253 4.03557 407.292 4.90032C407.845 5.09248 408.489 4.70815 408.673 4.13165C408.857 3.55516 408.489 2.88258 407.937 2.69041C403.977 1.53742 399.097 3.36299 395.137 7.30238C390.901 11.4339 387.034 18.3519 384.64 25.9424C381.969 34.4938 380.036 50.7318 379.575 55.5359C379.483 56.4007 379.391 57.2654 379.299 57.938C378.931 61.6852 378.746 63.703 376.905 68.2189C375.708 71.1974 374.879 73.9838 374.695 77.635C374.695 78.3076 375.155 78.788 375.8 78.8841Z" fill="black"/>
<path d="M406.463 36.0311C410.055 32.1878 415.764 23.6365 417.053 18.6402C417.237 18.0637 416.869 17.3911 416.316 17.1989C415.764 17.0067 415.119 17.3911 414.935 17.9676C413.738 22.5796 408.121 30.8427 404.806 34.3977C401.767 37.7606 396.058 41.1235 392.835 42.853C393.48 40.9314 394.124 38.9136 395.045 37.1841C397.255 32.7643 398.544 31.0348 400.294 28.7288C401.215 27.5759 402.135 26.2307 403.425 24.4051C403.701 24.0208 403.609 23.4443 403.24 23.156C402.872 22.8678 402.32 22.9639 402.043 23.3482C400.846 25.1738 399.833 26.5189 398.913 27.6719C397.163 29.9779 395.782 31.8035 393.48 36.4155C391.27 40.8353 390.165 45.9277 389.152 50.3475C388.599 52.6535 388.139 54.8634 387.586 56.4968C386.481 59.6675 384.271 65.7207 381.325 70.4288C381.049 70.8131 381.141 71.3896 381.601 71.5818C381.785 71.6778 381.877 71.6778 382.061 71.6778C382.338 71.6778 382.614 71.5818 382.798 71.2935C385.837 66.3933 388.139 60.244 389.244 56.9772C389.796 55.2477 390.349 53.0378 390.901 50.6357C390.901 50.4436 390.993 50.3475 390.993 50.1553C391.546 51.4044 392.283 52.3652 393.111 53.5182L393.203 53.6143C394.032 54.7673 395.413 55.9203 396.887 56.5929C397.9 59.6675 398.913 63.1265 398.913 66.4894C398.913 70.4288 398.36 72.6387 396.887 74.0799C396.426 74.5603 396.426 75.2329 396.795 75.7133C396.979 76.0016 397.347 76.0977 397.623 76.0977C397.9 76.0977 398.176 76.0016 398.36 75.8094C400.754 73.5034 401.03 69.8523 401.03 66.5855C401.03 63.5108 400.202 60.244 399.373 57.3615C399.465 57.3615 399.649 57.3615 399.741 57.3615C400.386 57.2654 400.754 56.6889 400.662 56.1124C400.57 55.4399 400.018 55.0555 399.465 55.1516C398.452 55.2477 396.058 53.9986 394.861 52.4613L394.769 52.3652C393.48 50.6357 392.651 49.5788 392.191 47.5611C392.098 47.2728 391.914 46.9846 391.73 46.7924C391.822 46.5042 391.822 46.312 391.914 46.0238C392.006 46.0238 392.098 45.9277 392.191 45.9277C392.927 45.5433 394.308 44.7747 395.874 43.9099C396.979 44.4864 398.084 45.5433 398.913 47.0807C399.097 47.3689 399.373 47.465 399.649 47.465C399.833 47.465 399.925 47.465 400.11 47.3689C400.478 47.0807 400.662 46.6002 400.386 46.2159C399.557 44.7747 398.544 43.7178 397.531 42.9491C399.281 41.8922 401.215 40.6431 402.872 39.298C401.583 43.0452 400.386 48.618 401.215 51.8848C401.307 52.2691 401.675 52.5574 402.043 52.5574C402.135 52.5574 402.228 52.5574 402.228 52.5574C402.688 52.4613 402.964 51.9809 402.78 51.5005C401.951 48.2337 403.517 41.7 404.99 38.4332C405.082 38.145 405.082 37.8567 404.898 37.5685C405.635 36.8959 406.095 36.4155 406.463 36.0311Z" fill="black"/>
<path d="M416.132 14.2202C416.224 14.6045 416.592 14.8928 416.961 14.8928C417.053 14.8928 417.145 14.8928 417.145 14.8928C417.605 14.7967 417.881 14.3163 417.697 13.8359C416.961 11.1456 414.29 7.20617 412.909 6.34142C412.541 6.05317 411.988 6.24534 411.804 6.62967C411.528 7.014 411.712 7.5905 412.08 7.78267C413.001 8.26308 415.487 11.8181 416.132 14.2202Z" fill="black"/>
<path d="M442.007 32.8603C442.56 32.8603 443.02 32.3799 443.112 31.8034C443.204 31.1308 442.744 30.5543 442.099 30.5543C439.981 30.266 436.574 29.4974 433.72 28.1522C430.313 26.6149 424.143 22.5794 421.657 18.7361C421.289 18.2557 420.644 18.0635 420.091 18.4479C419.539 18.8322 419.447 19.5048 419.815 20.0813C422.762 24.6932 429.852 29.017 432.799 30.3621C433.167 30.5543 433.443 30.6504 433.812 30.7465C433.259 30.8425 432.707 31.0347 432.338 31.1308C431.878 31.323 431.694 31.8034 431.878 32.2838C431.97 32.572 432.338 32.7642 432.615 32.7642C432.707 32.7642 432.799 32.7642 432.983 32.6681C433.72 32.3799 435.469 32.0916 437.219 31.9955C437.311 31.9955 437.495 31.9955 437.587 31.8995C439.245 32.3799 440.718 32.6681 441.823 32.7642C441.915 32.8603 441.915 32.8603 442.007 32.8603Z" fill="black"/>
<path d="M438.6 39.6823C438.877 38.4332 438.324 37.1841 437.403 36.8959C436.298 36.5115 435.285 37.2802 434.917 38.4332C434.641 39.6823 435.193 40.9314 436.114 41.2196C437.219 41.6039 438.232 40.8353 438.6 39.6823Z" fill="black"/>
<path d="M419.815 38.9135C418.618 38.8174 417.513 39.6822 417.329 40.9313C417.237 42.1803 418.065 43.3333 419.262 43.5255C420.46 43.6216 421.565 42.7568 421.749 41.5078C421.933 40.2587 421.012 39.1057 419.815 38.9135Z" fill="black"/>
<path d="M422.946 59.7635C424.327 60.1478 425.893 60.2439 427.366 60.2439C431.141 60.2439 434.917 59.283 436.482 57.6496C436.85 57.3614 436.85 56.7849 436.482 56.4006C436.114 56.0162 435.653 56.0162 435.285 56.4006C433.72 58.034 427.734 59.187 423.314 58.034C422.854 57.9379 422.393 58.2261 422.301 58.7065C422.209 59.187 422.485 59.6674 422.946 59.7635Z" fill="black"/>
<path d="M394.585 62.6459C394.493 62.9341 394.401 63.3185 394.308 63.6067C393.388 67.2579 392.191 71.6777 386.205 75.0406C385.837 75.2327 385.653 75.8092 385.837 76.1936C386.021 76.4818 386.297 76.674 386.574 76.674C386.666 76.674 386.85 76.674 386.942 76.5779C393.572 72.8307 394.953 67.7383 395.874 64.0871C395.966 63.7989 396.058 63.4146 396.15 63.1263C396.242 62.6459 396.058 62.1655 395.598 62.0694C395.137 61.9733 394.677 62.2616 394.585 62.6459Z" fill="black"/>
<path d="M432.154 50.7319C432.246 50.7319 432.338 50.7319 432.431 50.6358C432.891 50.4436 433.075 49.9632 432.891 49.4828C432.338 48.0415 431.786 45.1591 431.326 43.0452C431.233 42.5648 430.773 42.2766 430.313 42.3727C429.852 42.4687 429.576 42.9492 429.668 43.4296C429.852 44.1982 430.589 48.2337 431.233 50.1554C431.51 50.5397 431.786 50.7319 432.154 50.7319Z" fill="black"/>
<path d="M423.223 33.5329C423.315 33.0525 423.038 32.5721 422.578 32.476C420.644 32.0917 416.04 32.8603 413.83 33.9172C413.37 34.1094 413.186 34.5898 413.462 35.0702C413.646 35.3585 413.922 35.5507 414.198 35.5507C414.291 35.5507 414.475 35.5507 414.567 35.4546C416.685 34.3977 420.921 33.8212 422.302 34.1094C422.762 34.3016 423.13 34.0133 423.223 33.5329Z" fill="black"/>
<path d="M360.053 129.135C359.593 126.541 359.133 123.466 358.856 119.911C358.304 113.378 358.028 104.25 358.672 99.5418C359.317 95.122 360.698 91.7591 363.092 89.0688C364.657 87.3393 367.604 84.9372 371.379 83.496C374.971 82.1508 376.812 81.7665 379.943 81.19C380.496 81.0939 381.324 80.9978 382.337 80.9017C386.389 80.4213 392.466 79.6526 395.045 77.3467C395.505 76.9623 395.597 76.1937 395.229 75.7133C394.861 75.2328 394.124 75.1368 393.663 75.5211C391.546 77.3467 385.652 78.1153 382.061 78.4996C381.048 78.5957 380.219 78.6918 379.575 78.884C376.628 79.3644 374.602 79.8448 370.643 81.286C367.144 82.6312 363.645 84.9372 361.435 87.5314C358.764 90.6061 357.199 94.3533 356.462 99.2535C355.725 104.154 356.002 113.57 356.554 120.2C356.83 123.947 357.383 126.925 357.843 129.616C357.843 129.808 357.935 129.904 357.935 130.096H360.145C360.145 129.712 360.145 129.424 360.053 129.135Z" fill="black"/>
<path d="M411.067 128.655C413.001 125.004 414.935 121.161 416.132 118.566C417.421 115.78 419.815 109.727 420.367 105.595C420.92 101.656 420.552 94.2574 419.262 91.1827C418.065 88.3002 416.224 84.8413 415.303 83.5922C414.474 82.247 414.014 80.9979 413.461 78.4037C413.185 76.8664 412.356 74.2721 411.712 72.4466C411.527 71.9662 411.435 71.4857 411.343 71.1014C411.067 70.3328 410.883 69.5641 410.607 68.7954C410.238 67.8346 409.962 66.8738 409.778 66.1051C409.778 66.009 409.87 65.6247 410.238 65.3364C410.607 65.0482 411.067 65.1443 411.62 65.6247C413.461 67.3542 414.75 69.7563 415.211 71.2936C415.671 72.927 416.316 74.6565 417.145 76.4821C418.065 78.4998 419.354 79.6528 420.92 80.0371C421.472 80.2293 422.117 79.845 422.301 79.1724C422.301 79.1724 422.301 79.1724 422.301 79.0763C422.669 78.2115 422.946 77.8272 423.774 77.7311C424.235 77.7311 424.603 77.2507 424.511 76.7703C424.511 76.2899 424.051 75.9056 423.59 76.0016C422.301 76.0977 421.564 76.8664 421.196 77.635C420.367 77.3468 419.723 76.5781 419.17 75.3291C418.618 74.1761 418.25 73.1192 417.881 71.9662C418.618 71.5818 419.447 71.2936 420.552 71.4857C422.946 71.9662 425.34 72.5427 426.721 72.927C426.721 72.927 426.721 72.927 426.813 72.927C426.905 73.0231 426.997 73.0231 427.089 73.0231C428.839 73.5035 429.668 75.0408 430.036 76.1938C430.312 77.1546 430.404 78.3076 430.404 78.5959C430.404 79.0763 430.773 79.4606 431.233 79.4606C431.694 79.4606 432.062 79.0763 432.062 78.5959C432.062 78.2115 431.97 76.7703 431.601 75.6173C431.233 74.5604 430.681 73.5996 430.036 72.8309C431.233 72.8309 432.522 72.927 433.167 73.1192C434.364 73.5996 435.469 74.5604 435.929 75.5212C436.39 76.4821 436.39 77.0586 436.298 77.635C436.206 78.1155 436.482 78.5959 436.942 78.5959C437.034 78.5959 437.034 78.5959 437.034 78.5959C437.403 78.5959 437.771 78.3076 437.863 77.8272C437.955 77.0585 438.047 76.0977 437.311 74.6565C436.942 73.7917 436.298 73.0231 435.469 72.4466C436.758 72.4466 437.955 72.6387 438.323 73.0231C439.428 74.08 439.797 74.5604 439.981 75.4251C440.165 76.386 440.165 77.1546 440.165 78.1155C440.165 78.692 440.165 79.3645 440.257 80.1332C440.165 82.0549 439.981 83.8804 439.336 86.1864C438.784 88.2041 437.863 90.5101 436.39 93.873C435.377 96.2751 434.824 99.0615 434.548 101.175C434.456 101.848 434.364 102.424 434.272 102.905C433.811 104.923 432.799 108.862 432.154 110.784C431.601 112.513 431.233 113.954 430.773 115.299C430.404 116.452 430.128 117.605 429.668 118.855C428.839 121.449 427.918 124.427 427.089 127.118C426.813 127.886 426.629 128.655 426.353 129.424H428.655C428.839 128.943 428.931 128.367 429.115 127.886C429.944 125.1 430.865 122.217 431.694 119.623C432.062 118.374 432.43 117.221 432.799 116.068C433.167 114.723 433.627 113.378 434.18 111.648C434.824 109.631 435.929 105.595 436.39 103.481C436.482 102.905 436.574 102.328 436.758 101.656C437.126 99.638 437.495 97.0438 438.508 94.9299C440.073 91.3749 440.902 89.0689 441.546 86.9551C442.191 84.6491 442.467 82.8235 442.467 81.094C443.02 81.094 443.572 81.094 444.217 80.9979C446.519 80.9019 449.465 80.8058 451.491 81.4784C453.701 82.247 456.648 83.7843 458.582 86.9551C461.344 91.471 463.094 98.3889 464.107 103.385C465.119 108.67 466.685 120.584 467.329 125.484C467.514 126.733 467.606 128.078 467.79 129.424H470C469.816 127.982 469.724 126.541 469.539 125.196C468.895 120.296 467.422 108.189 466.317 102.905C465.304 97.7163 463.37 90.5101 460.515 85.706C458.674 82.7274 455.819 80.5175 452.228 79.2685C449.742 78.4037 446.611 78.4998 444.125 78.5959C443.48 78.5959 442.928 78.5959 442.467 78.692C442.467 78.4998 442.467 78.3076 442.467 78.1155C442.467 77.0586 442.467 76.1938 442.283 75.1369C442.007 73.3113 440.994 72.3505 439.981 71.3897C439.336 70.7171 438.231 70.4288 437.034 70.2367C438.139 68.0268 439.152 65.3365 440.257 62.454L440.626 61.4931C442.191 57.4577 442.928 55.1517 443.664 51.2123C444.309 47.8494 444.309 44.1022 443.48 40.0667C443.296 39.2019 443.204 38.145 443.112 37.1842C443.02 36.1273 442.836 35.1665 442.651 34.2056C442.559 33.6291 441.915 33.1487 441.362 33.3409C440.81 33.437 440.349 34.1095 440.533 34.686C440.718 35.5508 440.81 36.5116 440.902 37.4724C440.994 38.5294 441.178 39.5863 441.362 40.5471C442.099 44.1982 442.191 47.6572 441.546 50.7319C440.81 54.5752 440.073 56.7851 438.6 60.6284L438.231 61.5892C436.942 64.76 435.745 67.8346 434.548 70.1406C433.627 70.2367 432.799 70.3328 432.246 70.4288C431.97 70.5249 431.694 70.7171 431.601 70.9093C430.773 70.8132 429.852 70.9093 428.931 70.9093C428.286 70.9093 427.734 70.9093 427.181 70.9093C425.8 70.5249 423.406 69.9484 421.012 69.468C419.539 69.1798 418.434 69.5641 417.513 69.9484C416.96 68.2189 415.579 65.4325 413.277 63.3187C411.804 61.9736 410.238 62.1657 409.318 62.7422C409.041 62.9344 408.857 63.1265 408.581 63.3187C407.2 61.4931 406.463 60.0519 405.91 58.6107C405.634 58.0342 404.99 57.7459 404.437 58.0342C403.885 58.3224 403.608 58.995 403.885 59.5715C404.621 61.301 405.542 63.3187 407.752 65.8169C407.752 65.8169 407.752 65.8169 407.844 65.9129V66.009C408.028 66.8738 408.397 67.8346 408.765 68.8915C409.041 69.5641 409.318 70.3328 409.502 71.1014C409.594 71.4857 409.778 71.8701 409.962 72.4466C410.515 74.2721 411.343 76.7703 411.62 78.2115C412.172 81.094 412.725 82.7274 413.737 84.2648C414.566 85.5138 416.316 88.7807 417.513 91.5671C418.342 93.4887 418.71 98.0046 418.618 101.56C417.881 101.848 416.96 101.848 414.935 101.56C411.804 101.175 408.305 98.9654 405.358 95.3143C402.135 91.2788 397.347 81.9588 396.794 78.5959C396.702 77.9233 396.15 77.539 395.505 77.635C394.861 77.7311 394.492 78.3076 394.584 78.9802C395.229 83.1118 400.386 92.8161 403.608 96.7555C406.831 100.791 410.883 103.385 414.566 103.77C415.579 103.866 416.408 103.962 417.145 103.962C417.605 103.962 417.973 103.962 418.342 103.866C418.342 104.154 418.25 104.346 418.25 104.538C417.697 108.189 415.579 113.954 414.198 116.837C413.001 119.335 411.067 123.082 409.133 126.829C408.673 127.694 408.305 128.463 407.844 129.328H410.33C410.515 129.52 410.791 129.039 411.067 128.655Z" fill="black"/>
<path d="M388.231 122.121C387.126 118.662 386.021 115.107 385.468 113.089C383.995 107.997 380.496 98.677 377.365 94.7376C376.997 94.2572 376.26 94.1611 375.8 94.6415C375.339 95.0259 375.247 95.7945 375.707 96.2749C378.47 99.7339 381.969 108.67 383.442 113.762C383.995 115.78 385.192 119.431 386.297 122.89C387.126 125.484 387.954 128.078 388.507 130H390.809C390.072 128.078 389.152 125.196 388.231 122.121Z" fill="black"/>
<path d="M450.754 102.328C450.939 101.752 450.57 101.079 450.018 100.887C449.465 100.695 448.821 101.079 448.637 101.656C446.15 110.303 445.137 118.95 445.966 125.292C446.15 126.445 446.242 128.174 446.335 130H448.544C448.452 128.078 448.36 126.253 448.176 125.004C447.347 118.95 448.268 110.783 450.754 102.328Z" fill="black"/>
</g>
<path d="M606.221 33.7822C601.674 30.8493 597.644 21.1991 599.4 17.6986C599.71 17.1309 599.4 16.4687 598.78 16.1848C598.16 15.901 597.437 16.1848 597.127 16.7525C594.543 21.5776 599.504 32.2684 604.671 35.5797C604.877 35.769 605.187 35.769 605.394 35.769C605.807 35.769 606.117 35.5797 606.427 35.2959C606.841 34.8229 606.737 34.1606 606.221 33.7822Z" fill="black"/>
<path d="M600.331 42.8649C600.331 44.0948 601.467 45.1355 602.811 45.1355C604.154 45.1355 605.291 44.0948 605.291 42.8649C605.291 41.6349 604.154 40.5942 602.811 40.5942C601.364 40.6888 600.331 41.6349 600.331 42.8649Z" fill="black"/>
<path d="M584.726 33.2146C583.383 33.2146 582.246 34.2553 582.246 35.4852C582.246 36.7151 583.383 37.7558 584.726 37.7558C586.07 37.7558 587.206 36.7151 587.206 35.4852C587.206 34.2553 586.07 33.2146 584.726 33.2146Z" fill="black"/>
<path d="M580.076 55.637C579.973 56.11 580.386 56.5831 580.903 56.5831C582.659 56.8669 587.31 58.3807 589.17 59.7998C589.376 59.8944 589.583 59.989 589.686 59.989C589.997 59.989 590.203 59.8944 590.41 59.6106C590.72 59.2322 590.617 58.6645 590.203 58.3807C588.033 56.8669 583.073 55.164 581.109 54.8801C580.593 54.8801 580.076 55.2586 580.076 55.637Z" fill="black"/>
<path d="M525.1 101.049C525.203 101.049 525.307 101.049 525.41 101.049C526.03 101.049 526.547 100.671 526.65 100.103C528.097 94.0484 531.404 88.1826 535.434 84.8713C539.464 81.56 543.391 79.2894 547.834 77.8702C553.001 76.1673 557.238 75.5996 559.305 75.3158C560.028 75.2212 560.442 74.6535 560.338 73.9912C560.235 73.329 559.615 72.9505 558.892 73.0451C555.585 73.5182 551.658 74.1805 546.904 75.6942C542.047 77.3026 537.914 79.6678 533.677 83.1683C529.337 86.7635 525.617 93.1023 524.17 99.6304C523.963 100.293 524.377 100.955 525.1 101.049Z" fill="black"/>
<path d="M615.108 7.00783C619.241 6.81861 628.025 10.6976 630.815 20.8208C633.916 32.3631 634.432 43.8108 632.159 50.8119C629.472 59.1375 628.025 62.2596 625.648 66.9901C623.272 71.7206 623.582 76.2618 626.475 80.8977C626.682 81.2761 627.095 81.4653 627.509 81.4653C627.715 81.4653 627.922 81.3707 628.129 81.2761C628.749 80.9923 628.955 80.2354 628.542 79.7624C625.958 75.6942 625.752 71.9098 627.819 67.9362C629.989 63.5842 631.539 60.2729 634.432 51.4742C636.809 44.1893 636.292 32.1739 633.089 20.3477C629.989 8.99463 619.758 4.6426 614.901 4.83182C614.178 4.83182 613.661 5.39948 613.661 5.96713C613.868 6.53479 614.488 7.00783 615.108 7.00783Z" fill="black"/>
<path d="M618.105 75.221C617.898 74.3695 617.691 73.4234 617.381 72.4774C617.278 71.9097 616.555 71.4367 615.935 71.6259C615.315 71.7205 614.798 72.3827 615.005 72.9504C615.211 73.8965 615.418 74.8426 615.728 75.6941C617.485 82.7898 618.932 88.4663 617.381 93.0076C615.211 99.6302 609.528 101.144 606.324 101.428C605.601 101.522 605.188 102.09 605.188 102.658C605.291 103.225 605.808 103.698 606.428 103.698H606.531C612.938 103.036 617.795 99.441 619.758 93.6698C621.412 88.5609 619.965 82.6952 618.105 75.221Z" fill="black"/>
<path d="M585.76 49.6765C585.863 49.7711 586.07 49.7711 586.276 49.7711C586.586 49.7711 586.896 49.5819 587.103 49.3927C587.826 48.2574 589.376 45.5137 590.203 43.9053C590.41 43.5269 590.203 42.9593 589.79 42.77C589.376 42.5808 588.756 42.77 588.55 43.1485C587.723 44.7568 586.173 47.4059 585.553 48.5412C585.14 48.9196 585.346 49.4873 585.76 49.6765Z" fill="black"/>
<path d="M608.701 42.5808C608.908 42.8646 609.218 43.0539 609.528 43.0539C609.631 43.0539 609.838 43.0539 609.941 42.9593C610.354 42.77 610.561 42.2024 610.354 41.8239C609.218 39.6479 605.291 36.3366 602.604 35.2959C602.087 35.1067 601.571 35.2959 601.364 35.7689C601.157 36.242 601.364 36.715 601.881 36.9043C604.257 37.8503 607.771 40.8778 608.701 42.5808Z" fill="black"/>
<path d="M626.269 118.647C628.025 117.606 629.885 116.66 631.539 115.808C633.812 114.673 640.323 111.74 645.49 112.024C646.523 115.903 647.556 123.377 647.763 128.391C647.763 128.959 647.763 129.432 647.866 130H650.346C650.346 129.432 650.346 128.864 650.243 128.297C650.14 124.985 649.623 120.823 649.003 117.133C652.31 115.714 652 112.97 651.897 111.929C651.69 109.943 650.553 105.78 649.313 101.333V101.239C648.176 97.1703 645.903 91.7776 641.046 88.9393C638.359 87.331 633.606 85.0604 629.472 83.0736C626.785 81.8436 624.305 80.6137 622.652 79.7622C622.032 79.4784 621.308 79.6676 620.998 80.2353C620.688 80.8029 620.895 81.4652 621.515 81.749C623.272 82.6951 625.752 83.8304 628.439 85.155C632.572 87.1418 637.326 89.3178 639.806 90.8315C643.939 93.2914 646.006 98.211 646.936 101.806V101.901C647.763 105.023 648.693 108.24 649.106 110.416C643.009 108.24 634.122 111.929 630.299 113.822C628.232 114.862 625.959 116.092 623.685 117.322C622.342 118.079 620.895 118.93 619.448 119.687C618.828 119.971 618.622 120.728 619.035 121.201C619.242 121.58 619.655 121.769 620.068 121.769C620.275 121.769 620.482 121.674 620.688 121.58C621.722 121.012 622.755 120.444 623.685 119.877C623.892 122.336 623.892 126.31 623.995 129.905H626.475C626.682 125.742 626.579 121.012 626.269 118.647ZM649.52 113.065C649.52 113.822 649.21 114.295 648.693 114.673C648.486 113.822 648.383 113.065 648.176 112.402C648.59 112.592 649.106 112.781 649.52 113.065Z" fill="black"/>
<path d="M530.887 103.32C536.157 103.793 546.078 105.78 553.208 108.24C554.345 110.605 555.481 113.065 556.308 114.957L556.411 115.241C556.515 115.43 556.618 115.525 556.721 115.619C554.138 119.404 551.141 124.607 548.144 129.905H550.934C554.345 123.85 557.755 118.079 560.338 114.673C563.645 110.321 566.849 104.834 569.225 100.482C572.222 95.0891 574.082 88.7502 574.082 88.6556C574.702 86.385 573.049 84.3036 572.326 83.4521C571.396 82.3168 567.985 78.8163 565.505 77.0187C564.369 76.2618 563.128 74.9373 563.438 73.6127C563.645 72.7613 564.782 71.8152 565.712 71.0583C565.919 70.8691 566.022 70.6799 566.125 70.4906C566.435 69.3553 566.952 67.747 567.365 66.5171C567.675 65.6656 567.882 64.9087 567.985 64.5303C568.192 63.9626 568.812 63.4896 569.225 63.4896C569.845 63.4896 570.776 63.6788 571.602 63.868C570.155 65.0979 568.399 66.9901 567.365 68.22C567.055 68.5985 567.159 69.1661 567.572 69.45C567.985 69.7338 568.605 69.6392 568.915 69.2607C569.949 67.9362 572.222 65.7602 573.566 64.6249C574.289 64.0572 575.426 63.6788 576.459 63.868C577.493 63.9626 578.526 64.4357 579.559 65.0979C579.869 65.2871 580.179 65.571 580.489 65.7602C580.489 65.7602 580.489 65.8548 580.593 65.8548C581.523 66.6117 582.453 68.9769 582.866 70.396C583.073 71.0583 583.279 71.626 583.486 72.099C583.693 72.6667 584.003 73.2343 584.003 73.7074C584.106 74.6535 583.796 74.6535 583.589 74.7481C582.659 74.9373 581.833 74.4642 581.316 73.5181C580.696 72.5721 580.489 71.5313 580.799 71.0583C580.903 70.7745 580.903 70.4906 580.696 70.2068C580.489 69.923 580.179 69.8284 579.869 69.8284C579.456 69.8284 578.113 68.8823 577.699 67.9362C577.493 67.5578 577.079 67.3685 576.666 67.4632C576.252 67.5578 575.942 67.9362 575.942 68.3146C576.046 69.3553 575.322 70.5853 575.012 70.8691C574.702 71.0583 574.599 71.4367 574.702 71.7206C574.806 72.0044 575.116 72.2882 575.426 72.3828C576.666 72.6667 579.559 74.7481 580.903 75.7888C581.523 76.2618 581.936 76.5456 582.246 76.7349C582.453 76.8295 582.556 76.9241 582.763 76.9241C583.073 76.9241 583.383 76.8295 583.486 76.5456C583.486 76.5456 583.486 76.5456 583.589 76.5456C583.589 76.6403 583.693 76.6403 583.693 76.6403C584.106 76.9241 584.623 77.1133 585.14 77.3025C585.243 77.3971 585.243 77.5863 585.45 77.681C586.793 79.0055 587.516 80.6138 587.516 82.8845C587.516 85.0605 586.38 87.9934 585.656 89.9802L585.45 90.4532C584.52 92.8184 583.486 95.3729 582.866 98.4004C582.039 102.185 580.593 109.186 579.869 113.349C579.249 116.849 577.803 123.85 576.149 129.905H578.733C580.283 123.85 581.729 117.133 582.349 113.727C583.073 109.564 584.416 102.658 585.346 98.8734C585.76 97.2651 586.173 95.6567 586.69 94.2376C594.337 93.7645 603.12 90.0748 610.044 84.3982C610.664 88.561 610.664 92.2508 608.494 94.143C607.977 94.5214 607.977 95.2783 608.391 95.7513C608.597 96.0351 609.011 96.1298 609.321 96.1298C609.631 96.1298 609.941 96.0351 610.148 95.8459C613.971 92.6292 613.041 86.5742 611.698 80.1408C611.594 79.4785 610.871 79.1001 610.251 79.1947C609.527 79.2893 609.114 79.9516 609.217 80.5192C609.321 80.8977 609.424 81.2761 609.424 81.6545C603.017 87.2365 594.75 91.1155 587.413 91.7777C587.516 91.5885 587.62 91.3047 587.723 91.0209L587.93 90.5478C588.963 87.8988 589.996 85.0605 589.996 82.6952C589.996 80.33 589.376 78.4378 588.136 76.8295C588.756 76.5456 589.17 76.0726 589.376 75.5995C589.583 74.9373 589.48 74.1804 588.963 73.4235C588.756 73.0451 588.24 72.1936 587.723 71.3421C587.723 71.3421 587.723 71.3421 587.723 71.2475C588.136 71.2475 588.55 71.3421 589.066 71.3421C589.996 71.3421 590.927 71.2475 591.857 71.1529C594.337 70.7745 598.677 69.5446 601.777 68.3146C602.294 68.1254 602.81 67.8416 603.327 67.6524C602.294 72.4774 603.741 78.8163 605.497 82.1276C605.704 82.506 606.117 82.7899 606.634 82.7899C606.841 82.7899 607.047 82.7899 607.151 82.6952C607.771 82.4114 607.977 81.7491 607.667 81.1815C605.704 77.4917 604.257 70.0176 606.427 66.044C607.564 65.3817 608.597 64.7195 609.631 63.9626C609.631 64.1518 609.527 64.2464 609.527 64.4357C608.391 68.0308 607.151 72.099 608.081 76.2618C608.184 76.8295 608.701 77.2079 609.321 77.2079C609.424 77.2079 609.527 77.2079 609.527 77.2079C610.251 77.1133 610.664 76.451 610.458 75.8834C609.631 72.2882 610.768 68.5985 611.904 65.0979C612.318 63.7734 612.731 62.5435 612.938 61.3135C613.868 57.1507 615.624 50.7173 616.968 45.6084L617.381 44.1893C618.725 39.175 618.725 33.4038 617.381 26.1189C617.278 25.4566 616.658 25.0782 615.934 25.1728C615.211 25.2674 614.798 25.8351 614.901 26.4973C615.934 32.3631 616.141 37.1882 615.418 41.4456C611.181 36.1475 605.911 26.4973 605.601 22.3345C605.601 21.6723 604.981 21.1992 604.257 21.2938C603.534 21.2938 603.017 21.8615 603.12 22.5237C603.431 27.4434 609.838 38.7965 614.488 44.0947C614.591 44.1893 614.694 44.2839 614.694 44.2839L614.488 45.0408C613.144 50.055 611.491 56.2046 610.561 60.4621C607.254 62.9219 604.154 65.0033 600.537 66.5171C597.644 67.6524 593.51 68.7877 591.133 69.2607C589.583 69.5446 588.033 69.5446 586.483 69.2607C586.38 69.2607 586.276 69.2607 586.173 69.2607C585.966 68.8823 585.76 68.5985 585.656 68.4092C584.623 66.9901 584.003 66.2332 583.279 65.7602C583.073 65.571 582.763 65.3818 582.556 65.1925C582.039 64.8141 581.419 64.4357 580.696 63.868C579.353 63.0165 578.009 62.4489 576.769 62.3543C576.666 62.3543 576.562 62.3543 576.356 62.3543C576.356 62.165 576.356 61.9758 576.252 61.8812C575.116 59.6106 574.496 56.6777 574.496 53.8394C574.496 50.1497 575.529 44.7569 576.459 41.6348C577.596 38.0397 579.456 34.1607 581.109 31.5116C581.213 31.3224 581.419 31.0386 581.626 30.8494C581.833 31.0386 582.143 31.1332 582.453 31.1332C584.52 30.8494 588.446 31.417 589.686 32.2685C589.893 32.3631 589.996 32.4577 590.203 32.4577C590.513 32.4577 590.823 32.3631 590.927 32.0793C591.237 31.7008 591.133 31.1332 590.72 30.944C589.066 29.9979 585.14 29.4302 582.763 29.5248C587.103 23.5644 594.647 16.8472 599.194 14.7658C599.814 14.482 600.02 13.8197 599.71 13.252C599.4 12.6844 598.677 12.4952 598.057 12.779C592.477 15.3334 583.073 23.8483 578.939 30.0925C576.769 33.4038 574.909 37.7558 573.979 40.7833C572.946 44.0947 571.912 49.7712 571.912 53.5556C571.912 56.4885 572.532 59.6106 573.669 62.0704C572.946 61.8812 571.706 61.5974 570.672 61.5028C570.775 59.3268 570.155 57.1507 569.535 54.7855C569.122 53.461 568.812 52.0418 568.502 50.6227C568.089 47.879 567.882 41.9186 571.602 32.1739C575.426 22.4291 581.316 14.2927 588.343 9.27845C595.783 3.98033 604.774 1.99354 609.321 4.73721C609.941 5.11564 610.664 4.92642 611.078 4.35877C611.491 3.79111 611.284 3.12885 610.664 2.75041C605.187 -0.466305 595.163 1.42588 586.793 7.38627C579.456 12.6844 573.152 21.1992 569.225 31.3224C566.229 38.8912 565.092 45.8922 566.022 50.9065C566.229 52.4203 566.642 53.8394 567.055 55.2586C567.675 57.4346 568.192 59.516 568.192 61.4082C566.952 61.7866 565.919 62.9219 565.609 63.9626C565.505 64.341 565.299 65.0979 564.989 66.044C564.679 67.1793 564.265 68.5985 563.852 69.6392C562.612 70.6799 561.372 71.8152 561.062 73.3289C560.752 74.6535 561.062 76.7349 564.058 78.9109C564.265 79.1001 564.472 79.1947 564.679 79.3839C563.955 83.4521 565.919 88.7502 570.776 91.2101C569.949 93.5753 568.605 96.792 567.055 99.5357C564.679 103.793 561.578 109.186 558.375 113.443C558.375 113.443 558.375 113.443 558.375 113.538C557.858 112.308 557.238 111.078 556.618 109.659C556.721 109.659 556.721 109.753 556.825 109.753C557.031 109.848 557.238 109.848 557.341 109.848C557.755 109.848 558.272 109.659 558.478 109.186C558.788 108.618 558.478 107.956 557.962 107.672C550.418 104.266 536.674 101.428 530.473 101.049C526.65 100.766 525.203 101.996 524.686 103.131C523.963 104.645 524.686 106.537 526.547 108.051C527.063 108.429 527.787 108.429 528.303 107.956C528.717 107.483 528.717 106.821 528.2 106.348C527.167 105.496 526.753 104.455 526.96 103.982C527.063 103.699 527.58 103.415 528.407 103.32C530.06 111.835 533.574 122.526 536.364 130H538.947C536.26 122.715 532.644 111.93 530.887 103.32ZM576.872 71.1529C576.976 70.9637 577.079 70.6799 577.182 70.396C577.699 70.7745 578.216 71.1529 578.733 71.3421C578.733 71.626 578.733 72.0044 578.836 72.2882C578.113 71.9098 577.389 71.4367 576.872 71.1529ZM585.863 72.2882C586.38 73.2343 586.896 74.0858 587.206 74.5588C587.413 74.8427 587.516 75.1265 587.413 75.3157C587.413 75.3157 587.31 75.5049 587.103 75.5995C586.69 75.7888 586.07 75.7888 585.45 75.6942C585.76 75.2211 585.966 74.6535 585.863 73.6127C585.76 72.8559 585.45 72.1936 585.243 71.5313C585.036 71.1529 584.933 70.6799 584.726 70.3014C585.036 70.8691 585.45 71.626 585.863 72.2882ZM567.055 81.4653C568.605 82.8845 569.949 84.3036 570.465 84.9659C571.292 86.0066 572.119 87.1419 571.809 88.2772C571.706 88.4664 571.706 88.7502 571.602 89.0341C568.709 87.3311 567.159 84.209 567.055 81.4653Z" fill="black"/>
<g clip-path="url(#clip3_281_7935)">
<path d="M796.633 90.1461C796.633 91.0001 795.978 91.6644 795.137 91.6644C794.295 91.6644 793.64 91.0001 793.64 90.1461C794.388 90.0512 795.698 90.0512 796.633 90.1461Z" fill="#E0C6E0"/>
<path d="M785.784 96.4089C785.784 97.2629 785.129 97.9271 784.287 97.9271C783.446 97.9271 782.791 97.2629 782.791 96.4089C782.791 95.5549 783.446 94.8906 784.287 94.8906C785.129 94.8906 785.784 95.6497 785.784 96.4089Z" fill="#E0C6E0"/>
<path d="M793.079 96.4089C793.079 97.2629 792.424 97.9271 791.582 97.9271C790.741 97.9271 790.086 97.2629 790.086 96.4089C790.086 95.5549 790.741 94.8906 791.582 94.8906C792.424 94.8906 793.079 95.6497 793.079 96.4089Z" fill="#E0C6E0"/>
<path d="M800.374 96.4089C800.374 97.2629 799.719 97.9271 798.877 97.9271C798.036 97.9271 797.381 97.2629 797.381 96.4089C797.381 95.5549 798.036 94.8906 798.877 94.8906C799.719 94.8906 800.374 95.6497 800.374 96.4089Z" fill="#E0C6E0"/>
<path d="M807.669 96.4089C807.669 97.2629 807.014 97.9271 806.172 97.9271C805.33 97.9271 804.676 97.2629 804.676 96.4089C804.676 95.5549 805.33 94.8906 806.172 94.8906C807.014 94.8906 807.669 95.6497 807.669 96.4089Z" fill="#E0C6E0"/>
<path d="M765.208 103.526C765.396 103.715 765.676 103.81 766.05 103.81C766.892 103.81 767.547 103.146 767.547 102.292C767.547 101.818 767.36 101.438 766.985 101.153C766.331 101.912 765.863 102.577 765.208 103.526Z" fill="#E0C6E0"/>
<path d="M774.748 102.197C774.748 103.051 774.093 103.715 773.252 103.715C772.41 103.715 771.755 103.051 771.755 102.197C771.755 101.343 772.41 100.679 773.252 100.679C774.093 100.774 774.748 101.438 774.748 102.197Z" fill="#E0C6E0"/>
<path d="M782.043 102.197C782.043 103.051 781.388 103.715 780.547 103.715C779.705 103.715 779.05 103.051 779.05 102.197C779.05 101.343 779.705 100.679 780.547 100.679C781.388 100.679 782.043 101.438 782.043 102.197Z" fill="#E0C6E0"/>
<path d="M789.338 102.197C789.338 103.051 788.683 103.715 787.842 103.715C787 103.715 786.345 103.051 786.345 102.197C786.345 101.343 787 100.679 787.842 100.679C788.683 100.774 789.338 101.438 789.338 102.197Z" fill="#E0C6E0"/>
<path d="M796.633 102.197C796.633 103.051 795.978 103.715 795.137 103.715C794.295 103.715 793.64 103.051 793.64 102.197C793.64 101.343 794.295 100.679 795.137 100.679C795.978 100.774 796.633 101.438 796.633 102.197Z" fill="#E0C6E0"/>
<path d="M803.928 102.197C803.928 103.051 803.273 103.715 802.431 103.715C801.59 103.715 800.935 103.051 800.935 102.197C800.935 101.343 801.59 100.679 802.431 100.679C803.273 100.774 803.928 101.438 803.928 102.197Z" fill="#E0C6E0"/>
<path d="M811.223 102.197C811.223 103.051 810.568 103.715 809.726 103.715C808.885 103.715 808.23 103.051 808.23 102.197C808.23 101.343 808.885 100.679 809.726 100.679C810.568 100.679 811.223 101.438 811.223 102.197Z" fill="#E0C6E0"/>
<path d="M734.719 108.84C734.719 109.694 734.065 110.358 733.223 110.358C732.381 110.358 731.727 109.694 731.727 108.84C731.727 107.986 732.381 107.321 733.223 107.321C734.065 107.416 734.719 108.08 734.719 108.84Z" fill="#E0C6E0"/>
<path d="M741.36 110.168C741.173 110.358 740.892 110.358 740.612 110.358C739.77 110.358 739.115 109.694 739.115 108.84C739.115 107.986 739.77 107.321 740.612 107.321C740.799 108.365 741.079 109.314 741.36 110.168Z" fill="#E0C6E0"/>
<path d="M763.899 108.84C763.899 109.694 763.244 110.358 762.403 110.358C761.561 110.358 760.906 109.694 760.906 108.84C760.906 107.986 761.561 107.321 762.403 107.321C763.244 107.321 763.899 108.08 763.899 108.84Z" fill="#E0C6E0"/>
<path d="M771.194 108.84C771.194 109.694 770.539 110.358 769.698 110.358C768.856 110.358 768.201 109.694 768.201 108.84C768.201 107.986 768.856 107.321 769.698 107.321C770.539 107.416 771.194 108.08 771.194 108.84Z" fill="#E0C6E0"/>
<path d="M778.489 108.84C778.489 109.694 777.835 110.358 776.993 110.358C776.151 110.358 775.497 109.694 775.497 108.84C775.497 107.986 776.151 107.321 776.993 107.321C777.835 107.416 778.489 108.08 778.489 108.84Z" fill="#E0C6E0"/>
<path d="M784.288 110.358C785.114 110.358 785.784 109.678 785.784 108.84C785.784 108.001 785.114 107.321 784.288 107.321C783.461 107.321 782.792 108.001 782.792 108.84C782.792 109.678 783.461 110.358 784.288 110.358Z" fill="#E0C6E0"/>
<path d="M791.583 110.358C792.409 110.358 793.079 109.678 793.079 108.84C793.079 108.001 792.409 107.321 791.583 107.321C790.756 107.321 790.086 108.001 790.086 108.84C790.086 109.678 790.756 110.358 791.583 110.358Z" fill="#E0C6E0"/>
<path d="M800.374 108.84C800.374 109.694 799.719 110.358 798.878 110.358C798.036 110.358 797.381 109.694 797.381 108.84C797.381 107.986 798.036 107.321 798.878 107.321C799.719 107.416 800.374 108.08 800.374 108.84Z" fill="#E0C6E0"/>
<path d="M807.669 108.84C807.669 109.694 807.014 110.358 806.173 110.358C805.331 110.358 804.676 109.694 804.676 108.84C804.676 107.986 805.331 107.321 806.173 107.321C807.014 107.416 807.669 108.08 807.669 108.84Z" fill="#E0C6E0"/>
<path d="M729.014 116.146C729.201 116.241 729.295 116.241 729.482 116.241C730.324 116.241 730.978 115.577 730.978 114.723C730.978 114.058 730.604 113.584 730.043 113.299C729.762 114.058 729.295 115.482 729.014 116.146Z" fill="#E0C6E0"/>
<path d="M738.273 114.723C738.273 115.577 737.618 116.241 736.777 116.241C735.935 116.241 735.28 115.577 735.28 114.723C735.28 113.869 735.935 113.205 736.777 113.205C737.618 113.205 738.273 113.869 738.273 114.723Z" fill="#E0C6E0"/>
<path d="M758.942 116.146C759.597 116.051 760.158 115.387 760.158 114.628C760.158 113.774 759.503 113.11 758.662 113.11C758.662 113.964 758.755 115.387 758.942 116.146Z" fill="#E0C6E0"/>
<path d="M767.453 114.723C767.453 115.577 766.798 116.241 765.956 116.241C765.115 116.241 764.46 115.577 764.46 114.723C764.46 113.869 765.115 113.205 765.956 113.205C766.798 113.205 767.453 113.869 767.453 114.723Z" fill="#E0C6E0"/>
<path d="M774.748 114.723C774.748 115.577 774.093 116.241 773.252 116.241C772.41 116.241 771.755 115.577 771.755 114.723C771.755 113.869 772.41 113.205 773.252 113.205C774.093 113.205 774.748 113.869 774.748 114.723Z" fill="#E0C6E0"/>
<path d="M782.043 114.723C782.043 115.577 781.388 116.241 780.547 116.241C779.705 116.241 779.05 115.577 779.05 114.723C779.05 113.869 779.705 113.205 780.547 113.205C781.388 113.205 782.043 113.869 782.043 114.723Z" fill="#E0C6E0"/>
<path d="M789.338 114.723C789.338 115.577 788.683 116.241 787.842 116.241C787 116.241 786.345 115.577 786.345 114.723C786.345 113.869 787 113.205 787.842 113.205C788.683 113.205 789.338 113.869 789.338 114.723Z" fill="#E0C6E0"/>
<path d="M796.633 114.723C796.633 115.577 795.978 116.241 795.137 116.241C794.295 116.241 793.64 115.577 793.64 114.723C793.64 113.869 794.295 113.205 795.137 113.205C795.978 113.205 796.633 113.869 796.633 114.723Z" fill="#E0C6E0"/>
<path d="M803.928 114.723C803.928 115.577 803.273 116.241 802.431 116.241C801.59 116.241 800.935 115.577 800.935 114.723C800.935 113.869 801.59 113.205 802.431 113.205C803.273 113.205 803.928 113.869 803.928 114.723Z" fill="#E0C6E0"/>
<path d="M811.223 114.723C811.223 115.577 810.568 116.241 809.726 116.241C808.885 116.241 808.23 115.577 808.23 114.723C808.23 113.869 808.885 113.205 809.726 113.205C810.568 113.205 811.223 113.869 811.223 114.723Z" fill="#E0C6E0"/>
<path d="M734.719 121.365C734.719 122.219 734.065 122.883 733.223 122.883C732.381 122.883 731.727 122.219 731.727 121.365C731.727 120.511 732.381 119.847 733.223 119.847C734.065 119.847 734.719 120.511 734.719 121.365Z" fill="#E0C6E0"/>
<path d="M742.014 121.365C742.014 122.219 741.36 122.883 740.518 122.883C739.676 122.883 739.021 122.219 739.021 121.365C739.021 120.511 739.676 119.847 740.518 119.847C741.36 119.847 742.014 120.511 742.014 121.365Z" fill="#E0C6E0"/>
<path d="M763.899 121.365C763.899 122.219 763.244 122.883 762.403 122.883C761.561 122.883 760.906 122.219 760.906 121.365C760.906 120.511 761.561 119.847 762.403 119.847C763.244 119.847 763.899 120.511 763.899 121.365Z" fill="#E0C6E0"/>
<path d="M771.194 121.365C771.194 122.219 770.539 122.883 769.698 122.883C768.856 122.883 768.201 122.219 768.201 121.365C768.201 120.511 768.856 119.847 769.698 119.847C770.539 119.847 771.194 120.511 771.194 121.365Z" fill="#E0C6E0"/>
<path d="M778.489 121.365C778.489 122.219 777.835 122.883 776.993 122.883C776.151 122.883 775.497 122.219 775.497 121.365C775.497 120.511 776.151 119.847 776.993 119.847C777.835 119.847 778.489 120.511 778.489 121.365Z" fill="#E0C6E0"/>
<path d="M785.784 121.365C785.784 122.219 785.13 122.883 784.288 122.883C783.446 122.883 782.792 122.219 782.792 121.365C782.792 120.511 783.446 119.847 784.288 119.847C785.13 119.847 785.784 120.511 785.784 121.365Z" fill="#E0C6E0"/>
<path d="M793.079 121.365C793.079 122.219 792.425 122.883 791.583 122.883C790.741 122.883 790.086 122.219 790.086 121.365C790.086 120.511 790.741 119.847 791.583 119.847C792.425 119.847 793.079 120.511 793.079 121.365Z" fill="#E0C6E0"/>
<path d="M800.374 121.365C800.374 122.219 799.719 122.883 798.878 122.883C798.036 122.883 797.381 122.219 797.381 121.365C797.381 120.511 798.036 119.847 798.878 119.847C799.719 119.847 800.374 120.511 800.374 121.365Z" fill="#E0C6E0"/>
<path d="M807.669 121.365C807.669 122.219 807.014 122.883 806.173 122.883C805.331 122.883 804.676 122.219 804.676 121.365C804.676 120.511 805.331 119.847 806.173 119.847C807.014 119.847 807.669 120.511 807.669 121.365Z" fill="#E0C6E0"/>
<path d="M730.978 127.154C730.978 128.008 730.323 128.672 729.482 128.672C728.64 128.672 727.985 128.008 727.985 127.154C727.985 126.299 728.64 125.635 729.482 125.635C730.323 125.635 730.978 126.299 730.978 127.154Z" fill="#E0C6E0"/>
<path d="M738.273 127.154C738.273 128.008 737.618 128.672 736.777 128.672C735.935 128.672 735.28 128.008 735.28 127.154C735.28 126.299 735.935 125.635 736.777 125.635C737.618 125.635 738.273 126.299 738.273 127.154Z" fill="#E0C6E0"/>
<path d="M767.453 127.154C767.453 128.008 766.798 128.672 765.956 128.672C765.115 128.672 764.46 128.008 764.46 127.154C764.46 126.299 765.115 125.635 765.956 125.635C766.798 125.635 767.453 126.299 767.453 127.154Z" fill="#E0C6E0"/>
<path d="M774.748 127.154C774.748 128.008 774.093 128.672 773.252 128.672C772.41 128.672 771.755 128.008 771.755 127.154C771.755 126.299 772.41 125.635 773.252 125.635C774.093 125.635 774.748 126.299 774.748 127.154Z" fill="#E0C6E0"/>
<path d="M782.043 127.154C782.043 128.008 781.388 128.672 780.547 128.672C779.705 128.672 779.05 128.008 779.05 127.154C779.05 126.299 779.705 125.635 780.547 125.635C781.388 125.635 782.043 126.299 782.043 127.154Z" fill="#E0C6E0"/>
<path d="M789.338 127.154C789.338 128.008 788.683 128.672 787.842 128.672C787 128.672 786.345 128.008 786.345 127.154C786.345 126.299 787 125.635 787.842 125.635C788.683 125.635 789.338 126.299 789.338 127.154Z" fill="#E0C6E0"/>
<path d="M796.633 127.154C796.633 128.008 795.978 128.672 795.137 128.672C794.295 128.672 793.64 128.008 793.64 127.154C793.64 126.299 794.295 125.635 795.137 125.635C795.978 125.635 796.633 126.299 796.633 127.154Z" fill="#E0C6E0"/>
<path d="M803.928 127.154C803.928 128.008 803.273 128.672 802.431 128.672C801.59 128.672 800.935 128.008 800.935 127.154C800.935 126.299 801.59 125.635 802.431 125.635C803.273 125.635 803.928 126.299 803.928 127.154Z" fill="#E0C6E0"/>
<path d="M811.223 127.154C811.223 128.008 810.568 128.672 809.726 128.672C808.885 128.672 808.23 128.008 808.23 127.154C808.23 126.299 808.885 125.635 809.726 125.635C810.568 125.635 811.223 126.299 811.223 127.154Z" fill="#E0C6E0"/>
<path d="M741.266 47.1606C741.734 47.1606 742.108 46.7811 742.108 46.4015C742.108 45.9271 741.827 45.5475 741.36 45.4526C740.05 45.3577 736.777 44.1242 735.468 43.1752C733.41 41.657 731.633 38.6205 730.885 35.2993C729.95 30.9344 731.072 25.0512 732.755 22.1096C732.942 21.73 732.849 21.1606 732.475 20.9709C732.101 20.7811 731.54 20.876 731.353 21.2555C729.482 24.5767 728.266 30.8395 729.388 35.6789C730.23 39.4745 732.194 42.7957 734.626 44.5986C736.029 45.6424 739.676 47.0658 741.266 47.1606Z" fill="black"/>
<path d="M757.165 45.9272C757.82 45.9272 758.288 45.4528 758.288 44.7886C758.288 44.1243 757.82 43.6499 757.165 43.6499C754.827 43.555 752.676 43.3652 749.122 42.1316C746.504 41.1827 742.014 37.6718 740.611 33.8762C739.115 29.7959 739.302 21.3506 740.892 16.3214C741.079 15.7521 740.799 15.0878 740.144 14.898C739.583 14.7083 738.928 14.9929 738.741 15.6572C736.964 21.1608 736.87 30.1754 738.554 34.6353C739.77 37.9564 742.856 40.9929 745.568 42.7959C742.108 42.9856 738.086 41.0878 736.496 38.336C734.626 35.2995 734.439 32.3579 734.439 30.1754C734.439 29.701 734.065 29.3214 733.597 29.3214C733.129 29.3214 732.755 29.701 732.755 30.1754C732.755 32.5477 732.942 35.774 735 39.19C736.87 42.3214 741.079 44.5039 745.007 44.5039C745.288 44.5039 745.568 44.5039 745.942 44.5039C746.41 44.5039 746.784 44.0294 746.691 43.555V43.4601C747.345 43.8397 747.906 44.0294 748.374 44.2192C752.209 45.6426 754.64 45.9272 757.165 45.9272Z" fill="black"/>
<path d="M765.77 50.7667C768.575 52.7594 772.129 56.6499 772.691 61.0149C772.784 61.5842 773.252 61.9638 773.813 61.9638C773.906 61.9638 773.906 61.9638 774 61.9638C774.655 61.8689 775.029 61.2995 774.935 60.6353C774.187 55.6061 770.259 51.1463 767.079 48.8689C765.209 47.5404 762.403 45.1682 760.158 42.0368C757.914 38.9054 755.108 32.8324 753.798 26.2849C753.705 25.7156 753.05 25.2411 752.489 25.4309C751.928 25.5258 751.46 26.1901 751.647 26.7594C752.957 33.5915 756.043 40.0441 758.381 43.3652C760.813 46.7813 763.806 49.2484 765.77 50.7667Z" fill="black"/>
<path d="M763.993 30.2703C763.525 30.3651 763.245 30.7447 763.245 31.2192C763.993 36.0586 766.331 42.8907 769.978 47.1608C770.165 47.3505 770.353 47.4454 770.633 47.4454C770.82 47.4454 771.007 47.3505 771.194 47.2557C771.568 46.971 771.568 46.4016 771.288 46.0221C767.827 42.0367 765.583 35.5841 764.928 31.0294C764.928 30.5549 764.46 30.1754 763.993 30.2703Z" fill="black"/>
<path d="M783.259 90.4308C783.446 90.6206 783.726 90.8104 784.007 90.8104C784.288 90.8104 784.568 90.7155 784.755 90.4308C785.223 89.9563 785.223 89.2921 784.755 88.8177C782.511 86.5403 778.676 80.4673 776.993 76.2921C775.122 71.8323 774.561 68.5111 774.28 64.9053C774.28 64.241 773.719 63.7666 773.065 63.8615C772.41 63.8615 771.942 64.4308 772.036 65.095C772.316 68.4162 772.784 72.2118 774.842 77.241C776.899 81.606 780.827 87.9636 783.259 90.4308Z" fill="black"/>
<path d="M752.863 3.60602C757.072 1.42354 765.396 1.89799 770.633 4.64981C776.245 7.59142 781.576 13.6644 784.849 20.8761C788.216 28.1827 789.899 36.8177 788.871 40.9929C787.748 45.3578 785.691 49.6279 782.978 53.1389L782.698 53.5184C780.453 56.3651 779.799 57.314 778.209 59.3068C776.712 61.2995 775.496 63.0075 774.655 66.4235C774.468 66.9929 774.842 67.6571 775.496 67.752C775.59 67.752 775.683 67.752 775.777 67.752C776.245 67.752 776.712 67.3724 776.899 66.898C777.647 63.9564 778.676 62.533 780.079 60.6352C781.576 58.6425 782.23 57.7885 784.475 54.9418L784.755 54.5622C787.748 50.7666 789.899 46.3068 791.115 41.5622C792.424 36.2484 790.086 26.6644 787 19.9272C783.446 12.3359 777.741 5.88339 771.662 2.65711C765.863 -0.379384 756.791 -0.948727 751.928 1.61332C751.367 1.89799 751.18 2.56222 751.46 3.13156C751.647 3.70091 752.302 3.89069 752.863 3.60602Z" fill="black"/>
<path d="M747.065 46.4016C745.849 46.2119 744.82 47.0659 744.633 48.2995C744.446 49.533 745.288 50.5768 746.503 50.7666C747.719 50.9564 748.748 50.1024 748.935 48.8688C749.122 47.6352 748.28 46.5914 747.065 46.4016Z" fill="black"/>
<path d="M738.835 53.6132C738.367 53.7081 738.087 54.1825 738.18 54.657C738.461 56.0803 738.648 58.9271 738.648 59.9709C738.648 60.4453 739.022 60.8249 739.489 60.8249C739.957 60.8249 740.331 60.4453 740.331 59.9709C740.331 58.8322 740.144 55.7957 739.863 54.3723C739.676 53.803 739.302 53.5183 738.835 53.6132Z" fill="black"/>
<path d="M778.021 20.876C781.949 25.6206 783.446 29.606 784.007 32.0731C784.1 32.4527 784.475 32.7373 784.849 32.7373C784.942 32.7373 784.942 32.7373 785.036 32.7373C785.503 32.6425 785.784 32.168 785.69 31.6936C784.849 27.8979 782.604 23.8176 779.331 19.8322C774.841 14.4235 766.985 9.86874 761.748 9.67896C761.28 9.67896 760.906 10.0585 760.906 10.533C760.906 11.0074 761.28 11.387 761.748 11.387C766.424 11.4819 773.906 15.8468 778.021 20.876Z" fill="black"/>
<path d="M714.798 122.694C715.173 121.84 715.64 120.891 716.108 119.847C716.95 118.044 719.194 112.73 719.662 110.832C720.036 109.124 720.878 105.993 720.223 103.715C719.755 102.102 718.633 99.5403 716.669 95.8395C715.921 94.5111 713.583 89.8614 712.928 87.584C712.46 85.9709 712.554 84.7373 713.209 83.7884C714.05 82.5549 715.173 81.4162 716.95 80.1826C718.914 78.7592 719.849 78.1899 721.439 77.241C721.719 77.0512 722.093 76.8614 722.374 76.6716C723.683 75.9125 725.273 74.9636 726.022 74.7738C726.583 74.5841 727.424 74.7738 727.798 75.2483C727.705 75.2483 727.705 75.3432 727.611 75.3432C726.209 76.0074 725.18 76.5768 724.057 77.1461C723.683 77.3359 723.496 77.9052 723.777 78.2848C723.964 78.6643 724.525 78.8541 724.899 78.5695C725.928 78.0001 726.957 77.4308 728.36 76.7665C730.417 75.8176 731.259 76.0074 731.633 76.1972C732.381 76.5768 732.662 77.0512 732.755 77.3359C732.475 77.3359 732.194 77.3359 731.914 77.3359C730.978 77.4308 728.547 77.8103 726.209 79.0439C725.834 79.2337 725.647 79.803 725.834 80.1826C726.022 80.5621 726.583 80.7519 726.957 80.5622C729.201 79.4235 731.352 79.1388 732.101 79.0439C732.662 79.0439 734.065 78.949 734.345 79.5184C734.813 80.5622 734.719 81.4162 734.626 82.3651C734.626 82.5549 734.532 82.8395 734.532 83.0293C734.158 81.5111 733.223 81.0366 731.914 80.657C730.324 80.2775 729.108 80.8468 727.518 81.7008C727.144 81.8906 726.957 82.46 727.144 82.8395C727.331 83.2191 727.892 83.4089 728.266 83.2191C729.856 82.3651 730.604 82.1753 731.539 82.3651C732.662 82.6497 732.849 82.8395 732.942 83.5986C733.129 84.6424 733.41 88.6278 733.41 90.5257C733.41 92.5184 733.316 92.6132 732.942 92.7081C732.475 92.8979 732.288 92.803 731.914 92.3286C731.165 91.3797 730.978 88.6278 731.072 87.7738C731.165 87.2045 731.352 86.8249 731.82 86.1607C732.101 85.7811 732.007 85.2118 731.633 85.022C731.259 84.7373 730.698 84.8322 730.417 85.2118C730.043 85.6862 729.763 86.1607 729.575 86.8249C729.575 86.8249 729.575 86.8249 729.482 86.9198C728.734 88.0585 728.079 88.4381 727.144 88.3432C726.676 88.3432 726.302 88.6278 726.209 89.1023C726.209 89.5767 726.489 89.9563 726.957 90.0512C727.05 90.0512 727.144 90.0512 727.331 90.0512C728.173 90.0512 728.734 89.7665 729.295 89.4819C729.388 90.8103 729.669 92.4235 730.417 93.4673C730.698 93.7519 731.259 94.6059 732.381 94.6059C732.662 94.6059 733.036 94.5111 733.41 94.4162C735 93.8468 735 92.4235 735 90.6205C735 89.8614 735 88.8176 734.906 87.6789C735 87.584 735 87.584 735.093 87.4892C735.655 86.6351 735.935 85.3067 736.122 83.4089C736.122 83.2191 736.216 83.0293 736.216 82.7446C736.309 81.7008 736.496 80.4673 735.842 78.949C735.561 78.2848 735 77.9052 734.439 77.7154C734.439 76.8614 734.065 75.7227 732.381 74.7738C731.82 74.4892 731.072 74.3943 730.137 74.4892C730.137 72.3067 729.763 70.8833 728.921 70.0293C728.36 69.46 727.518 69.1753 726.583 69.2702C723.87 69.46 723.309 72.022 723.029 73.6351C722.374 74.0147 721.813 74.3943 721.158 74.7738C720.878 74.9636 720.504 75.1534 720.223 75.3432C718.539 76.2921 717.604 76.9563 715.64 78.3797C713.583 79.803 712.273 81.1315 711.338 82.6497C710.309 84.168 710.122 86.0658 710.777 88.3432C711.432 90.8103 713.77 95.2702 714.705 97.0731C716.575 100.489 717.698 102.956 718.072 104.475C718.539 106.277 717.885 109.029 717.511 110.453C717.137 112.066 714.892 117.19 714.05 118.993C713.583 120.131 713.115 121.08 712.741 121.84C711.338 124.971 709.374 128.482 708.158 130.38H710.777C711.993 128.102 713.583 125.256 714.798 122.694ZM726.77 70.8833C727.331 70.8833 727.611 71.0731 727.798 71.168C728.079 71.4527 728.266 72.022 728.453 72.7811C727.518 72.3067 726.396 72.2118 725.46 72.4965C725.367 72.4965 725.273 72.5913 725.18 72.5913C725.367 71.5476 725.834 70.9782 726.77 70.8833Z" fill="black"/>
<path d="M726.489 126.489C727.705 124.497 729.295 119.183 730.604 114.913C731.072 113.489 731.353 112.256 731.633 111.402C732.288 109.314 732.849 107.511 733.223 105.898C733.223 106.183 733.317 106.467 733.504 106.657C733.691 106.752 733.878 106.847 734.065 106.847C734.345 106.847 734.532 106.752 734.719 106.562C736.029 104.949 737.993 103.431 739.209 102.577C739.302 103.526 739.302 104.38 739.302 104.854C739.302 106.847 740.518 110.927 741.36 113.015C742.108 114.913 742.763 118.708 742.295 121.175C741.827 123.832 741.36 127.248 741.734 130.285H743.978C743.511 127.438 743.978 124.117 744.446 121.555C745.007 118.613 744.353 114.343 743.417 112.066C742.576 109.978 741.547 106.278 741.547 104.854C741.547 104.19 741.453 102.956 741.36 101.438C741.266 99.0659 741.079 95.4601 741.173 94.701C741.173 94.4163 741.266 94.1316 741.266 93.847C741.453 92.4236 741.734 90.1462 742.482 89.1024C743.417 87.8689 744.82 87.1097 745.194 87.1097C746.129 87.2046 747.532 87.2046 748.561 85.4966C748.748 85.2119 749.029 84.9273 749.403 84.7375C749.403 84.7375 749.403 84.7375 749.496 84.7375C749.964 84.5477 750.619 84.3579 750.806 84.4528C752.489 84.6426 752.957 83.0295 753.144 82.3652C753.237 81.9857 753.612 81.2265 754.547 80.5623C755.108 80.1827 756.23 79.8981 756.885 80.1827C757.259 80.3725 757.82 81.2265 758.288 82.6499C758.568 83.7886 758.849 84.8324 758.942 85.9711C758.942 86.4455 759.317 86.7302 759.784 86.7302H759.878C760.345 86.7302 760.719 86.2557 760.626 85.7813C760.532 84.5477 760.252 83.3141 759.971 82.1754C759.784 81.6061 759.504 80.6572 758.942 79.8032C759.317 79.0441 760.065 78.19 761.094 78.2849C762.216 78.3798 763.058 79.1389 763.806 79.8981L764.086 80.0878C764.741 80.7521 764.928 81.4163 765.115 82.6499C765.396 84.3579 765.77 86.1608 765.77 87.9638C765.77 88.4382 766.144 88.8178 766.612 88.8178C767.079 88.8178 767.453 88.4382 767.453 87.9638C767.36 85.8762 766.986 83.6937 766.799 82.3652C766.612 81.0368 766.331 79.8032 765.209 78.8543L764.928 78.6645C764.647 78.3798 764.273 78.0951 763.899 77.8105C764.367 76.482 765.022 75.8178 765.863 75.3433C766.05 75.2484 766.424 75.2484 766.705 75.3433C766.986 75.5331 766.986 75.7229 766.986 75.7229C766.986 76.3871 766.986 76.9565 766.986 77.6207C766.986 78.6645 766.986 79.7083 767.079 80.847C767.173 82.6499 767.547 86.2557 767.827 88.1535C768.108 89.9565 767.547 93.1827 767.079 94.7959L766.892 95.2703C766.331 97.0732 765.396 100.205 763.806 102.577C763.058 103.716 762.403 104.57 761.842 105.234C761.094 106.183 760.439 106.942 759.784 108.27C759.41 108.935 759.036 109.314 758.662 109.694C758.007 110.358 757.353 111.117 757.353 112.92C757.353 113.394 757.353 113.774 757.353 114.154C757.353 115.672 757.353 117.095 757.727 119.373C757.914 120.511 758.101 121.65 758.194 122.694C758.381 124.212 759.129 127.913 759.691 130.285H762.029C761.468 128.197 760.532 123.927 760.439 122.409C760.345 121.27 760.158 120.132 759.971 118.898C759.597 116.81 759.597 115.672 759.691 114.154C759.691 113.774 759.691 113.3 759.691 112.92C759.691 112.066 759.878 111.876 760.439 111.307C760.813 110.927 761.374 110.358 761.935 109.314C762.496 108.175 763.058 107.606 763.712 106.657C764.273 105.898 764.928 105.139 765.77 103.81C766.144 103.241 766.424 102.672 766.799 102.102C766.892 102.102 766.986 102.102 767.079 102.102C770.727 101.533 779.799 97.1681 782.324 95.6499C785.129 93.847 788.403 91.8543 792.237 91.0003C796.259 90.1462 801.777 91.7594 804.676 93.9419C808.511 96.7886 810.942 101.533 811.691 108.175C812.158 111.876 811.784 123.927 810.849 129.81C810.849 129.905 810.849 130.095 810.755 130.19H813C814.029 124.022 814.309 111.781 813.842 107.891C812.906 100.584 810.288 95.3652 805.892 92.1389C802.619 89.7667 796.446 87.774 791.676 88.8178C787.374 89.7667 783.914 91.9492 781.014 93.7521C778.676 95.1754 771.568 98.5915 767.827 99.6353C768.388 98.2119 768.763 96.8835 769.043 95.9346L769.23 95.4601C769.791 93.6572 770.446 90.0514 770.072 87.774C769.791 85.8762 769.417 82.3652 769.324 80.6572C769.23 79.6134 769.23 78.6645 769.23 77.6207C769.23 77.0514 769.23 76.3871 769.23 75.7229C769.23 74.774 768.669 73.92 767.827 73.3506C766.892 72.7813 765.676 72.7813 764.741 73.3506C763.338 74.2046 762.496 75.1535 761.842 76.7667C761.561 76.6718 761.281 76.6718 761 76.5769C759.317 76.482 758.101 77.5258 757.446 78.6645C756.137 78.0951 754.547 78.4747 753.518 79.1389C752.489 79.8032 751.741 80.7521 751.46 81.8908C751.18 82.7448 751.086 82.7448 750.993 82.7448C750.712 82.7448 750.432 82.7448 750.058 82.7448C750.432 80.9419 750.058 79.1389 749.496 77.6207C749.871 77.6207 750.151 77.5258 750.525 77.5258C755.108 76.7667 759.971 74.2046 762.496 72.117C765.115 69.9346 765.957 68.8908 767.453 66.5185C767.827 65.9492 767.64 65.2849 767.173 64.9054C766.612 64.5258 765.957 64.7156 765.583 65.19C764.18 67.3725 763.525 68.2265 761.094 70.2192C758.755 72.2119 754.266 74.4893 750.245 75.0586C746.597 75.628 745.755 74.4893 744.914 73.2557C744.353 72.5915 744.165 71.9273 743.885 71.1681C743.604 70.5039 743.417 69.8397 742.856 68.8908C742.669 68.6061 742.482 68.2265 742.201 67.847C742.295 67.847 742.388 67.847 742.482 67.847C743.137 67.847 743.885 67.7521 744.633 67.6572C746.41 67.3725 749.122 66.2338 750.619 65.19C750.993 64.9054 751.086 64.336 750.806 63.9565C750.525 63.5769 749.964 63.482 749.59 63.7667C748.187 64.8105 745.662 65.7594 744.353 65.9492C743.043 66.1389 741.921 66.2338 740.705 65.8543C739.396 64.336 737.993 62.9127 737.245 62.1535C736.122 61.1097 734.813 58.7375 734.532 56.7448C734.439 55.7959 734.439 54.9419 734.439 54.0878C734.439 53.3287 734.439 52.5696 734.439 51.8105C734.813 52.19 735.281 52.2849 735.748 52.19C736.59 52.0003 736.964 50.8616 736.683 49.628C736.403 48.4893 735.468 47.7302 734.626 47.92C734.252 48.0149 733.878 48.3944 733.691 48.8689C733.317 48.1097 732.849 47.5404 732.475 46.9711C732.381 46.7813 732.194 46.5915 732.101 46.4017C732.475 46.4966 732.849 46.5915 733.317 46.5915H733.41C733.971 46.5915 734.439 46.117 734.532 45.5477C734.626 44.8835 734.158 44.409 733.504 44.3141C732.194 44.2192 730.978 43.7448 729.763 43.0806C727.892 42.0368 726.863 39.6645 726.489 35.774C726.115 32.0733 726.583 28.3725 728.079 23.9127C729.576 19.263 732.194 15.2776 735.842 11.6718C739.209 8.73019 745.568 5.02946 749.403 4.74479C750.058 4.74479 750.525 4.17544 750.432 3.51121C750.432 2.84698 749.871 2.37252 749.216 2.46741C744.82 2.84697 737.993 6.73749 734.345 10.3433C730.417 14.1389 727.612 18.5039 726.022 23.5331C724.432 28.2776 723.964 32.263 724.338 36.3433C724.619 39.2849 725.46 43.4601 728.734 45.3579C729.108 45.5477 729.482 45.7375 729.856 45.9273C729.576 46.3068 729.576 46.7813 729.763 47.1608C730.137 47.7302 730.511 48.2046 730.791 48.5842C731.353 49.3433 731.82 49.9127 732.101 51.0514C732.381 52.0003 732.381 53.1389 732.288 54.2776C732.288 55.2265 732.194 56.1754 732.381 57.3141C732.755 60.066 734.345 62.8178 735.842 64.1462C737.151 65.3798 740.05 68.4163 740.986 70.2192C741.36 70.9784 741.64 71.6426 741.827 72.2119C742.108 73.0659 742.482 73.92 743.137 74.8689C744.072 76.1973 745.288 77.4309 747.719 77.6207C748.187 78.8543 748.842 80.847 748.374 82.6499C747.813 82.9346 747.065 83.409 746.597 84.263C746.223 84.8324 745.942 84.9273 745.381 84.8324C743.885 84.6426 741.827 86.1608 740.612 87.6791C739.489 89.1024 739.209 91.6645 738.928 93.4674C738.928 93.7521 738.835 94.0368 738.835 94.3214C738.741 95.1754 738.835 97.5477 738.928 100.679C738.928 100.679 738.835 100.679 738.835 100.774C737.525 101.533 735 103.526 733.223 105.613C733.129 105.708 733.129 105.803 733.129 105.898C733.41 104.854 733.597 103.905 733.784 102.956C733.784 102.767 733.878 102.577 733.878 102.387C734.252 100.679 734.813 98.117 733.878 95.6499C733.691 95.0806 733.036 94.7959 732.475 94.9857C731.914 95.1754 731.633 95.8397 731.82 96.409C732.475 98.2119 732.007 100.394 731.727 101.913C731.633 102.102 731.633 102.387 731.633 102.577C731.165 104.949 730.417 107.606 729.295 111.022C729.014 111.876 728.64 113.11 728.173 114.533C727.05 118.234 725.367 123.832 724.338 125.54C723.029 127.628 722.468 129.051 722 130.475H724.338C724.993 129.146 725.46 128.008 726.489 126.489Z" fill="black"/>
<path d="M782.417 104.569C782.885 104.19 782.885 103.431 782.51 102.956C782.136 102.482 781.388 102.482 780.921 102.861C775.309 108.08 769.604 121.46 767.172 130.19H769.51C771.849 121.84 777.273 109.314 782.417 104.569Z" fill="black"/>
</g>
<defs>
<clipPath id="clip0_281_7935">
<rect width="130" height="130" fill="white"/>
</clipPath>
<clipPath id="clip1_281_7935">
<rect width="130" height="130" fill="white" transform="translate(174)"/>
</clipPath>
<clipPath id="clip2_281_7935">
<rect width="130" height="130" fill="white" transform="translate(348)"/>
</clipPath>
<clipPath id="clip3_281_7935">
<rect width="130" height="130" fill="white" transform="translate(696)"/>
</clipPath>
</defs>
</svg>
