<svg width="375" height="115" viewBox="0 0 375 115" fill="none" xmlns="http://www.w3.org/2000/svg">
<g clip-path="url(#clip0_317_3262)">
<path d="M31.1682 108.316C31.0027 108.316 30.8372 108.237 30.6717 108.158C30.3407 107.92 30.2579 107.366 30.5062 107.05L34.5614 102.142C34.8096 101.825 35.3889 101.746 35.72 101.983C36.051 102.221 36.1338 102.775 35.8855 103.092L31.8303 108C31.6648 108.237 31.4165 108.316 31.1682 108.316Z" fill="#E0C6E0"/>
<path d="M42.0096 112.986C41.9269 112.986 41.9269 112.986 41.8441 112.986L35.3062 111.957C34.8924 111.878 34.5614 111.482 34.6441 111.007C34.7269 110.611 35.1407 110.295 35.6372 110.374L42.1752 111.403C42.5889 111.482 42.92 111.878 42.8372 112.353C42.7545 112.67 42.4234 112.986 42.0096 112.986Z" fill="#E0C6E0"/>
<path d="M42.0087 106.495C41.9259 106.495 41.7604 106.495 41.6777 106.416C41.2639 106.258 41.0984 105.783 41.3466 105.387L44.3259 99.6875C44.4915 99.2917 44.988 99.1334 45.4018 99.3709C45.8156 99.5292 45.9811 100.004 45.7328 100.4L42.7535 106.1C42.588 106.337 42.3397 106.495 42.0087 106.495Z" fill="#E0C6E0"/>
<path d="M27.6916 102.775C27.526 102.775 27.3605 102.775 27.2778 102.617L22.1467 99.5294C21.7329 99.2919 21.6502 98.8169 21.8984 98.4211C22.1467 98.0253 22.6433 97.9461 23.0571 98.1836L28.1881 101.271C28.6019 101.508 28.6847 101.983 28.4364 102.379C28.1881 102.617 27.9398 102.775 27.6916 102.775Z" fill="#E0C6E0"/>
<path d="M9.7331 108.475C9.40207 108.475 9.15379 108.316 8.98827 108C8.82276 107.604 8.98827 107.129 9.31931 106.971L15.8572 103.883C16.271 103.725 16.7676 103.883 16.9331 104.2C17.0986 104.596 16.9331 105.071 16.6021 105.229L10.0641 108.316C9.98138 108.396 9.89862 108.475 9.7331 108.475Z" fill="#E0C6E0"/>
<path d="M31.9951 93.8298C31.5813 93.8298 31.2503 93.5923 31.1676 93.1965C31.0848 92.8007 31.4158 92.3258 31.8296 92.2466L38.3676 91.2175C38.7814 91.1384 39.2779 91.455 39.3607 91.8508C39.4434 92.2466 39.1124 92.7216 38.6986 92.8007L32.1607 93.8298C32.0779 93.8298 32.0779 93.8298 31.9951 93.8298Z" fill="#E0C6E0"/>
<path d="M54.0914 97.6297C53.8432 97.6297 53.5949 97.5505 53.4294 97.313L48.5466 91.6135C48.2983 91.2968 48.2983 90.7427 48.6294 90.5052C48.9604 90.2677 49.5397 90.2677 49.788 90.5844L54.6708 96.2839C54.919 96.6006 54.919 97.1547 54.588 97.3922C54.4225 97.6297 54.257 97.6297 54.0914 97.6297Z" fill="#E0C6E0"/>
<path d="M16.8503 96.6796C16.6847 96.6796 16.602 96.6796 16.4365 96.6005C16.0227 96.363 15.8571 95.888 16.1054 95.4922L19.664 89.2385C19.9123 88.8427 20.4089 88.6844 20.8227 88.9219C21.2365 89.1594 21.402 89.6343 21.1537 90.0301L17.5951 96.2838C17.4296 96.5213 17.0985 96.6796 16.8503 96.6796Z" fill="#E0C6E0"/>
<path d="M72.4643 101.43L71.2229 100.005C70.8919 99.688 70.9747 99.1339 71.3057 98.8964C71.6367 98.5798 72.216 98.6589 72.4643 98.9756L73.1264 99.7672C72.8781 100.48 72.6298 100.955 72.4643 101.43Z" fill="#E0C6E0"/>
<path d="M63.9407 111.641C63.7752 111.641 63.6097 111.562 63.4442 111.483C63.1131 111.245 63.0304 110.691 63.2786 110.375L67.3338 105.467C67.5821 105.15 68.1614 105.071 68.4924 105.308C68.8235 105.546 68.9062 106.1 68.658 106.417L64.6028 111.324C64.4373 111.562 64.189 111.641 63.9407 111.641Z" fill="#E0C6E0"/>
<path d="M63.6918 103.091C63.609 103.091 63.609 103.091 63.5262 103.091L56.9883 102.062C56.5745 101.983 56.2435 101.587 56.3262 101.112C56.409 100.716 56.8228 100.4 57.3193 100.479L63.8573 101.587C64.2711 101.666 64.6021 102.062 64.5194 102.537C64.4366 102.854 64.1056 103.091 63.6918 103.091Z" fill="#E0C6E0"/>
<path d="M61.7054 95.2545H61.6227C61.2089 95.1754 60.7951 94.8587 60.8778 94.3838L61.4571 89.2383C61.5399 88.8425 61.8709 88.5259 62.3675 88.5259C62.7813 88.605 63.1951 88.9217 63.1123 89.3966L62.533 94.5421C62.4503 95.017 62.1192 95.2545 61.7054 95.2545Z" fill="#E0C6E0"/>
<path d="M54.3398 113.461C54.257 113.461 54.0915 113.461 54.0087 113.382C53.5949 113.224 53.4294 112.749 53.6777 112.353L56.657 106.654C56.8225 106.258 57.3191 106.099 57.7329 106.337C58.1467 106.495 58.3122 106.97 58.0639 107.366L55.0846 113.066C54.9191 113.303 54.6708 113.461 54.3398 113.461Z" fill="#E0C6E0"/>
<path d="M77.5134 112.116C77.1823 112.116 76.9341 111.958 76.7685 111.641C76.603 111.245 76.7685 110.77 77.0996 110.612L83.6375 107.525C84.0513 107.366 84.5479 107.525 84.7134 107.841C84.8789 108.237 84.7134 108.712 84.3824 108.87L77.8444 111.958C77.7617 112.037 77.5961 112.116 77.5134 112.116Z" fill="#E0C6E0"/>
<path d="M97.1271 114.016C96.8788 114.016 96.6305 113.936 96.465 113.699L91.5822 107.999C91.334 107.683 91.334 107.129 91.665 106.891C91.996 106.654 92.5754 106.654 92.8236 106.97L97.7064 112.67C97.9547 112.987 97.9547 113.541 97.6236 113.778C97.4581 113.936 97.2926 114.016 97.1271 114.016Z" fill="#E0C6E0"/>
<path d="M74.2031 89.5551L69.6513 90.9008C69.5686 90.9008 69.4858 90.9008 69.4031 90.9008C69.072 90.9008 68.741 90.6633 68.5755 90.3467C68.41 89.9509 68.6582 89.4759 69.1548 89.3968L72.7134 88.3677C73.21 88.6843 73.7065 89.2384 74.2031 89.5551Z" fill="#E0C6E0"/>
<path d="M9.81539 97.7085L12.5464 99.3709C12.9602 99.6083 13.043 100.083 12.7947 100.479C12.6292 100.717 12.3809 100.875 12.1326 100.875C11.9671 100.875 11.8016 100.875 11.7188 100.717L9.15332 99.1334C9.31884 98.8167 9.64987 98.2626 9.81539 97.7085Z" fill="#E0C6E0"/>
<path d="M18.174 84.7262C17.843 84.7262 17.5947 84.5678 17.4292 84.2512C17.2637 83.8554 17.4292 83.3804 17.7602 83.2221L24.2982 80.1349C24.712 79.9765 25.2085 80.1349 25.374 80.4515C25.5395 80.8473 25.374 81.3223 25.043 81.4806L18.5051 84.5679C18.4223 84.7262 18.3395 84.7262 18.174 84.7262Z" fill="#E0C6E0"/>
<path d="M28.9338 67.7068L32.4096 68.3401C32.8234 68.4192 33.1545 68.815 33.0717 69.29C32.9889 69.6858 32.6579 69.9233 32.2441 69.9233C32.1614 69.9233 32.1614 69.9233 32.0786 69.9233L27.6924 69.0525C27.9407 68.6567 28.52 68.1026 28.9338 67.7068Z" fill="#E0C6E0"/>
<path d="M67.9956 81.8766L67.7474 84.4889C67.6646 84.8847 67.3336 85.2013 66.9198 85.2013H66.837C66.4232 85.1222 66.0094 84.8055 66.0922 84.3305L66.6715 79.1851V79.106C66.9198 79.8184 67.6646 81.085 67.9956 81.8766Z" fill="#E0C6E0"/>
<path d="M91.2497 114.015C91.0841 114.015 90.9186 114.015 90.8359 113.857L85.7048 110.77C85.291 110.532 85.2083 110.057 85.4565 109.662C85.7048 109.266 86.2014 109.187 86.6152 109.424L91.7462 112.511C92.16 112.749 92.2428 113.224 91.9945 113.62C91.829 113.857 91.4979 114.015 91.2497 114.015Z" fill="#E0C6E0"/>
<path d="M54.9196 82.114C54.5058 82.114 54.1748 81.8765 54.092 81.4807L53.0162 76.3353C52.9334 75.9395 53.1817 75.4645 53.6782 75.3854C54.092 75.3062 54.5886 75.5437 54.6713 76.0186L55.7472 81.1641C55.83 81.5599 55.5817 82.0348 55.0851 82.114C55.0024 82.114 55.0024 82.114 54.9196 82.114Z" fill="#E0C6E0"/>
<path d="M44.4089 67.7865C44.0778 67.7865 43.8296 67.6282 43.6641 67.3115C43.4985 66.9157 43.6641 66.4407 43.9951 66.2824L50.533 63.1952C50.9468 63.0368 51.4434 63.1952 51.6089 63.5118C51.7744 63.9076 51.6089 64.3826 51.2779 64.5409L44.8227 67.7073C44.6572 67.7865 44.5744 67.7865 44.4089 67.7865Z" fill="#E0C6E0"/>
<path d="M37.1266 61.7698L38.6163 63.5113C38.8646 63.828 38.8646 64.3821 38.5335 64.6196C38.368 64.7779 38.2025 64.7779 38.037 64.7779C37.7887 64.7779 37.5404 64.6987 37.3749 64.4612L35.7197 62.5614C36.0508 62.3239 36.7128 61.9281 37.1266 61.7698Z" fill="#E0C6E0"/>
<path d="M45.816 75.7018C45.7333 75.7018 45.7333 75.7018 45.6505 75.7018L38.8643 74.4353C38.4505 74.3561 38.1195 73.9603 38.2022 73.4853C38.285 73.0895 38.6988 72.7729 39.1953 72.8521L45.9815 74.1186C46.3953 74.1978 46.7264 74.5936 46.6436 75.0686C46.5608 75.4644 46.2298 75.7018 45.816 75.7018Z" fill="#E0C6E0"/>
<path d="M44.0769 85.8345C43.7459 85.8345 43.4148 85.597 43.2493 85.2803C43.0838 84.8845 43.3321 84.4096 43.8286 84.3304L50.8631 82.2722C51.2769 82.1139 51.7735 82.3514 51.8562 82.8264C52.0217 83.2222 51.7735 83.6971 51.2769 83.7763L44.2424 85.8345C44.2424 85.8345 44.1597 85.8345 44.0769 85.8345Z" fill="#E0C6E0"/>
<path d="M34.1464 83.6971C33.7326 83.6971 33.4016 83.4596 33.3188 83.0638L31.6636 75.5435C31.5809 75.1477 31.8292 74.6728 32.3257 74.5936C32.7395 74.5145 33.236 74.7519 33.3188 75.2269L34.974 82.7471C35.0567 83.1429 34.8085 83.6179 34.3119 83.6971C34.3119 83.6971 34.2292 83.6971 34.1464 83.6971Z" fill="#E0C6E0"/>
<path d="M23.6367 109.82C23.3057 109.503 22.8091 109.424 22.4781 109.741C22.147 110.058 22.0643 110.532 22.3953 110.849L25.3746 114.253H27.5263L23.6367 109.82Z" fill="#E0C6E0"/>
<path d="M13.7055 111.245C13.6228 110.85 13.209 110.533 12.7124 110.612C12.2986 110.691 11.9676 111.087 12.0504 111.562L12.6297 114.253H14.2849L13.7055 111.245Z" fill="#E0C6E0"/>
<path d="M47.4712 110.216C47.3884 109.82 46.9746 109.503 46.4781 109.583C46.0643 109.662 45.7332 110.057 45.816 110.532L46.6436 114.253H48.2988L47.4712 110.216Z" fill="#E0C6E0"/>
<path d="M71.3881 111.799C70.9743 111.562 70.4778 111.641 70.2295 112.037C69.9812 112.433 70.064 112.908 70.4778 113.145L72.2157 114.174H75.2778L71.3881 111.799Z" fill="#E0C6E0"/>
<path d="M78.0918 43.8793C78.0918 44.8292 78.8366 45.5416 79.8297 45.5416C80.8228 45.5416 81.5677 44.8292 81.5677 43.8793C81.5677 42.9293 80.8228 42.2169 79.8297 42.2169C78.8366 42.1377 78.0918 42.9293 78.0918 43.8793Z" fill="black"/>
<path d="M98.2029 42.2168C98.2029 41.2669 97.4581 40.5544 96.465 40.5544C95.4719 40.5544 94.7271 41.2669 94.7271 42.2168C94.7271 43.1667 95.4719 43.8792 96.465 43.8792C97.3753 43.8792 98.2029 43.1667 98.2029 42.2168Z" fill="black"/>
<path d="M83.3885 58.208C83.0575 57.9705 82.5609 58.1288 82.3954 58.4455C82.1471 58.7621 82.3127 59.2371 82.6437 59.3954C83.8023 60.1078 86.6161 60.8994 89.0989 60.8994C89.5954 60.8994 90.0092 60.8994 90.5058 60.8203C92.823 60.5036 94.6437 59.712 95.9679 58.5246C96.2989 58.2871 96.2989 57.8122 95.9679 57.4955C95.7196 57.1789 95.223 57.1789 94.892 57.4955C93.8161 58.5246 92.2437 59.1579 90.2575 59.3954C87.9403 59.712 84.6299 58.9204 83.3885 58.208Z" fill="black"/>
<path d="M87.8576 36.9925C87.361 37.1508 87.03 37.6258 87.1128 38.1007C87.1955 38.5757 87.6093 38.8132 88.1059 38.8132C88.1886 38.8132 88.2714 38.8132 88.3542 38.8132C90.9197 38.2591 94.8093 35.7259 96.9611 32.2429C98.699 29.4722 98.9473 25.5934 98.368 22.9019C97.8714 20.6063 96.4645 15.8566 93.8162 13.0069C93.4852 12.6111 92.8231 12.5319 92.4093 12.9277C91.9955 13.2443 91.9128 13.8776 92.3266 14.2734C94.3128 16.4899 95.8852 20.5271 96.3818 23.2977C96.9611 25.9892 96.4645 29.3139 95.2231 31.2929C93.2369 34.4594 89.6783 36.5967 87.8576 36.9925Z" fill="black"/>
<path d="M80.0775 37.7841C76.8499 39.5256 74.781 40.3964 71.7189 41.0297C71.2224 41.1088 70.8086 41.6629 70.9741 42.1379C71.0568 42.6129 71.4706 42.9295 71.9672 42.9295C72.0499 42.9295 72.1327 42.9295 72.1327 42.9295C75.4431 42.2962 77.7603 41.2671 81.0706 39.5256C84.8775 37.4674 87.8569 35.2509 90.7534 30.343C91.0017 29.868 90.8362 29.3139 90.4224 29.0764C89.9258 28.8389 89.3465 28.9973 89.0982 29.3931C86.2844 33.9052 83.7189 35.8842 80.0775 37.7841Z" fill="black"/>
<path d="M43.2499 57.8907C43.4154 57.8907 43.4982 57.8907 43.6637 57.8115C49.9534 55.1201 50.0361 48.7872 50.2017 43.246C50.2017 41.4253 50.2844 39.5254 50.5327 37.8631C51.5258 30.8969 55.0844 23.3767 60.5465 16.5689C64.4362 11.7401 69.8155 8.25704 74.9465 7.30711C79.9948 6.35719 84.8776 6.99047 87.5258 8.89032C87.9396 9.20697 88.6017 9.12781 88.9327 8.732C89.2638 8.3362 89.181 7.70292 88.7672 7.38628C85.7052 5.24894 80.1603 4.45734 74.6155 5.48642C69.0707 6.51551 63.1948 10.2361 59.0568 15.4606C53.2637 22.4268 49.6224 30.3428 48.5465 37.6256C48.2982 39.4463 48.2155 41.3461 48.2155 43.246C48.1327 48.7872 47.9672 53.9327 42.8361 56.1491C42.3396 56.3866 42.0913 56.9408 42.3396 57.4157C42.5051 57.7324 42.9189 57.8907 43.2499 57.8907Z" fill="black"/>
<path d="M90.671 51.9543C90.7538 51.9543 90.8366 51.9543 90.9193 51.9543C91.3331 51.796 91.4986 51.4002 91.4159 51.0835C91.0848 50.0544 90.5883 47.6796 90.5883 46.1756C90.5883 45.7798 90.2573 45.4631 89.8435 45.4631C89.4297 45.4631 89.0986 45.7798 89.0986 46.1756C89.0986 47.9171 89.5952 50.4502 90.009 51.4793C90.0917 51.796 90.4228 51.9543 90.671 51.9543Z" fill="black"/>
<path d="M86.7816 106.416C86.5333 106.1 86.1195 105.941 85.7885 106.179C83.4713 107.524 76.5195 107.287 74.2023 104.754C73.954 104.437 73.4575 104.437 73.1264 104.675C72.7954 104.912 72.7954 105.387 73.0437 105.704C74.7816 107.604 78.2575 108.474 81.4023 108.474C83.4713 108.474 85.3747 108.079 86.5333 107.445C86.8644 107.208 86.9471 106.733 86.7816 106.416Z" fill="black"/>
<path d="M75.3609 97.2334C76.354 94.1461 76.7678 91.6921 77.0989 89.7923C77.1816 89.4756 77.1816 89.159 77.2644 88.8424C77.5954 87.1008 77.9265 83.0636 76.8506 80.293C76.354 78.9473 75.2782 77.5224 74.3678 76.2558C73.623 75.2267 72.7954 74.1977 72.5471 73.4852C72.2989 72.5353 71.8851 71.5854 71.554 70.7938C71.223 70.0022 70.892 69.2897 70.8092 68.7356C70.6437 68.0231 70.3127 67.0732 69.9816 66.2816C69.7334 65.6483 69.5678 65.0942 69.4023 64.5401C69.154 63.7485 69.4023 63.2735 69.9816 62.4819C70.6437 61.6111 71.0575 61.057 71.554 60.1862C71.8023 59.7904 72.2161 59.3946 72.6299 59.553C72.7954 59.6321 73.0437 59.7113 73.292 60.5029C73.292 60.5821 73.3747 60.6612 73.3747 60.7404C72.7127 61.7695 72.3816 62.5611 72.1334 63.511C71.8851 64.5401 71.8851 65.3317 71.8851 65.965C71.8851 66.1233 71.8851 66.2816 71.8851 66.3608C71.8851 67.5482 71.8023 68.2606 71.6368 68.5773C71.4713 68.9731 71.7196 69.3689 72.0506 69.5272C72.1334 69.5272 72.2161 69.6064 72.2989 69.6064C72.6299 69.6064 72.8782 69.448 72.9609 69.1314C73.1265 68.6564 73.2092 67.944 73.292 66.5191C73.292 66.3608 73.292 66.2024 73.292 66.0441C73.292 65.4108 73.292 64.7776 73.5402 63.9068C73.7885 62.9569 74.1196 62.1653 74.9472 61.057C75.3609 60.4237 75.9403 60.2654 76.7678 60.5029C77.5127 60.7404 77.7609 62.0861 77.5954 62.9569C77.5127 63.6693 77.2644 65.0942 77.0161 66.4399L76.7678 68.1815C76.6851 68.5773 77.0161 68.9731 77.4299 68.9731C77.8437 69.0522 78.2575 68.7356 78.2575 68.3398L78.5058 66.5983C78.754 65.2525 78.9196 63.8276 79.0851 63.1152C79.0851 62.9569 79.1678 62.7194 79.1678 62.4819C79.1678 62.4027 79.2506 62.3236 79.2506 62.3236C79.4161 61.3737 80.6575 60.7404 81.4023 60.8195C82.4782 60.9779 82.7265 61.2945 82.9747 61.9278C83.223 62.5611 83.3058 63.511 83.1403 64.7776C82.9747 65.6483 82.8092 66.5983 82.561 67.5482C82.4782 68.0231 82.3127 68.4981 82.2299 68.9731C82.1472 69.3689 82.3954 69.7647 82.8092 69.8438C82.892 69.8438 82.892 69.8438 82.9747 69.8438C83.3058 69.8438 83.6368 69.6063 83.7196 69.2897C83.8023 68.8147 83.9678 68.3398 84.0506 67.8648C84.2989 66.8357 84.5472 65.8858 84.7127 64.9359C84.7954 64.5401 84.7954 64.1443 84.7954 63.8276C84.961 63.2735 85.292 63.036 86.1196 63.1944C87.2782 63.3527 87.6092 64.7776 87.6092 65.2525C87.692 66.2816 87.4437 68.6564 87.1127 70.3188C87.0299 70.7146 87.2782 71.1104 87.692 71.1896C87.7748 71.1896 87.7747 71.1896 87.8575 71.1896C88.1885 71.1896 88.5196 70.9521 88.6023 70.6354C88.7679 69.6855 89.0161 68.2606 89.0989 66.9941C89.1816 66.9941 89.2644 66.9149 89.3472 66.9149C89.5127 66.7566 90.092 66.7566 90.3403 66.9941C91.0023 67.7857 91.0023 67.7857 91.3334 69.448C91.6644 71.0312 91.6644 75.7017 91.4989 77.6016C91.3334 79.1848 90.5058 81.243 89.8437 82.9053L89.5127 83.3803C88.6851 85.4385 87.5265 98.5791 87.5265 100.4C87.4437 105.941 87.0299 110.532 86.4506 114.253H88.4368C88.8506 111.403 89.1817 107.999 89.3472 104.12C90.5058 104.516 91.8299 104.674 93.0713 104.674C94.561 104.674 96.0506 104.437 97.2092 103.804C97.292 107.128 97.0437 110.928 96.6299 114.253H98.6161C99.0299 110.374 99.2782 105.862 99.1127 102.141C98.9472 98.025 99.7748 88.3674 101.099 84.726C101.761 82.9053 102.754 81.3221 104.326 79.5014C105.485 78.1557 106.313 77.0474 107.14 75.9392C107.389 75.6226 107.637 75.3059 107.885 74.9101C109.54 72.6936 110.699 70.9521 111.278 69.5272C112.023 67.6273 111.444 66.2025 110.782 65.0942C110.533 64.6984 110.368 64.3026 110.12 63.8276C109.789 63.1944 109.375 62.4027 108.961 61.6903C108.961 61.6903 108.961 61.6111 108.878 61.6111C109.54 60.3446 110.451 58.2072 110.533 56.624C110.699 54.8825 110.285 54.0117 109.126 53.4576C108.382 53.141 107.389 53.2201 106.478 53.6159C107.885 48.3913 108.464 42.9293 108.63 39.0504C108.795 35.409 108.464 29.7095 107.14 25.5931C105.485 20.2102 103.168 16.2522 100.189 13.4816C99.1955 12.5316 94.0644 8.01948 90.6713 8.73193C90.1748 8.81109 89.8437 9.36521 89.9265 9.84017C90.0092 10.3151 90.5885 10.6318 91.0851 10.5526C92.492 10.236 95.8023 12.0567 98.7817 14.8273C101.513 17.3604 103.582 21.081 105.154 26.1472C106.313 29.8678 106.726 35.409 106.561 38.9712C106.313 43.4834 105.651 50.0537 103.664 55.8324C103.664 55.9116 103.582 56.0699 103.582 56.1491C103.582 56.1491 103.582 56.2282 103.499 56.2282C103.333 56.1491 103.085 56.1491 102.837 56.1491C102.754 56.1491 102.754 56.1491 102.671 56.1491C103.002 55.3575 103.333 54.5659 103.416 54.0909C104.244 50.9245 104.244 48.1539 104.078 44.6708C103.995 43.4834 103.913 42.296 103.83 41.1086C103.747 39.6045 103.664 38.1005 103.582 36.8339C103.333 33.8258 102.092 30.976 100.023 28.8387C99.692 28.4429 99.0299 28.4429 98.6161 28.7595C98.2024 29.0762 98.2024 29.7095 98.5334 30.1053C100.271 32.0051 101.347 34.4591 101.595 36.9922C101.678 38.2588 101.761 39.7628 101.844 41.2669C101.926 42.4543 102.009 43.7209 102.092 44.8291C102.34 48.1539 102.258 50.7662 101.513 53.6951C101.347 54.3284 100.52 56.3866 99.8575 57.4948C99.692 57.6531 99.6092 57.8906 99.4437 58.0489C99.0299 58.603 98.6989 59.078 98.3679 59.7113V59.7904C97.3748 59.7904 96.5472 60.1071 95.8023 60.7404C95.0575 61.3737 94.8092 62.3236 94.892 63.1152C93.7334 63.036 92.7403 63.6693 92.0782 64.4609C91.6644 64.9359 91.4989 65.5692 91.4989 66.2816L91.4161 66.2025C90.7541 65.3317 89.5954 65.0942 88.6023 65.2525C88.3541 63.511 87.2782 62.2444 85.7885 62.1653C85.1265 62.0861 84.5472 62.1653 84.1334 62.4027C84.0506 62.1653 84.0506 62.0069 83.9679 61.8486C83.5541 60.8195 82.892 60.0279 81.2368 59.7904C80.2437 59.6321 79.1678 60.0279 78.3403 60.8195C78.0092 60.2654 77.5954 59.7905 76.9334 59.553C76.1058 59.2363 75.2782 59.3155 74.6161 59.6321C74.2851 58.8405 73.7058 58.3656 72.9609 58.1281C71.6368 57.7323 70.3127 58.3656 69.5678 59.7113C69.154 60.4237 68.823 60.8987 68.1609 61.7695C67.4161 62.7194 66.754 63.8276 67.2506 65.49C67.4161 66.0441 67.6644 66.6774 67.8299 67.3107C68.1609 68.1023 68.4092 68.9731 68.5747 69.6064C68.7402 70.3188 69.0713 71.1104 69.4023 71.902C69.7333 72.6936 70.1471 73.5644 70.3954 74.4351C70.7265 75.4642 71.554 76.5725 72.4644 77.839C73.3747 79.0265 74.2851 80.293 74.6989 81.4013C75.5265 83.6178 75.3609 86.9425 75.0299 88.8424C73.7885 88.684 71.8851 87.3383 69.4851 82.5887C67.4161 78.5515 64.7678 71.3479 63.4437 67.8648C63.692 67.2315 63.9402 66.6774 64.1885 66.0441C65.5954 62.4027 66.2575 55.3575 66.0092 50.8453C66.0092 50.2912 65.5127 49.8954 64.9333 49.9745C64.354 49.9745 63.9402 50.4495 64.023 51.0036C64.023 51.3203 64.023 51.6369 64.023 51.9536C63.1954 52.0327 62.2851 51.7161 61.4575 49.8954C61.2092 49.3413 60.9609 48.7871 60.7126 48.0747C60.2161 46.8081 59.7195 45.4624 59.0575 44.4333C59.3885 44.4333 59.7195 44.5125 60.1333 44.5125C62.5333 44.5125 66.092 43.8792 69.154 42.0585C72.7954 39.842 75.5265 34.9341 78.0092 29.9469C78.2575 29.472 78.0092 28.9179 77.5127 28.6804C77.0161 28.4429 76.4368 28.6804 76.1885 29.1553C74.7816 32.0843 71.8023 38.2588 68.1609 40.3961C64.8506 42.3751 61.2092 42.6126 59.554 42.5335C61.2092 37.4672 63.7747 31.6093 65.4299 29.472C65.7609 29.0762 65.6782 28.4429 65.1816 28.1263C64.7678 27.8096 64.1058 27.8888 63.7747 28.3637C61.4575 31.451 57.4023 41.2669 56.2437 46.8081C55.2506 51.4786 55.0851 55.7533 54.9195 59.2363C54.9195 59.7113 54.8368 60.2654 54.8368 60.7404C54.754 62.0861 54.5057 63.7485 54.0092 65.49C53.0161 64.0651 52.1057 62.9569 51.2782 62.4027C50.8644 62.0861 50.2023 62.1653 49.8713 62.5611C49.5402 62.9569 49.623 63.5902 50.0368 63.9068C50.6161 64.3026 51.6092 65.4108 53.2644 67.944C52.5195 70.0813 51.6092 72.2978 50.5333 74.1977C50.2851 74.6726 50.4506 75.2267 50.8644 75.4642C51.0299 75.5434 51.1954 75.6226 51.3609 75.6226C51.6919 75.6226 52.023 75.4642 52.1885 75.1476C54.8368 70.7146 56.492 64.4609 56.7402 60.8195C56.7402 60.3446 56.823 59.8696 56.823 59.3155C56.9885 55.9116 57.2368 51.7952 58.1471 47.2039V47.1248C58.3126 47.5997 58.5609 48.1539 58.7264 48.6288C58.9747 49.3413 59.223 49.9746 59.4713 50.5287C60.4644 52.666 61.8713 53.7743 63.6092 53.7743C63.692 53.7743 63.7747 53.7743 63.8575 53.7743C63.7747 57.8114 63.1127 62.7194 62.1195 65.3317C60.7954 68.6564 59.223 71.7437 55.0023 73.0894C54.5057 73.2477 54.1747 73.8019 54.3402 74.2768C54.5057 74.6726 54.8368 74.9101 55.2506 74.9101C55.3333 74.9101 55.4161 74.9101 55.5816 74.8309C55.9954 74.6726 56.4092 74.5143 56.823 74.356C57.7333 76.0975 58.5609 77.8391 59.1402 79.2639C59.3058 79.6597 59.6368 79.8181 60.0506 79.8181C60.2161 79.8181 60.2989 79.8181 60.4644 79.7389C60.9609 79.5806 61.2092 78.9473 61.0437 78.4723C60.3816 76.9683 59.554 75.2268 58.6437 73.4061C60.0506 72.4561 61.1264 71.3479 61.954 70.0022C63.7747 74.8309 65.7609 79.9764 67.4161 83.222C69.7334 87.7341 72.0506 90.1089 74.4506 90.5047C74.1196 92.2463 73.7058 94.3836 72.8782 96.9959C71.8023 100.241 69.4023 106.337 67.4161 110.928C66.754 104.991 65.1816 95.8876 63.692 92.0879C63.5264 91.613 62.9471 91.3755 62.3678 91.5338C61.8713 91.6921 61.623 92.2463 61.7885 92.8004C63.4437 96.9959 65.4299 109.266 65.7609 114.49H67.9954C70.6437 109.582 74.0368 101.271 75.3609 97.2334ZM105.816 56.3074C105.899 56.1491 105.899 55.9907 105.982 55.8324C106.147 55.6741 106.395 55.4366 106.561 55.2783C107.306 54.7242 108.216 54.4867 108.63 54.645C108.961 54.8033 109.292 54.9617 109.209 56.4657C109.127 57.4948 108.63 58.9197 108.051 60.1071C107.306 59.078 106.644 58.2072 106.064 57.574C105.816 57.2573 105.485 57.0198 105.237 56.8615C105.568 56.7032 105.733 56.5449 105.816 56.3074ZM91.4989 83.5386C92.2437 81.7971 93.0713 79.5806 93.2368 77.7599C93.3196 76.7308 93.4023 74.5935 93.3196 72.6145C93.4023 72.6936 93.5679 72.7728 93.7334 72.7728C93.7334 72.7728 93.7334 72.7728 93.8161 72.7728C94.2299 72.7728 94.561 72.4561 94.561 72.1395C94.561 71.9812 94.7265 71.427 95.8851 70.5563C96.0506 70.398 96.1334 70.1605 96.1334 69.923C96.1334 69.6855 95.9679 69.448 95.8023 69.3689C95.0575 68.9731 94.6437 68.4981 94.0644 67.8648L93.9817 67.7065C93.8989 67.6273 93.8161 67.5482 93.8161 67.5482C93.8161 67.469 93.8161 67.469 93.7334 67.3899C93.2368 66.5191 93.2368 65.49 93.6506 65.0942C93.9817 64.6984 94.892 63.986 95.8023 64.4609C96.5472 64.8567 98.1196 66.4399 99.0299 67.3107C99.4437 67.7065 99.692 68.0231 99.9403 68.1815L100.354 68.4981C100.768 68.8147 101.099 69.1314 101.43 69.448C101.595 69.6064 101.761 69.6855 101.926 69.6855C102.092 69.6855 102.34 69.6064 102.423 69.448C102.754 69.1314 102.754 68.7356 102.423 68.4189C102.009 68.0231 101.678 67.7065 101.264 67.3899L100.851 67.0732C100.685 66.9149 100.437 66.6774 100.023 66.2816C98.7817 65.0942 97.623 63.9068 96.7127 63.3527C96.6299 62.4027 96.7127 61.8486 97.1265 61.4528C97.7886 60.8987 98.5334 60.7404 99.5265 61.057C100.437 61.2945 101.678 62.5611 102.423 63.3527L102.589 63.511C103.002 63.986 103.582 64.5401 104.078 65.0942L105.071 66.2025C105.237 66.3608 105.402 66.4399 105.651 66.4399C105.816 66.4399 105.982 66.3608 106.147 66.2816C106.478 66.0441 106.478 65.5692 106.23 65.2525L105.237 64.2234C104.74 63.6693 104.161 63.036 103.747 62.6402L103.582 62.4819C102.837 61.6903 101.844 60.6612 100.685 60.0279C100.933 59.6321 101.182 59.3155 101.43 58.9197C101.595 58.6822 101.761 58.5239 101.926 58.2864C102.175 57.8906 102.671 57.8906 103.002 57.8906C103.333 57.8906 103.664 57.9698 104.658 58.8405C105.402 59.6321 106.313 60.8195 107.389 62.5611C107.802 63.2735 108.133 63.9068 108.464 64.6192C108.713 65.1734 108.961 65.6483 109.209 66.0441C109.706 66.8357 110.037 67.6273 109.54 68.8939C109.044 70.1605 107.968 71.8228 106.395 73.881C106.147 74.1977 105.899 74.5935 105.651 74.9101C104.74 76.0975 103.995 77.1266 102.92 78.3932C101.182 80.3722 100.023 82.1929 99.2782 84.1719C97.7058 88.2882 96.961 98.2625 97.1265 102.22C95.5541 103.487 92.0782 103.725 89.3472 102.695C89.3472 101.983 89.4299 101.271 89.4299 100.558C89.4299 98.3416 90.6713 85.7551 91.2506 84.1719L91.4989 83.5386ZM93.0713 68.8147C93.4851 69.2897 93.8161 69.6855 94.3127 70.0022C93.8989 70.4771 93.5679 70.8729 93.3196 71.2687C93.2368 70.398 93.1541 69.6064 93.0713 69.0522C93.0713 68.9731 93.0713 68.8939 93.0713 68.8147Z" fill="black"/>
<path d="M13.7886 90.7423C17.8438 83.1429 23.7197 74.0394 26.2024 71.1896C30.0093 66.9941 33.8162 63.986 37.7887 61.9279C41.7611 59.9488 46.8921 60.8988 48.0507 61.7695C48.4645 62.0862 49.1266 62.0862 49.4576 61.6904C49.7887 61.2946 49.7887 60.6613 49.3749 60.3446C47.4714 58.7614 41.3473 57.9698 36.8783 60.1863C32.6576 62.3237 28.6852 65.4901 24.7128 69.8439C21.8162 73.0895 15.6921 82.9054 11.9679 89.7924C9.15415 95.1753 5.76104 104.041 2.61621 114.253H4.68518C7.74725 104.358 10.9748 95.8877 13.7886 90.7423Z" fill="black"/>
<path d="M35.9686 103.487C32.4928 96.7587 31.0031 90.5842 31.4169 85.2013C31.4997 84.6472 31.0859 84.2514 30.5066 84.1722C29.9272 84.093 29.5134 84.4888 29.4307 85.043C28.9341 90.8217 30.5065 97.3128 34.1479 104.358C35.5548 107.05 37.6238 110.612 39.8583 114.253H42.1755C39.7755 110.533 37.541 106.575 35.9686 103.487Z" fill="black"/>
</g>
<g clip-path="url(#clip1_317_3262)">
<path d="M172.327 63.2012C172.409 63.7082 172.819 64.0463 173.311 64.0463C173.393 64.0463 173.393 64.0463 173.475 64.0463C174.049 63.9617 174.377 63.4547 174.295 62.8631C173.967 60.7504 174.623 58.4687 176.018 56.9475C177.822 54.9193 177.986 51.708 176.428 48.4967C176.264 48.2432 176.182 47.9051 176.018 47.6516C175.033 45.7079 174.459 44.5248 174.459 42.7501C174.459 41.0599 175.689 38.1866 177.74 35.0598C178.806 33.3696 179.134 32.0175 179.544 29.8203C179.626 29.4823 179.708 29.0597 179.79 28.6372C180.528 24.9188 183.973 21.0314 186.679 18.8342C189.96 16.1299 195.209 12.8341 198.817 11.82C202.262 10.8059 206.855 10.2988 209.151 11.7355C209.643 11.989 210.217 11.9045 210.463 11.3974C210.709 10.8904 210.627 10.2988 210.135 10.0453C206.526 7.59454 200.129 9.2002 198.243 9.70725C194.306 10.8904 188.812 14.3552 185.367 17.144C182.251 19.6793 178.724 23.9047 177.822 28.1301C177.74 28.5527 177.658 28.9752 177.576 29.3132C177.166 31.4259 176.92 32.4401 176.1 33.7922C174.705 35.9049 172.491 39.7923 172.491 42.6656C172.491 44.9473 173.229 46.4685 174.295 48.4967C174.459 48.7502 174.541 49.0037 174.705 49.2573C175.115 50.1869 176.51 53.3982 174.623 55.4264C172.737 57.6236 171.917 60.4124 172.327 63.2012Z" fill="black"/>
<path d="M177.166 63.2854C177.904 62.2713 178.724 61.2572 179.298 60.1586C179.545 59.6515 179.38 59.0599 178.888 58.8064C178.396 58.5529 177.822 58.7219 177.576 59.229C177.084 60.1586 176.346 61.1727 175.608 62.1023C174.214 63.9614 172.819 65.9051 172.655 67.9333C172.327 71.6517 172.901 74.4405 174.46 76.5532C174.624 76.8067 174.952 76.9758 175.28 76.9758C175.526 76.9758 175.69 76.8913 175.854 76.8067C176.264 76.4687 176.346 75.8772 176.018 75.3701C174.788 73.6799 174.296 71.3137 174.542 68.1024C174.706 66.6657 176.018 64.9755 177.166 63.2854Z" fill="black"/>
<path d="M214.728 11.9046C218.665 10.8059 224.16 13.3412 227.112 16.3835C230.393 19.7639 232.525 24.4118 233.756 27.7077C234.986 31.0035 235.806 36.4965 236.052 40.2149C234.986 37.5106 233.838 34.5528 233.345 33.0317C233.181 32.5246 232.689 32.1866 232.115 32.3556C231.623 32.5246 231.295 33.0317 231.459 33.6233C231.951 35.3134 233.181 38.5247 234.33 41.398C234.904 42.7502 235.396 44.0178 235.724 45.0319C236.954 48.2432 237.282 50.1024 236.544 53.6518C235.642 57.7082 233.838 60.4125 232.525 62.0181C230.967 63.7928 229.819 64.6379 228.425 64.8914C227.933 64.9759 227.523 65.5675 227.687 66.0745C227.769 66.5816 228.179 66.9196 228.671 66.9196C228.753 66.9196 228.835 66.9196 228.835 66.9196C231.049 66.4971 232.689 64.8914 234.002 63.3703C235.478 61.5956 237.528 58.6378 238.512 54.1588C239.414 50.1869 238.922 47.9052 237.61 44.3558C237.282 43.5953 236.954 42.6657 236.626 41.7361C236.79 41.8206 236.872 41.8206 237.036 41.8206C237.036 41.8206 237.036 41.8206 237.118 41.8206C237.692 41.8206 238.102 41.3135 238.02 40.722C237.856 36.6656 236.954 30.6655 235.56 26.9471C234.248 23.4822 232.033 18.5807 228.507 14.9469C225.144 11.482 218.993 8.52422 214.154 9.87635C213.662 10.0454 213.334 10.5524 213.498 11.144C213.662 11.7355 214.154 11.9891 214.728 11.9046Z" fill="black"/>
<path d="M221.616 81.2009C221.698 81.2009 221.862 81.2009 221.944 81.1164C225.307 79.9333 227.193 75.6234 227.603 72.1585C227.849 70.1303 227.685 68.4401 227.521 66.75C227.439 65.6514 227.275 64.4682 227.275 63.2006C227.275 60.4118 229.571 56.4399 231.786 54.4117C232.196 54.0737 232.196 53.3976 231.868 52.9751C231.54 52.5525 230.884 52.5525 230.474 52.8906C228.013 55.1723 225.307 59.7358 225.307 63.2006C225.307 64.5528 225.389 65.7359 225.553 66.919C225.717 68.6092 225.881 70.1303 225.635 71.905C225.307 74.8628 223.749 78.3276 221.288 79.1727C220.796 79.3418 220.468 79.9333 220.714 80.4404C220.878 80.8629 221.206 81.2009 221.616 81.2009Z" fill="black"/>
<path d="M221.617 71.736C221.125 71.567 220.55 71.8205 220.386 72.3275C219.156 75.8769 217.844 78.0741 216.122 79.2572C215.384 79.8488 214.481 80.1868 213.497 80.5249C211.857 81.2009 210.217 81.877 209.151 83.4827C208.823 83.9052 208.987 84.5813 209.397 84.9193C209.561 85.0038 209.725 85.0883 209.971 85.0883C210.299 85.0883 210.627 84.9193 210.791 84.6658C211.529 83.4827 212.759 83.0601 214.235 82.4686C215.22 82.046 216.286 81.6235 217.27 80.9474C219.976 79.0037 221.371 75.5389 222.273 73.0036C222.437 72.5811 222.109 71.9895 221.617 71.736Z" fill="black"/>
<path d="M209.561 42.3273C209.725 42.4118 209.971 42.4963 210.135 42.4963C210.463 42.4963 210.709 42.3273 210.955 42.0738C211.283 41.6512 211.201 40.9752 210.709 40.6371C208.248 38.8625 206.854 34.3835 206.854 31.0032C206.854 27.9609 207.838 24.7495 210.135 20.3551C210.381 19.848 210.217 19.2565 209.725 19.003C209.232 18.7494 208.658 18.9184 208.412 19.4255C206.69 22.7213 204.886 26.6932 204.886 31.0032C204.886 34.8061 206.526 40.0456 209.561 42.3273Z" fill="black"/>
<path d="M210.217 24.6652C209.561 29.3132 209.561 33.4541 210.299 36.0738C211.201 39.3697 212.76 41.7359 214.974 43.1726C215.138 43.3416 215.302 43.3416 215.466 43.3416C215.794 43.3416 216.122 43.1726 216.286 42.8345C216.614 42.3275 216.45 41.7359 215.958 41.3979C214.236 40.2148 212.924 38.2711 212.185 35.4823C211.529 33.116 211.529 29.2287 212.185 24.9187C212.267 24.3272 211.857 23.8201 211.365 23.7356C210.791 23.7356 210.299 24.1581 210.217 24.6652Z" fill="black"/>
<path d="M221.453 50.4402C221.699 50.4402 221.945 50.3557 222.109 50.1867C222.519 49.7641 222.519 49.1726 222.191 48.75C219.976 46.3838 219.484 43.764 218.664 39.7921C218.582 39.2006 218.418 38.609 218.254 37.9329C218.172 37.4259 217.598 37.0034 217.106 37.1724C216.614 37.2569 216.204 37.8484 216.368 38.3555C216.532 39.0316 216.614 39.6231 216.778 40.2147C217.598 44.1866 218.172 47.3134 220.797 50.1867C220.961 50.3557 221.207 50.4402 221.453 50.4402Z" fill="black"/>
<path d="M222.273 61.9331C222.437 62.0176 222.601 62.1022 222.847 62.1022C223.175 62.1022 223.503 61.9331 223.667 61.6796C226.046 58.0457 225.882 50.6935 225.226 46.9751C225.144 46.3836 224.651 46.0455 224.077 46.13C223.503 46.2145 223.175 46.7216 223.257 47.3132C223.913 50.8625 223.913 57.5387 222.027 60.4965C221.699 61.0035 221.863 61.5951 222.273 61.9331Z" fill="black"/>
<path d="M205.542 18.8338C205.05 18.4958 204.476 18.6648 204.148 19.1719C202.508 21.7916 200.621 29.3974 202.344 33.8763C202.508 34.2989 202.836 34.4679 203.246 34.4679C203.41 34.4679 203.492 34.4679 203.656 34.3834C204.148 34.1299 204.394 33.5383 204.23 33.0313C202.672 29.1439 204.64 22.2142 205.87 20.186C206.116 19.7634 205.952 19.1719 205.542 18.8338Z" fill="black"/>
<path d="M184.548 44.6095C184.63 44.6095 184.712 44.694 184.876 44.694C185.286 44.694 185.696 44.4405 185.778 44.018L185.86 43.6799C186.598 41.3137 187.254 39.1165 189.469 37.5953C190.043 37.2573 190.453 36.9193 190.945 36.5812C192.093 35.8207 193.077 35.1446 194.554 34.046C196.932 32.2713 199.638 28.9755 201.443 25.5106C201.689 25.0036 201.525 24.412 201.033 24.1585C200.541 23.9049 199.967 24.074 199.72 24.581C197.998 27.7923 195.538 30.8346 193.405 32.4403C192.011 33.4544 191.027 34.1305 189.879 34.8911C189.387 35.2291 188.977 35.5671 188.403 35.9052C185.614 37.7643 184.794 40.5531 184.056 43.0039L183.974 43.3419C183.728 43.849 183.974 44.4405 184.548 44.6095Z" fill="black"/>
<path d="M197.34 45.3699C198.427 45.3699 199.309 44.4618 199.309 43.3417C199.309 42.2215 198.427 41.3135 197.34 41.3135C196.253 41.3135 195.372 42.2215 195.372 43.3417C195.372 44.4618 196.253 45.3699 197.34 45.3699Z" fill="black"/>
<path d="M214.892 50.8623C213.744 50.8623 212.924 51.7919 212.924 52.8905C212.924 53.9891 213.826 54.9187 214.892 54.9187C215.958 54.9187 216.86 53.9891 216.86 52.8905C216.86 51.7919 215.958 50.8623 214.892 50.8623Z" fill="black"/>
<path d="M197.833 67.0885C200.376 68.4406 202.426 68.7786 204.804 69.2012H204.886C205.215 69.2012 205.543 68.9476 205.625 68.5251C205.707 68.1026 205.379 67.7645 204.968 67.68C202.59 67.342 200.786 67.0039 198.407 65.7363C195.373 64.1307 193.323 62.4405 192.42 60.8348C192.174 60.4968 191.764 60.3278 191.436 60.5813C191.108 60.8348 190.944 61.2574 191.19 61.5954C192.256 63.5391 194.471 65.3138 197.833 67.0885Z" fill="black"/>
<path d="M218.09 93.7937C217.516 93.7092 217.024 94.1318 217.024 94.6388C217.024 94.8923 216.942 95.1459 216.86 95.3994L216.614 95.3149C215.056 94.6388 212.677 93.6247 210.381 91.85C207.921 89.9908 206.772 88.3852 206.444 86.1035C206.034 83.5682 206.362 81.4555 207.265 76.8075C210.299 75.7934 212.185 74.8638 214.154 72.8356C214.81 72.1595 215.384 71.4835 215.958 70.8074C216.368 70.9764 216.778 71.0609 217.188 71.0609C218.418 71.0609 219.731 70.5539 220.715 69.8778C221.781 69.2017 222.519 67.7651 223.421 66.0749C223.831 65.3143 224.241 64.5538 224.651 63.7932C224.897 63.2861 224.815 62.6946 224.323 62.3565C223.831 62.103 223.257 62.1875 222.929 62.6946C222.437 63.5397 222.027 64.3002 221.617 65.0608C220.879 66.413 220.223 67.6806 219.567 68.1031C218.746 68.6102 217.926 68.9482 217.27 69.0327C217.762 68.3567 218.336 67.5961 218.992 66.8355C219.321 66.413 219.321 65.7369 218.91 65.3989C218.5 65.0608 217.844 65.0608 217.516 65.4834C216.778 66.413 216.122 67.258 215.548 68.0186C214.646 69.2017 213.826 70.3004 212.759 71.399C210.955 73.2581 209.233 74.0187 206.116 75.0328C202.672 76.1314 199.063 77.1455 195.209 76.0469C191.108 74.8638 189.304 72.9201 186.597 69.7933C184.137 66.92 183.563 65.4834 182.333 62.1875C181.266 59.3142 181.02 54.9198 182.661 51.7085C182.907 51.2014 182.743 50.6099 182.25 50.3563C181.84 50.1028 181.348 50.2718 181.02 50.6099C180.774 49.5112 180.61 48.3281 180.856 47.483C181.348 45.8774 182.579 43.5956 183.317 42.328L183.399 42.159C183.645 41.6519 183.481 41.0604 183.071 40.8069C182.579 40.5533 182.004 40.7224 181.758 41.1449L181.676 41.3139C180.938 42.666 179.544 45.1168 179.052 46.8915C178.396 49.2577 179.544 52.469 179.954 53.3986C179.954 53.3986 179.954 53.4831 180.036 53.4831C179.216 56.8635 179.79 60.4974 180.61 62.9481C181.84 66.413 182.661 68.1031 185.285 71.2299C187.663 74.0187 189.96 76.723 194.881 78.0751C196.275 78.4132 197.587 78.5822 198.817 78.5822C201.114 78.5822 203.246 78.0751 205.296 77.4836C204.476 81.54 204.23 83.7372 204.64 86.4415C205.132 89.2303 206.526 91.343 209.397 93.4557C211.939 95.3149 214.4 96.4135 216.04 97.1741L216.45 97.3431C216.45 97.3431 216.45 97.3431 216.532 97.3431C213.744 104.357 203.984 112.47 192.42 112.132C178.396 111.625 166.34 100.132 163.141 89.7373C162.977 89.2303 162.403 88.8922 161.911 89.0613C161.419 89.2303 161.091 89.8218 161.255 90.3289C164.618 101.4 177.412 113.653 192.338 114.16C192.666 114.16 192.912 114.16 193.24 114.16C207.429 114.16 218.254 102.752 219.156 94.8923C218.992 94.3853 218.664 93.8782 218.09 93.7937Z" fill="black"/>
<path d="M164.617 91.342C164.699 91.342 164.699 91.342 164.781 91.342C167.652 90.8349 171.424 88.8912 173.721 87.3701C176.673 85.4264 178.56 83.3982 180.036 80.5249C181.512 77.7361 182.004 73.6797 181.758 67.7641C181.758 67.1725 181.266 66.75 180.692 66.8345C180.118 66.8345 179.708 67.3415 179.79 67.9331C180.036 73.5107 179.626 77.229 178.313 79.6798C177.001 82.2151 175.279 84.0742 172.655 85.7644C170.358 87.2856 166.914 89.0602 164.535 89.4828C163.961 89.5673 163.633 90.0744 163.715 90.6659C163.715 90.9194 164.125 91.342 164.617 91.342Z" fill="black"/>
<path d="M221.863 16.8057C221.617 16.2987 221.043 16.0452 220.551 16.2987C220.058 16.5522 219.812 17.1438 220.058 17.6508C221.207 20.1861 221.699 22.3833 221.043 27.1158C220.304 32.0173 220.633 36.4117 221.945 39.7921C222.109 40.2146 222.437 40.4681 222.847 40.4681C222.929 40.4681 223.093 40.4681 223.175 40.3836C223.667 40.2146 223.913 39.623 223.749 39.0315C222.601 35.9892 222.273 31.8483 222.929 27.3693C223.585 22.8058 223.339 20.1016 221.863 16.8057Z" fill="black"/>
<path d="M179.462 40.3837C179.626 40.3837 179.79 40.3837 179.954 40.2992C182.743 38.7781 184.301 35.6512 185.777 32.5244C186.023 32.0174 186.269 31.5103 186.515 31.0033C188.073 27.8765 194.963 19.8481 199.227 17.0594C199.719 16.7213 199.801 16.1298 199.555 15.6227C199.227 15.1157 198.653 15.0312 198.161 15.2847C193.896 18.0735 186.679 26.3553 184.793 29.9892C184.547 30.4962 184.301 31.0033 184.055 31.5103C182.661 34.2991 181.266 37.1724 179.052 38.3555C178.56 38.609 178.396 39.2006 178.642 39.7077C178.806 40.1302 179.134 40.3837 179.462 40.3837Z" fill="black"/>
<path d="M205.542 51.5389C205.214 51.3698 204.722 51.4543 204.558 51.7924C203.902 52.9755 202.918 55.5953 202.508 56.8629C202.426 57.2854 202.59 57.708 203 57.7925C203.082 57.7925 203.164 57.7925 203.164 57.7925C203.492 57.7925 203.82 57.539 203.902 57.2009C204.23 56.0178 205.214 53.5671 205.788 52.4684C206.034 52.2149 205.87 51.7079 205.542 51.5389Z" fill="black"/>
<path d="M196.686 33.9607C196.276 33.9607 195.948 34.2987 195.948 34.7213C195.948 35.1438 196.276 35.4818 196.686 35.4818C199.146 35.5664 202.919 36.9185 204.231 38.1016C204.395 38.2706 204.559 38.2706 204.723 38.2706C204.887 38.2706 205.133 38.1861 205.297 38.0171C205.543 37.6791 205.543 37.2565 205.297 36.9185C203.493 35.3973 199.228 34.0452 196.686 33.9607Z" fill="black"/>
<path d="M139.193 105.117C140.915 101.06 144.524 97.68 149.281 95.9898C150.347 95.5673 151.413 95.2293 152.479 94.8912C155.022 94.0461 157.4 93.2856 159.778 91.9334C160.27 91.6799 160.434 91.0038 160.106 90.5813C159.86 90.0742 159.204 89.9052 158.794 90.2432C156.662 91.5109 154.365 92.2715 151.905 93.032C150.839 93.3701 149.773 93.7081 148.625 94.1306C143.458 96.0743 139.357 99.7927 137.471 104.356C136.569 106.469 135.83 109.765 135.174 114.244H137.143C137.717 110.103 138.455 107.06 139.193 105.117Z" fill="black"/>
<path d="M237.209 114.244C198.312 117.854 176.9 116.411 138.663 114.244C139.68 110.465 142.413 102.296 145.203 99.8546C147.994 97.4128 156.541 95.0581 160.465 94.186C161.337 97.2384 165.261 102.471 173.11 109.448C182.703 116.86 197.529 115.116 206.25 112.936C213.227 111.192 217.878 103.488 219.331 99.8546L224.128 101.163C231.104 102.471 235.756 109.884 237.209 114.244Z" fill="#EDD9ED"/>
<path d="M238.84 108.329C237.363 104.78 234.657 102.329 229.982 100.301L228.916 99.7935C226.046 98.5259 223.749 97.5963 220.305 95.6526C219.813 95.3991 219.238 95.5681 218.992 96.0752C218.746 96.5822 218.91 97.1738 219.402 97.4273C222.929 99.371 225.307 100.385 228.178 101.568L229.244 102.075C233.345 103.85 235.805 105.963 237.035 109.005C237.527 110.104 238.02 111.963 238.594 113.991H240.644C239.988 111.794 239.332 109.681 238.84 108.329Z" fill="black"/>
</g>
<g clip-path="url(#clip2_317_3262)">
<path d="M273.826 114.244C272.782 106.116 271.979 95.4744 272.862 90.6982C273.745 85.922 274.87 81.9837 277.52 79.051C280.09 76.2858 284.105 73.9396 288.2 73.1017C291.252 72.5151 296.472 71.5934 298.881 71.0068C299.925 70.7554 301.45 70.5879 302.013 72.3475C303.378 76.4534 306.67 82.5703 309.16 85.8382C311.649 89.1899 314.62 91.0334 316.708 92.1227C318.475 93.0444 322.089 93.3796 323.293 93.212C321.687 99.9155 320.001 103.183 318.154 106.954C316.387 110.473 314.54 114.244 314.54 114.244H273.826Z" fill="#E0C6E0"/>
<path d="M343.289 73.1859C347.786 72.7669 350.918 73.0183 353.809 74.9455C356.539 76.789 358.788 81.1462 360.153 86.4252C361.598 91.7041 364.007 106.871 365.212 114.328H331.243C331.243 114.328 335.499 100.754 336.543 97.4859C337.748 93.7152 338.631 88.6038 339.193 86.3414C339.755 83.9952 340.558 82.8221 341.281 80.811C342.004 78.7162 343.128 76.1186 343.289 73.1859Z" fill="#E0C6E0"/>
<path d="M316.547 4.22388C318.956 2.46423 323.453 2.38043 327.388 3.9725C331.885 5.73216 335.659 9.50285 338.47 12.6032C341.04 15.4522 344.252 20.9825 344.814 23.5801C345.296 25.5911 345.537 28.3563 345.858 30.9539C346.019 32.0432 346.099 33.1325 346.259 34.0542C347.062 40.5901 347.785 45.0311 348.347 47.5449C349.713 53.578 348.347 59.276 347.866 60.868C346.902 64.136 346.259 65.6442 345.376 67.6553C345.135 68.158 345.376 68.7446 345.858 68.996C346.019 69.0798 346.099 69.0798 346.259 69.0798C346.581 69.0798 346.982 68.9122 347.143 68.4932C348.106 66.3984 348.749 64.7225 349.793 61.3708C350.435 59.1922 351.8 53.3266 350.355 46.9584C349.793 44.5284 349.07 40.0873 348.267 33.6353C348.106 32.6297 348.026 31.6242 347.866 30.5349C347.544 27.8535 347.223 25.0884 346.822 22.9097C346.099 19.6418 342.565 13.8601 339.996 11.0111C336.944 7.99457 332.929 3.9725 328.03 2.12905C323.453 0.369398 318.394 0.536985 315.423 2.63181C315.021 2.96698 314.86 3.55354 315.182 4.0563C315.503 4.47526 316.065 4.55905 316.547 4.22388Z" fill="black"/>
<path d="M285.871 69.6665C286.433 69.6665 286.835 69.2475 286.915 68.7448C287.075 65.812 287.718 63.7172 288.682 61.2034C290.368 57.0137 290.609 54.9189 290.93 51.651C291.01 50.9806 291.091 50.3103 291.171 49.5561C291.492 46.6234 293.179 31.6244 295.507 24.1668C297.836 16.7092 301.45 11.3465 304.1 8.74888C307.152 5.81612 310.685 4.39164 313.335 5.14578C313.817 5.31336 314.379 4.97819 314.54 4.47543C314.7 3.97267 314.379 3.38612 313.897 3.21854C310.444 2.21302 306.188 3.80509 302.735 7.2406C299.041 10.8437 295.668 16.8768 293.58 23.4965C291.251 30.9541 289.565 45.1151 289.163 49.3047C289.083 50.0589 289.003 50.813 288.922 51.3996C288.601 54.6675 288.441 56.4272 286.835 60.3654C285.791 62.963 285.068 65.393 284.907 68.5772C284.907 69.1637 285.309 69.5827 285.871 69.6665Z" fill="black"/>
<path d="M312.611 32.2944C315.743 28.9427 320.722 21.4851 321.846 17.1279C322.007 16.6251 321.686 16.0386 321.204 15.871C320.722 15.7034 320.16 16.0386 319.999 16.5413C318.955 20.5634 314.057 27.7696 311.166 30.87C308.516 33.8027 303.537 36.7355 300.726 38.2437C301.288 36.5679 301.851 34.8082 302.654 33.3C304.581 29.4455 305.705 27.9372 307.231 25.9262C308.034 24.9206 308.837 23.7475 309.961 22.1555C310.202 21.8203 310.122 21.3175 309.801 21.0662C309.479 20.8148 308.998 20.8986 308.757 21.2337C307.713 22.8258 306.829 23.9989 306.026 25.0044C304.501 27.0155 303.296 28.6075 301.288 32.6296C299.361 36.4841 298.397 40.9251 297.514 44.7796C297.032 46.7906 296.631 48.7179 296.149 50.1424C295.185 52.9075 293.258 58.1865 290.688 62.2924C290.447 62.6275 290.528 63.1303 290.929 63.2979C291.09 63.3817 291.17 63.3817 291.331 63.3817C291.572 63.3817 291.813 63.2979 291.973 63.0465C294.623 58.7731 296.631 53.4103 297.594 50.5613C298.076 49.0531 298.558 47.1258 299.04 45.031C299.04 44.8634 299.12 44.7796 299.12 44.612C299.602 45.7013 300.244 46.5393 300.967 47.5448L301.048 47.6286C301.77 48.6341 302.975 49.6396 304.26 50.2262C305.143 52.9075 306.026 55.9241 306.026 58.8569C306.026 62.2924 305.545 64.2196 304.26 65.4765C303.858 65.8955 303.858 66.482 304.179 66.901C304.34 67.1524 304.661 67.2362 304.902 67.2362C305.143 67.2362 305.384 67.1524 305.545 66.9848C307.632 64.9738 307.873 61.7896 307.873 58.9407C307.873 56.2593 307.151 53.4103 306.428 50.8965C306.508 50.8965 306.669 50.8965 306.749 50.8965C307.311 50.8127 307.632 50.31 307.552 49.8072C307.472 49.2206 306.99 48.8855 306.508 48.9693C305.625 49.0531 303.537 47.9637 302.493 46.6231L302.413 46.5393C301.288 45.031 300.566 44.1093 300.164 42.3496C300.084 42.0982 299.923 41.8469 299.763 41.6793C299.843 41.4279 299.843 41.2603 299.923 41.0089C300.004 41.0089 300.084 40.9251 300.164 40.9251C300.807 40.59 302.011 39.9196 303.376 39.1655C304.34 39.6682 305.304 40.59 306.026 41.9306C306.187 42.182 306.428 42.2658 306.669 42.2658C306.829 42.2658 306.91 42.2658 307.07 42.182C307.392 41.9306 307.552 41.5117 307.311 41.1765C306.589 39.9196 305.705 38.9979 304.822 38.3275C306.348 37.4058 308.034 36.3165 309.479 35.1434C308.355 38.4113 307.311 43.2713 308.034 46.1203C308.114 46.4555 308.436 46.7069 308.757 46.7069C308.837 46.7069 308.917 46.7069 308.917 46.7069C309.319 46.6231 309.56 46.2041 309.399 45.7851C308.676 42.9362 310.042 37.2382 311.326 34.3893C311.407 34.1379 311.407 33.8865 311.246 33.6351C311.889 33.0486 312.29 32.6296 312.611 32.2944Z" fill="black"/>
<path d="M321.046 13.2733C321.126 13.6085 321.447 13.8599 321.768 13.8599C321.849 13.8599 321.929 13.8599 321.929 13.8599C322.33 13.7761 322.571 13.3571 322.411 12.9381C321.768 10.5919 319.439 7.15642 318.235 6.40228C317.914 6.15091 317.432 6.31849 317.271 6.65366C317.03 6.98884 317.191 7.4916 317.512 7.65918C318.315 8.07815 320.483 11.1785 321.046 13.2733Z" fill="black"/>
<path d="M343.61 29.5295C344.091 29.5295 344.493 29.1105 344.573 28.6078C344.654 28.0212 344.252 27.5185 343.69 27.5185C341.843 27.2671 338.872 26.5967 336.382 25.4236C333.411 24.0829 328.031 20.5636 325.862 17.2119C325.541 16.7929 324.979 16.6254 324.497 16.9605C324.015 17.2957 323.935 17.8823 324.256 18.385C326.826 22.4071 333.009 26.1778 335.579 27.3509C335.9 27.5185 336.141 27.6023 336.462 27.686C335.981 27.7698 335.499 27.9374 335.178 28.0212C334.776 28.1888 334.615 28.6078 334.776 29.0267C334.856 29.2781 335.178 29.4457 335.419 29.4457C335.499 29.4457 335.579 29.4457 335.74 29.3619C336.382 29.1105 337.908 28.8592 339.434 28.7754C339.514 28.7754 339.675 28.7754 339.755 28.6916C341.2 29.1105 342.485 29.3619 343.449 29.4457C343.529 29.5295 343.529 29.5295 343.61 29.5295Z" fill="black"/>
<path d="M340.638 35.4786C340.879 34.3893 340.397 33.3 339.594 33.0486C338.63 32.7134 337.747 33.3838 337.426 34.3893C337.185 35.4786 337.666 36.5679 338.469 36.8193C339.433 37.1545 340.316 36.4841 340.638 35.4786Z" fill="black"/>
<path d="M324.256 34.8079C323.212 34.7241 322.249 35.4782 322.088 36.5675C322.008 37.6568 322.731 38.6623 323.775 38.8299C324.818 38.9137 325.782 38.1596 325.943 37.0703C326.103 35.981 325.3 34.9754 324.256 34.8079Z" fill="black"/>
<path d="M326.988 52.9915C328.192 53.3267 329.557 53.4105 330.842 53.4105C334.135 53.4105 337.427 52.5725 338.792 51.1481C339.114 50.8967 339.114 50.3939 338.792 50.0588C338.471 49.7236 338.07 49.7236 337.748 50.0588C336.383 51.4832 331.164 52.4888 327.309 51.4832C326.907 51.3994 326.506 51.6508 326.426 52.0698C326.345 52.4888 326.586 52.9077 326.988 52.9915Z" fill="black"/>
<path d="M302.252 55.5053C302.172 55.7567 302.092 56.0919 302.012 56.3433C301.209 59.5274 300.165 63.3819 294.945 66.3146C294.624 66.4822 294.463 66.985 294.624 67.3202C294.784 67.5715 295.025 67.7391 295.266 67.7391C295.346 67.7391 295.507 67.7391 295.587 67.6553C301.369 64.3874 302.574 59.9464 303.377 56.7622C303.457 56.5108 303.537 56.1757 303.618 55.9243C303.698 55.5053 303.537 55.0864 303.136 55.0026C302.734 54.9188 302.333 55.1702 302.252 55.5053Z" fill="black"/>
<path d="M335.018 45.1144C335.098 45.1144 335.178 45.1144 335.259 45.0306C335.66 44.863 335.821 44.4441 335.66 44.0251C335.178 42.7682 334.696 40.2544 334.295 38.411C334.215 37.992 333.813 37.7406 333.411 37.8244C333.01 37.9082 332.769 38.3272 332.849 38.7461C333.01 39.4165 333.652 42.9358 334.215 44.6116C334.455 44.9468 334.696 45.1144 335.018 45.1144Z" fill="black"/>
<path d="M327.229 30.1163C327.309 29.6974 327.068 29.2784 326.667 29.1946C324.98 28.8594 320.965 29.5298 319.038 30.4515C318.636 30.6191 318.476 31.038 318.717 31.457C318.877 31.7084 319.118 31.876 319.359 31.876C319.439 31.876 319.6 31.876 319.68 31.7922C321.527 30.8705 325.221 30.3677 326.426 30.6191C326.827 30.7867 327.149 30.5353 327.229 30.1163Z" fill="black"/>
<path d="M272.139 113.49C271.737 111.228 271.336 108.546 271.095 105.446C270.613 99.7482 270.372 91.7878 270.934 87.6819C271.496 83.8275 272.701 80.8947 274.789 78.5485C276.154 77.0402 278.724 74.9454 282.016 73.6885C285.148 72.5154 286.754 72.1802 289.485 71.6775C289.966 71.5937 290.689 71.5099 291.573 71.4261C295.106 71.0071 300.406 70.3368 302.655 68.3257C303.056 67.9906 303.136 67.3202 302.815 66.9013C302.494 66.4823 301.852 66.3985 301.45 66.7337C299.603 68.3257 294.464 68.9961 291.332 69.3313C290.448 69.415 289.726 69.4988 289.163 69.6664C286.594 70.0854 284.827 70.5044 281.374 71.7613C278.322 72.9344 275.271 74.9454 273.343 77.2078C271.015 79.8892 269.649 83.1571 269.007 87.4306C268.365 91.704 268.605 99.9157 269.087 105.697C269.328 108.965 269.81 111.563 270.212 113.909C270.212 114.077 270.292 114.161 270.292 114.328H272.219C272.219 113.993 272.219 113.742 272.139 113.49Z" fill="black"/>
<path d="M316.629 113.071C318.315 109.887 320.002 106.536 321.046 104.273C322.17 101.843 324.258 96.5642 324.74 92.9611C325.221 89.5256 324.9 83.0735 323.776 80.3921C322.732 77.8783 321.126 74.8618 320.323 73.7725C319.6 72.5994 319.199 71.51 318.717 69.2476C318.476 67.9069 317.753 65.6445 317.191 64.0525C317.03 63.6335 316.95 63.2145 316.87 62.8794C316.629 62.209 316.468 61.5387 316.227 60.8683C315.906 60.0304 315.665 59.1925 315.505 58.5221C315.505 58.4383 315.585 58.1031 315.906 57.8518C316.227 57.6004 316.629 57.6842 317.111 58.1032C318.717 59.6114 319.841 61.7062 320.243 63.0469C320.644 64.4714 321.206 65.9797 321.929 67.5718C322.732 69.3314 323.856 70.3369 325.221 70.6721C325.703 70.8397 326.265 70.5045 326.426 69.918C326.426 69.918 326.426 69.918 326.426 69.8342C326.747 69.08 326.988 68.7449 327.711 68.6611C328.112 68.6611 328.434 68.2421 328.353 67.8232C328.353 67.4042 327.952 67.069 327.55 67.1528C326.426 67.2366 325.784 67.9069 325.462 68.5773C324.74 68.3259 324.178 67.6556 323.696 66.5663C323.214 65.5607 322.893 64.639 322.571 63.6335C323.214 63.2983 323.937 63.0469 324.9 63.2145C326.988 63.6335 329.076 64.1363 330.281 64.4714C330.281 64.4714 330.281 64.4714 330.361 64.4714C330.441 64.5552 330.522 64.5552 330.602 64.5552C332.128 64.9742 332.85 66.3149 333.172 67.3204C333.413 68.1583 333.493 69.1638 333.493 69.4152C333.493 69.8342 333.814 70.1694 334.216 70.1694C334.617 70.1694 334.938 69.8342 334.938 69.4152C334.938 69.08 334.858 67.8231 334.537 66.8176C334.216 65.8959 333.734 65.058 333.172 64.3876C334.216 64.3876 335.34 64.4714 335.902 64.639C336.946 65.058 337.91 65.8959 338.311 66.7338C338.713 67.5718 338.713 68.0745 338.632 68.5773C338.552 68.9963 338.793 69.4152 339.194 69.4152C339.275 69.4152 339.275 69.4152 339.275 69.4152C339.596 69.4152 339.917 69.1638 339.997 68.7449C340.078 68.0745 340.158 67.2366 339.516 65.9797C339.194 65.2256 338.632 64.5552 337.91 64.0525C339.034 64.0525 340.078 64.22 340.399 64.5552C341.363 65.4769 341.684 65.8959 341.844 66.65C342.005 67.488 342.005 68.1583 342.005 68.9963C342.005 69.499 342.005 70.0856 342.085 70.7559C342.005 72.4318 341.844 74.0238 341.282 76.0349C340.801 77.7945 339.997 79.8056 338.713 82.7383C337.829 84.8331 337.347 87.2632 337.107 89.1066C337.026 89.6932 336.946 90.1959 336.866 90.6149C336.464 92.3745 335.581 95.8101 335.019 97.4859C334.537 98.9942 334.216 100.251 333.814 101.424C333.493 102.43 333.252 103.435 332.85 104.525C332.128 106.787 331.325 109.385 330.602 111.731C330.361 112.401 330.2 113.071 329.959 113.742H331.967C332.128 113.323 332.208 112.82 332.369 112.401C333.091 109.971 333.894 107.457 334.617 105.195C334.938 104.106 335.26 103.1 335.581 102.095C335.902 100.921 336.303 99.7483 336.785 98.2401C337.347 96.4804 338.311 92.9611 338.713 91.1176C338.793 90.6149 338.873 90.1121 339.034 89.5256C339.355 87.7659 339.676 85.5035 340.56 83.6601C341.925 80.5597 342.648 78.5487 343.21 76.7052C343.772 74.6942 344.013 73.1021 344.013 71.5938C344.495 71.5938 344.976 71.5938 345.538 71.51C347.546 71.4263 350.116 71.3425 351.883 71.929C353.81 72.5994 356.38 73.94 358.066 76.7052C360.475 80.6435 362.001 86.6766 362.884 91.0338C363.768 95.6425 365.133 106.033 365.695 110.306C365.856 111.396 365.936 112.569 366.096 113.742H368.024C367.863 112.485 367.783 111.228 367.622 110.055C367.06 105.781 365.775 95.2235 364.812 90.6149C363.928 86.09 362.242 79.8056 359.752 75.6159C358.146 73.0183 355.657 71.0911 352.525 70.0018C350.357 69.2476 347.626 69.3314 345.458 69.4152C344.896 69.4152 344.414 69.4152 344.013 69.499C344.013 69.3314 344.013 69.1638 344.013 68.9963C344.013 68.0745 344.013 67.3204 343.852 66.3987C343.611 64.8066 342.728 63.9687 341.844 63.1307C341.282 62.5442 340.319 62.2928 339.275 62.1252C340.238 60.198 341.122 57.8518 342.085 55.338L342.407 54.5C343.772 50.9807 344.414 48.9697 345.057 45.5342C345.619 42.6014 345.619 39.3335 344.896 35.8142C344.735 35.06 344.655 34.1383 344.575 33.3004C344.495 32.3787 344.334 31.5407 344.173 30.7028C344.093 30.2 343.531 29.7811 343.049 29.9487C342.567 30.0325 342.166 30.619 342.326 31.1218C342.487 31.8759 342.567 32.7138 342.648 33.5518C342.728 34.4735 342.888 35.3952 343.049 36.2331C343.691 39.4173 343.772 42.4338 343.21 45.1152C342.567 48.4669 341.925 50.3942 340.64 53.7459L340.319 54.5838C339.194 57.349 338.15 60.0304 337.107 62.0414C336.303 62.1252 335.581 62.209 335.099 62.2928C334.858 62.3766 334.617 62.5442 334.537 62.7118C333.814 62.628 333.011 62.7118 332.208 62.7118C331.646 62.7118 331.164 62.7118 330.682 62.7118C329.478 62.3766 327.39 61.8738 325.302 61.4549C324.017 61.2035 323.053 61.5387 322.25 61.8738C321.768 60.3656 320.564 57.9356 318.556 56.0921C317.271 54.919 315.906 55.0866 315.103 55.5894C314.862 55.7569 314.702 55.9245 314.461 56.0921C313.256 54.5 312.614 53.2431 312.132 51.9863C311.891 51.4835 311.329 51.2321 310.847 51.4835C310.365 51.7349 310.124 52.3214 310.365 52.8242C311.008 54.3325 311.811 56.0921 313.738 58.2707C313.738 58.2707 313.738 58.2707 313.818 58.3545V58.4383C313.979 59.1925 314.3 60.0304 314.621 60.9521C314.862 61.5387 315.103 62.209 315.264 62.8794C315.344 63.2145 315.505 63.5497 315.665 64.0525C316.147 65.6445 316.87 67.8232 317.111 69.08C317.593 71.5938 318.074 73.0183 318.958 74.359C319.68 75.4483 321.206 78.2973 322.25 80.7273C322.973 82.4032 323.294 86.3414 323.214 89.4418C322.571 89.6931 321.768 89.6931 320.002 89.4418C317.271 89.1066 314.22 87.1794 311.65 83.9952C308.839 80.4759 304.664 72.348 304.182 69.4152C304.101 68.8287 303.62 68.4935 303.057 68.5773C302.495 68.6611 302.174 69.1638 302.254 69.7504C302.817 73.3535 307.314 81.8166 310.124 85.2521C312.935 88.7714 316.468 91.0338 319.68 91.369C320.564 91.4528 321.287 91.5366 321.929 91.5366C322.331 91.5366 322.652 91.5366 322.973 91.4528C322.973 91.7042 322.893 91.8718 322.893 92.0394C322.411 95.2235 320.564 100.251 319.359 102.765C318.315 104.943 316.629 108.211 314.943 111.479C314.541 112.233 314.22 112.904 313.818 113.658H315.986C316.147 113.826 316.388 113.407 316.629 113.071Z" fill="black"/>
<path d="M296.713 107.373C295.749 104.357 294.785 101.256 294.304 99.4965C293.019 95.0555 289.967 86.9276 287.237 83.4921C286.916 83.0731 286.273 82.9893 285.872 83.4083C285.47 83.7434 285.39 84.4138 285.791 84.8327C288.2 87.8493 291.252 95.6421 292.537 100.083C293.019 101.843 294.063 105.027 295.026 108.043C295.749 110.306 296.472 112.568 296.954 114.244H298.961C298.319 112.568 297.516 110.054 296.713 107.373Z" fill="black"/>
<path d="M351.24 90.112C351.401 89.6093 351.079 89.0227 350.598 88.8551C350.116 88.6875 349.554 89.0227 349.393 89.5255C347.225 97.0668 346.341 104.608 347.064 110.139C347.225 111.144 347.305 112.652 347.385 114.244H349.313C349.232 112.569 349.152 110.977 348.991 109.887C348.269 104.608 349.072 97.4858 351.24 90.112Z" fill="black"/>
</g>
<defs>
<clipPath id="clip0_317_3262">
<rect width="113.372" height="113.372" fill="white" transform="translate(0 0.87207)"/>
</clipPath>
<clipPath id="clip1_317_3262">
<rect width="113.372" height="113.372" fill="white" transform="translate(130.814 0.87207)"/>
</clipPath>
<clipPath id="clip2_317_3262">
<rect width="113.372" height="113.372" fill="white" transform="translate(261.628 0.87207)"/>
</clipPath>
</defs>
</svg>
