<svg width="143" height="52" viewBox="0 0 143 52" fill="none" xmlns="http://www.w3.org/2000/svg">
<path d="M18.024 14.2727C18.024 16.1761 17.6632 17.7955 16.9416 19.1307C16.2257 20.4659 15.2484 21.4858 14.0098 22.1903C12.7768 22.8892 11.3905 23.2386 9.85071 23.2386C8.29957 23.2386 6.90753 22.8864 5.67457 22.1818C4.44162 21.4773 3.46719 20.4574 2.75128 19.1222C2.03537 17.7869 1.67741 16.1705 1.67741 14.2727C1.67741 12.3693 2.03537 10.75 2.75128 9.41477C3.46719 8.07955 4.44162 7.0625 5.67457 6.36364C6.90753 5.65909 8.29957 5.30682 9.85071 5.30682C11.3905 5.30682 12.7768 5.65909 14.0098 6.36364C15.2484 7.0625 16.2257 8.07955 16.9416 9.41477C17.6632 10.75 18.024 12.3693 18.024 14.2727ZM14.2825 14.2727C14.2825 13.0398 14.0979 12 13.7285 11.1534C13.3649 10.3068 12.8507 9.66477 12.1859 9.22727C11.5212 8.78977 10.7428 8.57102 9.85071 8.57102C8.95866 8.57102 8.18025 8.78977 7.51548 9.22727C6.85071 9.66477 6.33366 10.3068 5.96435 11.1534C5.60071 12 5.41889 13.0398 5.41889 14.2727C5.41889 15.5057 5.60071 16.5455 5.96435 17.392C6.33366 18.2386 6.85071 18.8807 7.51548 19.3182C8.18025 19.7557 8.95866 19.9744 9.85071 19.9744C10.7428 19.9744 11.5212 19.7557 12.1859 19.3182C12.8507 18.8807 13.3649 18.2386 13.7285 17.392C14.0979 16.5455 14.2825 15.5057 14.2825 14.2727ZM28.8304 23L23.8361 5.54545H27.8673L30.7565 17.6733H30.9014L34.0889 5.54545H37.5406L40.7196 17.6989H40.873L43.7622 5.54545H47.7935L42.7991 23H39.2026L35.8787 11.5881H35.7423L32.427 23H28.8304ZM69.168 5.54545V23H65.9805L58.3868 12.0142H58.2589V23H54.5686V5.54545H57.8072L65.3413 16.5227H65.4947V5.54545H69.168ZM77.017 23V5.54545H88.7784V8.58807H80.7074V12.7472H88.1733V15.7898H80.7074V19.9574H88.8125V23H77.017ZM96.5124 23V5.54545H103.399C104.717 5.54545 105.842 5.78125 106.774 6.25284C107.711 6.71875 108.424 7.38068 108.913 8.23864C109.407 9.09091 109.654 10.0937 109.654 11.2472C109.654 12.4062 109.404 13.4034 108.904 14.2386C108.404 15.0682 107.68 15.7045 106.731 16.1477C105.788 16.5909 104.646 16.8125 103.305 16.8125H98.6942V13.8466H102.708C103.413 13.8466 103.998 13.75 104.464 13.5568C104.93 13.3636 105.277 13.0739 105.504 12.6875C105.737 12.3011 105.853 11.821 105.853 11.2472C105.853 10.6676 105.737 10.179 105.504 9.78125C105.277 9.38352 104.927 9.08239 104.456 8.87784C103.99 8.66761 103.402 8.5625 102.691 8.5625H100.203V23H96.5124ZM105.938 15.0568L110.277 23H106.203L101.958 15.0568H105.938ZM120.037 5.54545V7.38636C120.037 7.90909 119.935 8.44318 119.73 8.98864C119.531 9.52841 119.264 10.0398 118.929 10.5227C118.594 11 118.227 11.4062 117.829 11.7415L116.227 10.7955C116.511 10.3466 116.761 9.84943 116.977 9.30398C117.199 8.75852 117.31 8.125 117.31 7.40341V5.54545H120.037ZM136.792 10.5653C136.724 9.87784 136.431 9.34375 135.914 8.96307C135.397 8.58239 134.695 8.39204 133.809 8.39204C133.207 8.39204 132.698 8.47727 132.284 8.64773C131.869 8.8125 131.551 9.04261 131.329 9.33807C131.113 9.63352 131.005 9.96875 131.005 10.3438C130.994 10.6562 131.059 10.929 131.201 11.1619C131.349 11.3949 131.551 11.5966 131.806 11.767C132.062 11.9318 132.357 12.0767 132.693 12.2017C133.028 12.321 133.386 12.4233 133.766 12.5085L135.335 12.8835C136.096 13.054 136.795 13.2812 137.431 13.5653C138.068 13.8494 138.619 14.1989 139.085 14.6136C139.551 15.0284 139.911 15.517 140.167 16.0795C140.428 16.642 140.562 17.2869 140.568 18.0142C140.562 19.0824 140.289 20.0085 139.749 20.7926C139.215 21.571 138.443 22.1761 137.431 22.608C136.426 23.0341 135.213 23.2472 133.792 23.2472C132.383 23.2472 131.156 23.0312 130.11 22.5994C129.07 22.1676 128.258 21.5284 127.673 20.6818C127.093 19.8295 126.789 18.7756 126.761 17.5199H130.332C130.372 18.1051 130.539 18.5937 130.835 18.9858C131.136 19.3722 131.536 19.6648 132.036 19.8636C132.542 20.0568 133.113 20.1534 133.749 20.1534C134.374 20.1534 134.917 20.0625 135.377 19.8807C135.843 19.6989 136.204 19.446 136.46 19.1222C136.715 18.7983 136.843 18.4261 136.843 18.0057C136.843 17.6136 136.727 17.2841 136.494 17.017C136.266 16.75 135.931 16.5227 135.488 16.3352C135.051 16.1477 134.514 15.9773 133.877 15.8239L131.977 15.3466C130.505 14.9886 129.343 14.429 128.491 13.6676C127.639 12.9062 127.215 11.8807 127.221 10.5909C127.215 9.53409 127.497 8.6108 128.065 7.82102C128.639 7.03125 129.426 6.41477 130.426 5.97159C131.426 5.52841 132.562 5.30682 133.835 5.30682C135.13 5.30682 136.261 5.52841 137.227 5.97159C138.198 6.41477 138.954 7.03125 139.494 7.82102C140.034 8.6108 140.312 9.52557 140.329 10.5653H136.792Z" fill="#373338"/>
<path d="M87.2969 37.7344C87.2448 37.8281 87.1771 37.9323 87.0938 38.0469C87.0104 38.151 86.9271 38.276 86.8438 38.4219C86.7708 38.5573 86.7031 38.7188 86.6406 38.9062C86.5885 39.0938 86.5625 39.3177 86.5625 39.5781C86.5625 39.7969 86.6146 40.0938 86.7188 40.4688C86.8333 40.8438 86.9531 41.276 87.0781 41.7656C87.2031 42.2448 87.3177 42.7708 87.4219 43.3438C87.5365 43.9062 87.5938 44.4896 87.5938 45.0938C87.5938 45.9792 87.474 46.7604 87.2344 47.4375C86.9948 48.1146 86.6771 48.6927 86.2812 49.1719C87.0938 48.7344 87.8906 48.1094 88.6719 47.2969C89.4531 46.474 90.2396 45.4323 91.0312 44.1719L91.5625 44.6406C91.1146 45.3802 90.6042 46.1146 90.0312 46.8438C89.4688 47.5625 88.849 48.2135 88.1719 48.7969C87.4948 49.3698 86.7656 49.8333 85.9844 50.1875C85.2031 50.5521 84.375 50.7344 83.5 50.7344C82.7188 50.7344 82.0625 50.5469 81.5312 50.1719C80.9896 49.8073 80.6562 49.2552 80.5312 48.5156L81.0938 48.4062C81.0938 48.4688 81.125 48.5729 81.1875 48.7188C81.2396 48.8542 81.3281 48.9896 81.4531 49.125C81.5781 49.2604 81.75 49.3802 81.9688 49.4844C82.1771 49.5885 82.4375 49.6406 82.75 49.6406C83.1667 49.6406 83.5365 49.5469 83.8594 49.3594C84.1823 49.1615 84.4635 48.9062 84.7031 48.5938C84.9427 48.2812 85.1458 47.9271 85.3125 47.5312C85.4792 47.125 85.6094 46.7083 85.7031 46.2812C85.8073 45.8542 85.8802 45.4375 85.9219 45.0312C85.9635 44.625 85.9844 44.2552 85.9844 43.9219C85.9844 43.5885 85.9688 43.2188 85.9375 42.8125C85.9167 42.4062 85.8906 42.0208 85.8594 41.6562C85.8281 41.2812 85.7969 40.9583 85.7656 40.6875C85.7448 40.4062 85.7344 40.224 85.7344 40.1406V40.1094C85.599 40.2552 85.4375 40.4688 85.25 40.75C85.0625 41.0312 84.8594 41.3385 84.6406 41.6719C84.4323 42.0052 84.2188 42.3438 84 42.6875C83.7917 43.0312 83.599 43.3438 83.4219 43.625C83.2552 43.9062 83.1146 44.1406 83 44.3281C82.8958 44.5052 82.8438 44.599 82.8438 44.6094L82.2812 44.1719C82.2917 44.1615 82.4219 43.9375 82.6719 43.5C82.9219 43.0625 83.25 42.5104 83.6562 41.8438C84.0729 41.1667 84.5417 40.4219 85.0625 39.6094C85.5833 38.7865 86.1198 37.9896 86.6719 37.2188L87.2969 37.7344ZM103.453 39.6094C103.318 39.8802 103.125 40.2344 102.875 40.6719C102.635 41.1094 102.375 41.5938 102.094 42.125C101.812 42.6458 101.526 43.1927 101.234 43.7656C100.953 44.3385 100.693 44.901 100.453 45.4531C100.224 45.9948 100.031 46.5104 99.875 47C99.7292 47.4792 99.6562 47.8854 99.6562 48.2188C99.6562 48.5521 99.7188 48.7708 99.8438 48.875C99.9792 48.9688 100.151 49.0156 100.359 49.0156C100.661 49.0156 100.969 48.9271 101.281 48.75C101.604 48.5729 101.917 48.3438 102.219 48.0625C102.531 47.7812 102.833 47.4635 103.125 47.1094C103.417 46.7552 103.688 46.401 103.938 46.0469C104.198 45.6823 104.432 45.3385 104.641 45.0156C104.849 44.6823 105.026 44.401 105.172 44.1719L105.734 44.6094C105.557 44.9427 105.349 45.3021 105.109 45.6875C104.87 46.0729 104.604 46.4635 104.312 46.8594C104.031 47.2448 103.724 47.6198 103.391 47.9844C103.057 48.349 102.703 48.6719 102.328 48.9531C101.964 49.2344 101.578 49.4583 101.172 49.625C100.766 49.7917 100.349 49.875 99.9219 49.875C99.2969 49.875 98.8385 49.6875 98.5469 49.3125C98.2552 48.9375 98.1094 48.4531 98.1094 47.8594C98.1094 47.8177 98.1094 47.7292 98.1094 47.5938C98.1198 47.4479 98.1354 47.3333 98.1562 47.25C97.6354 47.9062 97.1354 48.4479 96.6562 48.875C96.1875 49.3021 95.7292 49.6406 95.2812 49.8906C94.8438 50.1406 94.4167 50.3125 94 50.4062C93.5938 50.5104 93.2031 50.5625 92.8281 50.5625C92.4323 50.5625 92.0573 50.4948 91.7031 50.3594C91.3594 50.2344 91.0573 50.0469 90.7969 49.7969C90.526 49.5469 90.3177 49.2396 90.1719 48.875C90.0156 48.5104 89.9375 48.0885 89.9375 47.6094C89.9375 47.0156 90.0729 46.3385 90.3438 45.5781C90.6042 44.8073 91.0729 43.9792 91.75 43.0938C92.3229 42.3333 92.9167 41.6927 93.5312 41.1719C94.1562 40.651 94.7656 40.2344 95.3594 39.9219C95.9635 39.599 96.5365 39.3698 97.0781 39.2344C97.6198 39.099 98.1042 39.0312 98.5312 39.0312C99.4896 39.0312 100.214 39.1927 100.703 39.5156C101.193 39.8281 101.49 40.3125 101.594 40.9688C101.802 40.7083 102.021 40.4479 102.25 40.1875C102.479 39.9271 102.714 39.6615 102.953 39.3906L103.453 39.6094ZM98.6562 45.5469C98.7917 45.3281 98.9583 45.0521 99.1562 44.7188C99.3542 44.375 99.5625 44.026 99.7812 43.6719C100 43.3073 100.214 42.9583 100.422 42.625C100.63 42.2917 100.812 42.0104 100.969 41.7812C100.969 41.6875 100.953 41.5365 100.922 41.3281C100.901 41.1198 100.833 40.9115 100.719 40.7031C100.604 40.4844 100.422 40.2969 100.172 40.1406C99.9219 39.9844 99.5729 39.9062 99.125 39.9062C98.8021 39.9062 98.4375 39.9583 98.0312 40.0625C97.6354 40.1562 97.2083 40.3229 96.75 40.5625C96.3021 40.7917 95.8385 41.099 95.3594 41.4844C94.8802 41.8698 94.401 42.349 93.9219 42.9219C93.2031 43.7865 92.6458 44.6562 92.25 45.5312C91.8646 46.3958 91.6719 47.1771 91.6719 47.875C91.6719 48.4688 91.8073 48.9271 92.0781 49.25C92.349 49.5729 92.7344 49.7344 93.2344 49.7344C93.8073 49.7344 94.3438 49.6094 94.8438 49.3594C95.3438 49.099 95.8125 48.7656 96.25 48.3594C96.6875 47.9531 97.1042 47.5052 97.5 47.0156C97.8958 46.5156 98.2812 46.026 98.6562 45.5469ZM116.5 27.2656C116.865 27.2656 117.167 27.3542 117.406 27.5312C117.656 27.7083 117.781 28.0312 117.781 28.5C117.781 28.8229 117.714 29.2083 117.578 29.6562C117.453 30.1042 117.276 30.5938 117.047 31.125C116.828 31.6458 116.568 32.1979 116.266 32.7812C115.964 33.3542 115.635 33.9271 115.281 34.5C114.938 35.0729 114.573 35.6302 114.188 36.1719C113.812 36.7135 113.438 37.2135 113.062 37.6719C112.312 38.599 111.661 39.3802 111.109 40.0156C110.568 40.651 110.099 41.1927 109.703 41.6406C109.307 42.0781 108.974 42.4375 108.703 42.7188C108.432 42.9896 108.193 43.224 107.984 43.4219C107.776 43.6198 107.583 43.8021 107.406 43.9688C107.229 44.125 107.047 44.3021 106.859 44.5C106.776 44.8958 106.734 45.276 106.734 45.6406C106.745 45.9948 106.75 46.3229 106.75 46.625C106.75 47.5312 106.896 48.2031 107.188 48.6406C107.479 49.0781 107.891 49.2969 108.422 49.2969C108.776 49.2969 109.13 49.2083 109.484 49.0312C109.849 48.8438 110.208 48.6042 110.562 48.3125C110.917 48.0208 111.26 47.6927 111.594 47.3281C111.927 46.9531 112.24 46.5781 112.531 46.2031C112.833 45.8177 113.104 45.4479 113.344 45.0938C113.583 44.7396 113.792 44.4323 113.969 44.1719L114.547 44.6094C114.516 44.651 114.411 44.8177 114.234 45.1094C114.068 45.3906 113.844 45.7344 113.562 46.1406C113.281 46.5469 112.948 46.9844 112.562 47.4531C112.177 47.9115 111.76 48.3385 111.312 48.7344C110.865 49.1302 110.391 49.4583 109.891 49.7188C109.401 49.9792 108.901 50.1094 108.391 50.1094C107.964 50.1094 107.552 50.0312 107.156 49.875C106.771 49.7083 106.427 49.4531 106.125 49.1094C105.833 48.7552 105.594 48.3073 105.406 47.7656C105.229 47.224 105.141 46.5729 105.141 45.8125C105.141 44.8646 105.25 43.875 105.469 42.8438C105.698 41.8021 106.005 40.7604 106.391 39.7188C106.776 38.6667 107.229 37.6302 107.75 36.6094C108.271 35.5885 108.823 34.6198 109.406 33.7031C110 32.776 110.615 31.9219 111.25 31.1406C111.896 30.349 112.526 29.6667 113.141 29.0938C113.766 28.5208 114.365 28.0729 114.938 27.75C115.51 27.4271 116.031 27.2656 116.5 27.2656ZM107.141 43.1094C108.026 42.1927 108.88 41.2656 109.703 40.3281C110.536 39.3802 111.312 38.4479 112.031 37.5312C112.76 36.6042 113.427 35.7083 114.031 34.8438C114.635 33.9688 115.151 33.1458 115.578 32.375C116.005 31.6042 116.339 30.901 116.578 30.2656C116.818 29.6302 116.938 29.0833 116.938 28.625C116.938 28.5417 116.896 28.4323 116.812 28.2969C116.729 28.151 116.63 28.0781 116.516 28.0781C116.193 28.0781 115.766 28.2917 115.234 28.7188C114.703 29.1458 114.125 29.7292 113.5 30.4688C112.885 31.1979 112.245 32.0521 111.578 33.0312C110.922 34.0104 110.302 35.0573 109.719 36.1719C109.135 37.2865 108.615 38.4375 108.156 39.625C107.698 40.8125 107.359 41.974 107.141 43.1094ZM122.781 45.75C122.823 45.7604 122.865 45.7656 122.906 45.7656C122.948 45.7656 122.995 45.7656 123.047 45.7656C123.339 45.7656 123.604 45.7396 123.844 45.6875C124.083 45.625 124.302 45.5312 124.5 45.4062C124.708 45.2812 124.906 45.1198 125.094 44.9219C125.281 44.7135 125.464 44.4635 125.641 44.1719L126.203 44.6094C125.703 45.3177 125.188 45.8125 124.656 46.0938C124.125 46.375 123.562 46.5156 122.969 46.5156C122.75 46.5156 122.557 46.4948 122.391 46.4531C121.943 47.2031 121.464 47.8438 120.953 48.375C120.443 48.8958 119.922 49.3229 119.391 49.6562C118.859 49.9896 118.333 50.2292 117.812 50.375C117.292 50.5312 116.807 50.6094 116.359 50.6094C115.901 50.6094 115.474 50.526 115.078 50.3594C114.693 50.2031 114.359 49.974 114.078 49.6719C113.797 49.3698 113.578 49.0104 113.422 48.5938C113.266 48.1771 113.188 47.7083 113.188 47.1875C113.188 46.6667 113.271 46.1354 113.438 45.5938C113.604 45.0521 113.828 44.5156 114.109 43.9844C114.401 43.4531 114.74 42.9427 115.125 42.4531C115.51 41.9531 115.927 41.4896 116.375 41.0625C116.823 40.6354 117.286 40.25 117.766 39.9062C118.245 39.5625 118.724 39.2812 119.203 39.0625L119.703 39.7188C119.151 40.1146 118.589 40.6146 118.016 41.2188C117.453 41.8229 116.938 42.4844 116.469 43.2031C116.01 43.9219 115.63 44.6719 115.328 45.4531C115.036 46.224 114.891 46.974 114.891 47.7031C114.891 48.3594 115.036 48.8698 115.328 49.2344C115.62 49.5885 116.062 49.7656 116.656 49.7656C117.115 49.7656 117.568 49.6719 118.016 49.4844C118.464 49.2969 118.901 49.0417 119.328 48.7188C119.755 48.3958 120.167 48.0156 120.562 47.5781C120.958 47.1302 121.333 46.6562 121.688 46.1562C121.385 45.9792 121.12 45.7448 120.891 45.4531C120.661 45.151 120.469 44.8125 120.312 44.4375C120.156 44.0521 120.036 43.6406 119.953 43.2031C119.88 42.7656 119.844 42.3177 119.844 41.8594C119.844 41.401 119.901 40.9688 120.016 40.5625C120.13 40.1562 120.286 39.8021 120.484 39.5C120.693 39.1875 120.932 38.9427 121.203 38.7656C121.474 38.5885 121.771 38.5 122.094 38.5C122.385 38.5 122.646 38.5781 122.875 38.7344C123.104 38.8802 123.297 39.0885 123.453 39.3594C123.609 39.6198 123.729 39.9323 123.812 40.2969C123.896 40.6615 123.938 41.0521 123.938 41.4688C123.938 41.7812 123.911 42.125 123.859 42.5C123.807 42.875 123.729 43.2552 123.625 43.6406C123.531 44.0156 123.411 44.3906 123.266 44.7656C123.13 45.1302 122.969 45.4583 122.781 45.75ZM120.656 41.8594C120.656 42.1615 120.682 42.4896 120.734 42.8438C120.786 43.1979 120.87 43.5417 120.984 43.875C121.099 44.2083 121.245 44.5208 121.422 44.8125C121.599 45.0938 121.818 45.3177 122.078 45.4844C122.266 45.1198 122.422 44.75 122.547 44.375C122.682 43.9896 122.792 43.6198 122.875 43.2656C122.969 42.9115 123.031 42.5833 123.062 42.2812C123.104 41.9688 123.125 41.6979 123.125 41.4688C123.125 41.1562 123.099 40.8698 123.047 40.6094C122.995 40.349 122.922 40.125 122.828 39.9375C122.745 39.7396 122.635 39.5885 122.5 39.4844C122.375 39.3698 122.234 39.3125 122.078 39.3125C121.87 39.3125 121.677 39.3854 121.5 39.5312C121.323 39.6667 121.172 39.8542 121.047 40.0938C120.922 40.3229 120.823 40.5938 120.75 40.9062C120.688 41.2083 120.656 41.526 120.656 41.8594ZM138.703 41.8906C138.703 42.3385 138.625 42.7969 138.469 43.2656C138.312 43.724 138.115 44.1875 137.875 44.6562C137.635 45.1146 137.38 45.5677 137.109 46.0156C136.839 46.4635 136.583 46.8958 136.344 47.3125C136.104 47.7292 135.906 48.1302 135.75 48.5156C135.594 48.8906 135.516 49.2344 135.516 49.5469C135.516 49.7865 135.568 49.9479 135.672 50.0312C135.776 50.1146 135.891 50.1562 136.016 50.1562C136.411 50.1562 136.854 49.9635 137.344 49.5781C137.833 49.1823 138.328 48.6875 138.828 48.0938C139.339 47.5 139.844 46.8542 140.344 46.1562C140.844 45.4583 141.297 44.7969 141.703 44.1719L142.266 44.6094C142.182 44.7344 142.031 44.9844 141.812 45.3594C141.594 45.724 141.323 46.1458 141 46.625C140.677 47.0938 140.312 47.5885 139.906 48.1094C139.51 48.6198 139.083 49.0938 138.625 49.5312C138.167 49.9583 137.693 50.3125 137.203 50.5938C136.724 50.875 136.24 51.0156 135.75 51.0156C135.469 51.0156 135.214 50.9688 134.984 50.875C134.755 50.7812 134.557 50.651 134.391 50.4844C134.234 50.3177 134.109 50.125 134.016 49.9062C133.922 49.6771 133.875 49.4375 133.875 49.1875C133.875 48.7812 133.964 48.3438 134.141 47.875C134.328 47.3958 134.557 46.9062 134.828 46.4062C135.099 45.9062 135.396 45.4062 135.719 44.9062C136.042 44.3958 136.339 43.9115 136.609 43.4531C136.88 42.9948 137.104 42.5729 137.281 42.1875C137.469 41.7917 137.562 41.4531 137.562 41.1719C137.562 40.849 137.474 40.5781 137.297 40.3594C137.13 40.1406 136.891 40.0312 136.578 40.0312C136.245 40.0312 135.859 40.1719 135.422 40.4531C134.984 40.724 134.495 41.125 133.953 41.6562C133.411 42.1875 132.818 42.8438 132.172 43.625C131.536 44.3958 130.844 45.276 130.094 46.2656C129.667 46.8385 129.25 47.3906 128.844 47.9219C128.667 48.151 128.49 48.3854 128.312 48.625C128.135 48.8646 127.958 49.1042 127.781 49.3438C127.604 49.5729 127.438 49.7917 127.281 50C127.125 50.2188 126.984 50.4062 126.859 50.5625L125.484 50L127.312 47.4844C127.573 47.1302 127.839 46.75 128.109 46.3438C128.38 45.9375 128.646 45.5208 128.906 45.0938C129.177 44.6562 129.432 44.2188 129.672 43.7812C129.911 43.3438 130.135 42.9167 130.344 42.5C130.646 41.875 130.854 41.3594 130.969 40.9531C131.083 40.5365 131.141 40.2031 131.141 39.9531C131.141 39.6719 131.089 39.4896 130.984 39.4062C130.88 39.3125 130.734 39.2656 130.547 39.2656C130.349 39.2656 130.12 39.3698 129.859 39.5781C129.609 39.776 129.349 40.0365 129.078 40.3594C128.807 40.6719 128.531 41.0312 128.25 41.4375C127.979 41.8333 127.719 42.2292 127.469 42.625C127.219 43.0208 126.984 43.3958 126.766 43.75C126.547 44.1042 126.365 44.3906 126.219 44.6094L125.656 44.1719C126.188 43.3385 126.667 42.5781 127.094 41.8906C127.531 41.1927 127.948 40.5938 128.344 40.0938C128.75 39.5938 129.141 39.2083 129.516 38.9375C129.901 38.6562 130.307 38.5156 130.734 38.5156C130.964 38.5156 131.182 38.5625 131.391 38.6562C131.609 38.75 131.797 38.8906 131.953 39.0781C132.12 39.2552 132.25 39.474 132.344 39.7344C132.438 39.9948 132.484 40.2969 132.484 40.6406C132.484 40.9115 132.453 41.1927 132.391 41.4844C132.849 41.0365 133.276 40.6667 133.672 40.375C134.068 40.0833 134.432 39.8542 134.766 39.6875C135.099 39.5104 135.406 39.3854 135.688 39.3125C135.969 39.2396 136.224 39.2031 136.453 39.2031C136.651 39.2031 136.88 39.2396 137.141 39.3125C137.401 39.3854 137.646 39.5208 137.875 39.7188C138.104 39.9167 138.297 40.1927 138.453 40.5469C138.62 40.8906 138.703 41.3385 138.703 41.8906Z" fill="#373338"/>
</svg>
