<svg xmlns="http://www.w3.org/2000/svg" width="450.85" height="156.6" viewBox="0 0 450.85 156.6">
  <g id="Group_1" data-name="Group 1" transform="translate(-0.521 -0.24)">
    <path id="Path_1" data-name="Path 1" d="M53.25,59.209a8.233,8.233,0,0,0,1.084,1.012,22.44,22.44,0,0,0,2.818,1.807,24.2,24.2,0,0,0,4.553,1.807,21.306,21.306,0,0,0,6.07.795,27.045,27.045,0,0,0,10.768-2.168,37.869,37.869,0,0,0,9.322-5.709A45.631,45.631,0,0,0,95.6,48.658a58.732,58.732,0,0,0,5.853-9.322,53.306,53.306,0,0,0,3.686-9.394,31.05,31.05,0,0,0,1.3-8.311,20.568,20.568,0,0,0-1.3-7.66A14.632,14.632,0,0,0,101.6,8.623a13.528,13.528,0,0,0-5.2-3.107A19.783,19.783,0,0,0,89.961,4.5,39.907,39.907,0,0,0,76.3,6.961a60.531,60.531,0,0,0-13.08,6.576,82.691,82.691,0,0,0-12.213,9.9A113.929,113.929,0,0,0,40.1,35.578a128.987,128.987,0,0,0-16.26,27.533,90.486,90.486,0,0,0-4.48,13.514,50.788,50.788,0,0,0-1.59,12,39.072,39.072,0,0,0,1.807,12,28.193,28.193,0,0,0,5.565,9.828,25.571,25.571,0,0,0,9.178,6.576,31.76,31.76,0,0,0,12.936,2.458,49.654,49.654,0,0,0,13.658-2.024A53.5,53.5,0,0,0,75,110.951,76.785,76.785,0,0,0,88.949,99.389,103.32,103.32,0,0,0,102.1,82.045l2.6,2.023a104.7,104.7,0,0,1-14.164,18.573A79.268,79.268,0,0,1,75.8,114.709a54.4,54.4,0,0,1-14.525,6.576,49.954,49.954,0,0,1-13.586,2.024,38.02,38.02,0,0,1-16.332-3.325,35.465,35.465,0,0,1-11.851-8.6,36.947,36.947,0,0,1-7.227-12.141A42.23,42.23,0,0,1,9.891,85.3a55.083,55.083,0,0,1,1.662-12.936,89.008,89.008,0,0,1,4.842-13.947A117.813,117.813,0,0,1,23.838,44.25a121.715,121.715,0,0,1,9.756-13.514A110.879,110.879,0,0,1,45.3,18.668,84.886,84.886,0,0,1,58.453,9.057,68.184,68.184,0,0,1,72.689,2.625,48.317,48.317,0,0,1,87.648.24a29.982,29.982,0,0,1,9.105,1.373A20.44,20.44,0,0,1,104.486,5.8a20.243,20.243,0,0,1,5.276,7.443,27.093,27.093,0,0,1,1.951,10.84,36.814,36.814,0,0,1-1.3,9.25,51.608,51.608,0,0,1-3.83,10.045,57.748,57.748,0,0,1-6.07,9.684,45.631,45.631,0,0,1-8.094,8.311,39.18,39.18,0,0,1-9.973,5.709,30.841,30.841,0,0,1-11.562,2.168,28.263,28.263,0,0,1-11.49-2.168,31.163,31.163,0,0,1-8.311-5.492Zm89.609,30.135a2.387,2.387,0,0,0,.579.072h.65a17.375,17.375,0,0,0,3.685-.361,10.706,10.706,0,0,0,3.036-1.3,13.051,13.051,0,0,0,2.746-2.24,23.1,23.1,0,0,0,2.529-3.469l2.6,2.023a21.588,21.588,0,0,1-7.155,6.865,16.443,16.443,0,0,1-7.8,1.951,11.087,11.087,0,0,1-2.674-.289,49.1,49.1,0,0,1-6.649,8.888,39.855,39.855,0,0,1-7.226,5.926,27.95,27.95,0,0,1-7.3,3.324,23.471,23.471,0,0,1-6.721,1.084,15.111,15.111,0,0,1-5.926-1.156,12.827,12.827,0,0,1-4.625-3.18,14.912,14.912,0,0,1-3.035-4.986,18.414,18.414,0,0,1-1.084-6.5,24.985,24.985,0,0,1,1.156-7.371,42.77,42.77,0,0,1,3.107-7.443,51.592,51.592,0,0,1,4.7-7.082,56.778,56.778,0,0,1,5.781-6.432,60.1,60.1,0,0,1,6.432-5.348,39.76,39.76,0,0,1,6.649-3.9l2.312,3.035a55.407,55.407,0,0,0-7.805,6.938,67.756,67.756,0,0,0-7.154,9.178,58.644,58.644,0,0,0-5.275,10.406,29.312,29.312,0,0,0-2.024,10.406,11.065,11.065,0,0,0,2.024,7.082q2.023,2.457,6.142,2.457a16.154,16.154,0,0,0,6.287-1.3,28,28,0,0,0,6.071-3.541A41.392,41.392,0,0,0,132.6,97.8a78.173,78.173,0,0,0,5.2-6.576,13.1,13.1,0,0,1-3.686-3.252,21.262,21.262,0,0,1-2.674-4.7,30.284,30.284,0,0,1-1.662-5.709,37.769,37.769,0,0,1-.506-6.215,22,22,0,0,1,.795-6,17.664,17.664,0,0,1,2.168-4.914,11.786,11.786,0,0,1,3.325-3.4,7.371,7.371,0,0,1,4.119-1.229,6.262,6.262,0,0,1,3.613,1.084,8.186,8.186,0,0,1,2.674,2.891,14.833,14.833,0,0,1,1.662,4.336,24.309,24.309,0,0,1,.578,5.42,34.862,34.862,0,0,1-.361,4.77,42.93,42.93,0,0,1-1.084,5.275,43.536,43.536,0,0,1-1.662,5.2A23.555,23.555,0,0,1,142.859,89.344ZM133.031,71.35a31.422,31.422,0,0,0,.362,4.553,26.418,26.418,0,0,0,1.156,4.77,22.286,22.286,0,0,0,2.023,4.336,9.857,9.857,0,0,0,3.035,3.107,36.221,36.221,0,0,0,2.168-5.131,49.95,49.95,0,0,0,1.518-5.131,29.833,29.833,0,0,0,.867-4.553,28.919,28.919,0,0,0,.289-3.758,20.3,20.3,0,0,0-.361-3.975,12.374,12.374,0,0,0-1.012-3.107,5.031,5.031,0,0,0-1.517-2.1,2.817,2.817,0,0,0-1.952-.795,4.119,4.119,0,0,0-2.673,1.012,7.667,7.667,0,0,0-2.1,2.6,14.9,14.9,0,0,0-1.373,3.758A21.721,21.721,0,0,0,133.031,71.35Zm83.467.145a20.034,20.034,0,0,1-1.084,6.359,48.684,48.684,0,0,1-2.746,6.432q-1.662,3.18-3.541,6.287t-3.541,6a45.447,45.447,0,0,0-2.746,5.565,12.5,12.5,0,0,0-1.084,4.769,2.771,2.771,0,0,0,.723,2.241,2.486,2.486,0,0,0,1.589.578q2.747,0,6.143-2.674a51.222,51.222,0,0,0,6.865-6.865q3.541-4.12,7.01-8.961t6.287-9.178l2.6,2.023q-.579.867-2.1,3.469-1.518,2.529-3.758,5.854-2.239,3.252-5.059,6.865a59.208,59.208,0,0,1-5.925,6.576,35.971,35.971,0,0,1-6.576,4.914,13.154,13.154,0,0,1-6.721,1.951,9.282,9.282,0,0,1-3.541-.65,8.26,8.26,0,0,1-2.746-1.807,9.134,9.134,0,0,1-1.735-2.674,8.7,8.7,0,0,1-.65-3.324,17.242,17.242,0,0,1,1.228-6.07,61.115,61.115,0,0,1,3.18-6.793q1.879-3.469,4.119-6.937,2.241-3.541,4.119-6.721a64.865,64.865,0,0,0,3.108-5.854,11.394,11.394,0,0,0,1.3-4.7,5.78,5.78,0,0,0-1.229-3.758,3.928,3.928,0,0,0-3.324-1.518,10.282,10.282,0,0,0-5.348,1.951,40.809,40.809,0,0,0-6.793,5.564,119.588,119.588,0,0,0-8.238,9.105q-4.408,5.348-9.611,12.213-2.964,3.975-5.782,7.66-1.229,1.59-2.457,3.252l-2.457,3.324q-1.229,1.59-2.312,3.035-1.084,1.518-1.951,2.6l-6.36-2.6,8.455-11.635q1.808-2.457,3.686-5.275t3.686-5.781q1.878-3.035,3.541-6.07t3.107-5.926a46.1,46.1,0,0,0,2.891-7.154,18.459,18.459,0,0,0,.794-4.625A3.226,3.226,0,0,0,180.8,60a2.919,2.919,0,0,0-2.024-.65A5.406,5.406,0,0,0,175.6,60.8a25.474,25.474,0,0,0-3.614,3.613,58.425,58.425,0,0,0-3.83,4.986q-1.878,2.746-3.613,5.492t-3.252,5.2q-1.518,2.457-2.529,3.975l-2.6-2.023q3.686-5.781,6.649-10.551a93.267,93.267,0,0,1,5.781-8.311,29.5,29.5,0,0,1,5.42-5.348,9.41,9.41,0,0,1,5.637-1.951,7.318,7.318,0,0,1,3.035.65,6.871,6.871,0,0,1,2.6,1.951,8.627,8.627,0,0,1,1.807,3.035,12.344,12.344,0,0,1,.65,4.191,18.617,18.617,0,0,1-.433,3.9,57.155,57.155,0,0,1,5.926-5.131,35.28,35.28,0,0,1,5.058-3.18,19.855,19.855,0,0,1,4.264-1.734,14.234,14.234,0,0,1,3.541-.506,11.989,11.989,0,0,1,3.179.506,8.822,8.822,0,0,1,3.4,1.879,10.628,10.628,0,0,1,2.674,3.83A14.306,14.306,0,0,1,216.5,71.494ZM271.2,65.135a6.942,6.942,0,0,0,.434-2.457,4.155,4.155,0,0,0-1.879-3.613q-1.807-1.373-5.781-1.373a16.405,16.405,0,0,0-6.577,1.445,26.217,26.217,0,0,0-6.287,3.83A36.676,36.676,0,0,0,245.4,68.82a43.859,43.859,0,0,0-4.552,7.371,47.493,47.493,0,0,0-3.036,8.455,37.128,37.128,0,0,0-1.084,8.889,20.669,20.669,0,0,0,.795,6.142,10.867,10.867,0,0,0,2.241,4.119,8.452,8.452,0,0,0,3.468,2.312,14.833,14.833,0,0,0,4.553.651,22.264,22.264,0,0,0,9.684-2.24,41.332,41.332,0,0,0,8.888-5.782,58.53,58.53,0,0,0,7.8-8.021,94.01,94.01,0,0,0,6.359-8.672l2.674,2.023a75.827,75.827,0,0,1-8.31,11.563,56.648,56.648,0,0,1-9.034,8.238,36.971,36.971,0,0,1-9.394,4.986,28.21,28.21,0,0,1-9.322,1.663,22.256,22.256,0,0,1-6.938-1.084,17.1,17.1,0,0,1-5.781-3.252,16.606,16.606,0,0,1-3.975-5.709A21.36,21.36,0,0,1,229,92.234a34.766,34.766,0,0,1,1.59-10.623,40.185,40.185,0,0,1,10.623-16.982,43.2,43.2,0,0,1,7.371-5.854,35.351,35.351,0,0,1,7.805-3.613,24,24,0,0,1,7.443-1.3,14.135,14.135,0,0,1,5.781,1.012,10.262,10.262,0,0,1,3.541,2.313,7.037,7.037,0,0,1,1.735,2.891,8.465,8.465,0,0,1,.506,2.6,14.719,14.719,0,0,1-.506,3.686,14.915,14.915,0,0,1-1.446,3.613,8.629,8.629,0,0,1-2.24,2.674,4.407,4.407,0,0,1-2.891,1.084,4.035,4.035,0,0,1-2.746-1.012,3.523,3.523,0,0,1-1.156-2.674q0-.072.072-.867a4.5,4.5,0,0,1,.723-1.662,5.242,5.242,0,0,1,1.734-1.662,6.719,6.719,0,0,1,3.4-.723ZM286.09,92.523q-.145.867-.217,1.734t-.072,1.734a17.13,17.13,0,0,0,.722,4.987,13.626,13.626,0,0,0,2.241,4.119,11.034,11.034,0,0,0,3.685,2.746,12.171,12.171,0,0,0,5.059,1.011q9.467,0,18.283-6.431t17.561-20.379l2.457,2.168a88.259,88.259,0,0,1-9.684,13.441,57.918,57.918,0,0,1-9.828,8.817,36.042,36.042,0,0,1-9.539,4.914A29.169,29.169,0,0,1,297.8,112.9a27.142,27.142,0,0,1-6.576-.867,19.868,19.868,0,0,1-6.432-2.89,15.834,15.834,0,0,1-4.769-5.42,16.76,16.76,0,0,1-1.952-8.455,29.282,29.282,0,0,1,1.879-10.406,41.07,41.07,0,0,1,4.77-9.394,46.11,46.11,0,0,1,6.793-7.877,54.621,54.621,0,0,1,7.732-6.143,40.168,40.168,0,0,1,7.733-3.9,18.862,18.862,0,0,1,6.648-1.445,13.439,13.439,0,0,1,3.83.578,9.939,9.939,0,0,1,3.469,1.807,8.588,8.588,0,0,1,2.529,3.252,10.713,10.713,0,0,1,1.012,4.842,15.159,15.159,0,0,1-1.807,7.227,24.58,24.58,0,0,1-4.7,6.215,38.059,38.059,0,0,1-6.865,5.131,54.934,54.934,0,0,1-8.166,3.83,62.441,62.441,0,0,1-8.6,2.529A42.686,42.686,0,0,1,286.09,92.523Zm.578-3.107a39.2,39.2,0,0,0,9.105-2.023,41.628,41.628,0,0,0,7.8-3.686,40.837,40.837,0,0,0,6.287-4.842,33.275,33.275,0,0,0,4.7-5.275,26.679,26.679,0,0,0,2.891-5.131,11.744,11.744,0,0,0,1.012-4.408,4.358,4.358,0,0,0-1.084-3.107,3.15,3.15,0,0,0-2.457-1.156A14.559,14.559,0,0,0,307.77,62.1a36.315,36.315,0,0,0-7.95,6.287,58.384,58.384,0,0,0-7.515,9.394A55.233,55.233,0,0,0,286.668,89.416Zm71.9-43.432-16.4,32.953A111.725,111.725,0,0,1,351.273,68.6a51.12,51.12,0,0,1,9.756-7.877,28.543,28.543,0,0,1,6.5-2.963,18.2,18.2,0,0,1,5.348-.867,9.036,9.036,0,0,1,4.047.795,6.8,6.8,0,0,1,2.529,2.1,7.867,7.867,0,0,1,1.3,2.891,13.058,13.058,0,0,1,.361,3.035,20.327,20.327,0,0,1-1.156,6.721,46.217,46.217,0,0,1-2.891,6.576q-1.662,3.252-3.685,6.432-2.023,3.107-3.758,6.143a49.619,49.619,0,0,0-2.818,5.854A14.955,14.955,0,0,0,365.654,103a6.966,6.966,0,0,0,.289,2.168,4.378,4.378,0,0,0,.868,1.3,3.191,3.191,0,0,0,1.228.578,6,6,0,0,0,1.3.144,5.909,5.909,0,0,0,3.18-1.228,32.268,32.268,0,0,0,3.974-3.324q2.1-2.1,4.264-4.7,2.24-2.674,4.263-5.42,2.1-2.818,3.9-5.492,1.806-2.746,3.18-4.986l2.673,2.023q-.795,1.59-2.384,4.191-1.518,2.6-3.614,5.637-2.1,2.963-4.625,6a50.507,50.507,0,0,1-5.2,5.42,28.025,28.025,0,0,1-5.637,3.975,10.908,10.908,0,0,1-9.177,1.012,8.608,8.608,0,0,1-3.035-1.735,9.042,9.042,0,0,1-2.1-3.107,11.459,11.459,0,0,1-.8-4.48,25.028,25.028,0,0,1,1.228-7.155,36.428,36.428,0,0,1,4.915-9.25q2.963-4.264,5.13-7.082,2.169-2.891,3.541-4.986a19.678,19.678,0,0,0,2.1-3.9,11.649,11.649,0,0,0,.65-3.975,3.762,3.762,0,0,0-1.083-2.891,3.507,3.507,0,0,0-2.458-1.012,15.993,15.993,0,0,0-7.587,2.1,39.321,39.321,0,0,0-7.733,5.564,72.906,72.906,0,0,0-7.515,7.8q-3.686,4.408-7.01,9.033-3.252,4.553-6.071,8.961-2.745,4.408-4.769,7.95-2.023,3.468-3.107,5.636-1.156,2.1-1.229,2.168-3.035,6.216-5.926,12-2.891,5.853-5.42,11.056-2.6,5.2-4.769,9.467l-3.758,7.516q-1.59,3.178-2.457,4.986-.939,1.806-1.012,1.879l-7.877-4.481q5.927-11.2,10.7-20.234t9.1-17.055q4.337-7.948,8.527-15.465t8.889-15.682q4.7-8.238,10.189-17.633,5.565-9.467,12.647-21.318Zm48.274,3.4q.721-1.229,2.529-4.264,1.879-3.035,4.336-6.721,2.529-3.686,5.42-7.371a54.938,54.938,0,0,1,5.781-6.359l3.252,1.951q-3.108,5.131-6.359,10.912-3.252,5.709-6.432,11.852h23.559l-1.446,3.758H413.422q-3.252,6.5-6.143,12.936-2.818,6.432-4.986,12.285a96.6,96.6,0,0,0-3.4,10.984,38.068,38.068,0,0,0-1.228,8.816q0,4.7,2.168,6.793a7.542,7.542,0,0,0,5.348,2.024,11.776,11.776,0,0,0,5.781-1.663,33.539,33.539,0,0,0,5.781-4.335,50.878,50.878,0,0,0,5.42-5.709q2.6-3.107,4.553-5.854,2.023-2.746,3.324-4.77,1.3-2.1,1.59-2.6l2.674,2.023q-2.531,4.191-5.709,8.889a65.369,65.369,0,0,1-7.082,8.744,39.19,39.19,0,0,1-8.383,6.649,19.481,19.481,0,0,1-9.828,2.6,13.271,13.271,0,0,1-5.709-1.156,11.879,11.879,0,0,1-4.047-3.18,13.865,13.865,0,0,1-2.457-4.914,20.8,20.8,0,0,1-.867-6.142,36.911,36.911,0,0,1,.722-6.143,73.127,73.127,0,0,1,2.313-9.395q1.662-5.492,4.408-12.285a153.164,153.164,0,0,1,7.082-14.6h-12l1.445-3.758Z" fill="#373338"/>
    <path id="Path_4" data-name="Path 4" d="M451.371,121.93c-109.578-16.009-321.923,4.356-432.556,19.111C.136,143.532-7.378,153.649,11.42,152.328c2.338-.165,4.526-.4,6.37-.674C232.939,115.022,388.008,114.174,451.371,121.93Z" fill="#373338"/>
  </g>
</svg>
